# 3ds Max Wavefront OBJ Exporter v0.97b - (c)2007 guruware
# File Created: 15.05.2017 14:23:26

mtllib okteenModule.mtl

#
# object okteen_main
#

v  1.4655 3.5373 -1.4648
v  1.4649 3.5373 1.4655
v  3.5367 1.4652 1.4659
v  3.5376 1.4652 -1.4641
v  1.4655 1.4652 -3.5366
v  -1.4652 3.5373 -1.4657
v  -1.4642 1.4652 -3.5378
v  -3.5367 1.4652 -1.4655
v  -1.4654 3.5373 1.4650
v  -3.5378 1.4652 1.4641
v  -1.4649 -1.4652 -3.5372
v  -3.5373 -1.4652 -1.4653
v  3.5372 -1.4652 -1.4648
v  1.4652 -1.4652 -3.5374
v  -1.4655 1.4652 3.5366
v  1.4642 1.4652 3.5378
v  1.4649 -1.4652 3.5372
v  3.5374 -1.4652 1.4652
v  -3.5372 -1.4652 1.4650
v  -1.4652 -1.4652 3.5374
v  -1.4655 -3.5373 -1.4648
v  -1.4649 -3.5373 1.4655
v  1.4652 -3.5373 -1.4657
v  1.4654 -3.5373 1.4650
# 24 vertices

vn 0.7011 0.7071 0.0921
vn 0.7011 0.7071 0.0922
vn 0.6476 0.5773 -0.4974
vn -0.4974 0.5772 -0.6476
vn -0.7010 0.7072 -0.0920
vn -0.7011 0.7071 -0.0921
vn -0.7012 0.7070 -0.0922
vn -0.6091 0.0001 -0.7931
vn -0.6091 0.0000 -0.7931
vn 0.0922 0.7071 -0.7011
vn 0.7931 0.0001 -0.6091
vn -0.6476 0.5773 0.4974
vn 0.4973 0.5773 0.6476
vn 0.6091 0.0000 0.7931
vn -0.0921 0.7070 0.7012
vn -0.0921 0.7071 0.7011
vn -0.0922 0.7072 0.7010
vn -0.7931 0.0001 0.6091
vn -0.7012 -0.7071 -0.0918
vn -0.7011 -0.7071 -0.0918
vn -0.7011 -0.7071 -0.0919
vn -0.4973 -0.5773 -0.6476
vn 0.6477 -0.5772 -0.4974
vn 0.7011 -0.7071 0.0919
vn 0.0917 -0.7072 -0.7011
vn 0.0918 -0.7071 -0.7011
vn 0.0919 -0.7070 -0.7012
vn 0.4973 -0.5773 0.6476
vn -0.6476 -0.5773 0.4973
vn -0.0918 -0.7071 0.7011
vn -0.0919 -0.7071 0.7011
# 31 vertex normals

vt 0.0626 0.3839 1.1583
vt -0.0624 0.3835 1.1583
vt -0.1247 0.1683 1.1582
vt 0.1253 0.1690 1.1583
vt 0.1875 0.3842 1.1582
vt 0.0624 0.6166 1.1584
vt 0.1875 0.6168 1.1584
vt 0.1246 0.8317 1.1582
vt 0.9374 0.6161 1.1583
vt 1.0624 0.6166 1.1584
vt 1.1246 0.8317 1.1582
vt 0.8747 0.8310 1.1583
vt 0.3125 0.6169 1.1583
vt 0.3754 0.8318 1.1583
vt 0.3747 0.1691 1.1582
vt 0.3125 0.3842 1.1583
vt 0.8125 0.6158 1.1582
vt 0.9376 0.3835 1.1583
vt 0.8125 0.3832 1.1583
vt 0.8753 0.1683 1.1582
vt 0.6875 0.3831 1.1583
vt 0.6246 0.1682 1.1583
vt 0.6254 0.8309 1.1583
vt 0.6875 0.6158 1.1583
vt 0.4376 0.6166 1.1583
vt 0.5626 0.6161 1.1583
vt 0.4374 0.3839 1.1584
vt 0.5624 0.3834 1.1583
# 28 texture coords

g okteen_main
usemtl lighted
s 128
f 1/1/1 2/2/1 3/3/2 4/4/1
s off
f 1/1/3 4/4/3 5/5/3
f 6/6/4 7/7/4 8/8/4
s 128
f 9/9/5 6/10/6 8/11/7 10/12/6
s 1
f 8/8/8 7/7/9 11/13/9 12/14/9
s 2
f 1/1/10 5/5/10 7/7/10 6/6/10
s 1
f 5/5/11 4/4/11 13/15/11 14/16/11
s off
f 9/9/12 10/12/12 15/17/12
f 2/18/13 16/19/13 3/20/13
s 1
f 3/20/14 16/19/14 17/21/14 18/22/14
s 2
f 9/9/15 15/17/16 16/19/17 2/18/16
s 1
f 15/17/18 10/12/18 19/23/18 20/24/18
s 128
f 21/25/19 22/26/20 19/23/21 12/14/20
s off
f 21/25/22 12/14/22 11/13/22
f 23/27/23 14/16/23 13/15/23
s 128
f 24/28/24 23/27/24 13/15/24 18/22/24
s 2
f 21/25/25 11/13/26 14/16/27 23/27/26
s off
f 24/28/28 18/22/28 17/21/28
f 22/26/29 20/24/29 19/23/29
s 2
f 24/28/30 17/21/31 20/24/31 22/26/31
# 12 polygons - 8 triangles
