# 3ds Max Wavefront OBJ Exporter v0.97b - (c)2007 guruware
# File Created: 07.06.2013 07:39:55

mtllib blinkyBlockPicking.mtl

#
# object bb_picking
#

v  4.7329 7.2671 40.0000
v  7.2671 4.7329 40.0000
v  15.5000 13.0000 40.0000
v  13.0000 15.5000 40.0000
v  19.5000 19.5000 40.0000
v  0.0000 19.5000 40.0000
v  6.2039 15.5000 40.0000
v  19.5000 0.0000 40.0000
v  15.5000 6.2039 40.0000
v  10.7961 2.9000 40.0000
v  7.2683 -4.7317 40.0000
v  4.7317 -7.2683 40.0000
v  13.0000 -15.5000 40.0000
v  15.5000 -13.0000 40.0000
v  10.7961 -3.0110 40.0000
v  6.2039 2.9000 40.0000
v  6.2039 -3.0110 40.0000
v  15.5000 -6.2586 40.0000
v  19.5000 -19.5000 40.0000
v  2.9567 6.2039 40.0000
v  2.9567 -6.2039 40.0000
v  0.0000 -19.5000 40.0000
v  6.2039 -15.5000 40.0000
v  2.9567 -10.8509 40.0000
v  -2.9557 -10.8509 40.0000
v  -6.2039 -15.5000 40.0000
v  -2.9567 -6.2039 40.0000
v  -2.9567 6.2039 40.0000
v  2.9567 10.7961 40.0000
v  -2.9567 10.7961 40.0000
v  -6.2039 2.9567 40.0000
v  -6.2039 -2.9567 40.0000
v  -10.7961 2.9567 40.0000
v  -10.7961 -2.9567 40.0000
v  -7.2543 4.7457 40.0000
v  -4.7457 7.2543 40.0000
v  -13.0000 15.4997 40.0000
v  -15.5000 13.0000 40.0000
v  -4.7388 -7.2612 40.0000
v  -7.2612 -4.7388 40.0000
v  -15.5000 -13.0000 40.0000
v  -13.0000 -15.5000 40.0000
v  -19.5000 -19.5000 40.0000
v  -19.5000 0.1096 40.0000
v  -15.5000 6.1491 40.0000
v  -15.5000 -6.2590 40.0000
v  -19.5000 19.6096 40.0000
v  -6.2039 15.4997 40.0000
v  10.7961 2.9000 48.0000
v  6.2039 2.9000 48.0000
v  15.5000 6.2039 48.0000
v  15.5000 13.0000 48.0000
v  4.7329 7.2671 48.0000
v  7.2671 4.7329 48.0000
v  6.2039 15.5000 48.0000
v  13.0000 15.5000 48.0000
v  2.9567 10.7961 48.0000
v  2.9567 6.2039 48.0000
v  -2.9567 10.7961 48.0000
v  -2.9567 6.2039 48.0000
v  -6.2039 15.5003 48.0000
v  -13.0000 15.5003 48.0000
v  -7.2543 4.7457 48.0000
v  -4.7457 7.2543 48.0000
v  -15.5000 6.1491 48.0000
v  -15.5000 13.0000 48.0000
v  -10.7961 2.9567 48.0000
v  -6.2039 2.9567 48.0000
v  -10.7961 -2.9567 48.0000
v  -6.2039 -2.9567 48.0000
v  -15.5000 -6.2590 48.0000
v  -15.5000 -13.0000 48.0000
v  -4.7388 -7.2612 48.0000
v  -7.2612 -4.7388 48.0000
v  -6.2039 -15.5000 48.0000
v  -13.0000 -15.5000 48.0000
v  -2.9557 -10.8509 48.0000
v  -2.9567 -6.2039 48.0000
v  2.9567 -10.8509 48.0000
v  2.9567 -6.2039 48.0000
v  6.2039 -15.5000 48.0000
v  13.0000 -15.5000 48.0000
v  7.2683 -4.7317 48.0000
v  4.7317 -7.2683 48.0000
v  15.5000 -6.2586 48.0000
v  15.5000 -13.0000 48.0000
v  10.7961 -3.0110 48.0000
v  6.2039 -3.0110 48.0000
v  6.2039 2.9019 0.0000
v  6.2039 2.9019 8.0000
v  10.7961 2.9000 8.0000
v  10.7961 2.9000 0.0000
v  15.5000 6.1491 8.0000
v  15.5000 6.1491 0.0000
v  15.5000 13.0000 8.0000
v  15.5000 13.0000 0.0000
v  13.0000 15.5000 0.0000
v  13.0000 15.5000 8.0000
v  6.2039 15.5000 8.0000
v  6.2039 15.5000 0.0000
v  2.9567 10.7413 8.0000
v  2.9567 10.7413 0.0000
v  2.9567 6.1491 8.0000
v  2.9567 6.1491 0.0000
v  4.7329 7.2671 8.0000
v  7.2671 4.7329 8.0000
v  -2.9567 6.1491 0.0000
v  -2.9567 6.1491 8.0000
v  -2.9567 10.7413 8.0000
v  -2.9567 10.7413 0.0000
v  -6.2039 15.5003 8.0000
v  -6.2039 15.4997 0.0000
v  -13.0000 15.5003 8.0000
v  -13.0000 15.4997 0.0000
v  -15.5000 13.0000 0.0000
v  -15.5000 13.0000 8.0000
v  -15.5000 6.1491 8.0000
v  -15.5000 6.1491 0.0000
v  -10.7961 2.9019 8.0000
v  -10.7961 2.9019 0.0000
v  -6.2039 2.9019 8.0000
v  -6.2039 2.9019 0.0000
v  -7.2543 4.7457 8.0000
v  -4.7457 7.2543 8.0000
v  -6.2039 -2.9550 0.0000
v  -6.2039 -2.9550 8.0000
v  -10.7961 -2.9550 8.0000
v  -10.7961 -2.9550 0.0000
v  -15.5000 -6.2587 8.0000
v  -15.5000 -6.2587 0.0000
v  -15.5000 -13.0000 8.0000
v  -15.5000 -13.0000 0.0000
v  -13.0000 -15.5000 0.0000
v  -13.0000 -15.5000 8.0000
v  -6.2039 -15.5000 8.0000
v  -6.2039 -15.5000 0.0000
v  -2.9567 -10.8509 8.0000
v  -2.9567 -10.8509 0.0000
v  -2.9567 -6.2020 8.0000
v  -2.9567 -6.2020 0.0000
v  -4.7388 -7.2612 8.0000
v  -7.2612 -4.7388 8.0000
v  2.9567 -6.2020 0.0000
v  2.9567 -6.2020 8.0000
v  2.9567 -10.8509 8.0000
v  2.9567 -10.8509 0.0000
v  6.2039 -15.5000 8.0000
v  6.2039 -15.5000 0.0000
v  13.0000 -15.5000 8.0000
v  13.0000 -15.5000 0.0000
v  15.5000 -13.0000 0.0000
v  15.5000 -13.0000 8.0000
v  15.5000 -6.2587 8.0000
v  15.5000 -6.2587 0.0000
v  10.7961 -3.0115 8.0000
v  10.7961 -3.0115 0.0000
v  6.2039 -3.0115 8.0000
v  6.2039 -3.0115 0.0000
v  7.2683 -4.7317 8.0000
v  4.7317 -7.2683 8.0000
v  1.3681 3.7588 0.5000
v  1.3681 3.7588 0.0000
v  3.6252 1.6905 0.0000
v  3.6252 1.6905 0.5000
v  -1.6905 3.6252 0.5000
v  -1.6905 3.6252 0.0000
v  -3.7588 1.3681 0.5000
v  -3.7588 1.3681 0.0000
v  -3.6252 -1.6905 0.5000
v  -3.6252 -1.6905 0.0000
v  -1.3681 -3.7588 0.5000
v  -1.3681 -3.7588 0.0000
v  1.6905 -3.6252 0.5000
v  1.6905 -3.6252 0.0000
v  3.7588 -1.3681 0.5000
v  3.7588 -1.3681 0.0000
v  17.7142 -14.8858 8.0000
v  17.7142 -14.8858 0.0000
v  18.2319 -16.8176 0.0000
v  18.2319 -16.8176 8.0000
v  15.7824 -14.3681 8.0000
v  15.7824 -14.3681 0.0000
v  14.8858 -17.7142 8.0000
v  14.8858 -17.7142 0.0000
v  14.3681 -15.7824 0.0000
v  14.3681 -15.7824 8.0000
v  16.8176 -18.2319 8.0000
v  16.8176 -18.2319 0.0000
v  14.8858 17.7142 8.0000
v  14.8858 17.7142 0.0000
v  16.8176 18.2319 0.0000
v  16.8176 18.2319 8.0000
v  14.3681 15.7824 8.0000
v  14.3681 15.7824 0.0000
v  17.7142 14.8858 8.0000
v  17.7142 14.8858 0.0000
v  15.7824 14.3681 0.0000
v  15.7824 14.3681 8.0000
v  18.2319 16.8176 8.0000
v  18.2319 16.8176 0.0000
v  -17.7142 14.8858 8.0000
v  -17.7142 14.8858 0.0000
v  -18.2318 16.8176 0.0000
v  -18.2318 16.8176 8.0000
v  -15.7824 14.3681 8.0000
v  -15.7824 14.3681 0.0000
v  -14.8858 17.7142 8.0000
v  -14.8858 17.7142 0.0000
v  -14.3681 15.7824 0.0000
v  -14.3681 15.7824 8.0000
v  -16.8176 18.2319 8.0000
v  -16.8176 18.2319 0.0000
v  -14.8858 -17.7142 8.0000
v  -14.8858 -17.7142 0.0000
v  -16.8176 -18.2319 0.0000
v  -16.8176 -18.2319 8.0000
v  -14.3681 -15.7824 8.0000
v  -14.3681 -15.7824 0.0000
v  -17.7142 -14.8858 8.0000
v  -17.7142 -14.8858 0.0000
v  -15.7824 -14.3681 0.0000
v  -15.7824 -14.3681 8.0000
v  -18.2319 -16.8176 8.0000
v  -18.2319 -16.8176 0.0000
v  -19.5000 19.5000 0.0000
v  0.0000 19.5000 0.0000
v  19.5000 19.5000 0.0000
v  19.5000 0.0000 0.0000
v  19.5000 -19.5000 0.0000
v  0.0000 -19.5000 0.0000
v  -19.5000 -19.5000 0.0000
v  -19.5000 0.0000 0.0000
# 232 vertices

vn 0.0000 0.0000 1.0000
vn -0.3867 -0.9222 0.0000
vn 0.3014 -0.9535 0.0000
vn 0.8873 -0.4611 0.0000
vn 1.0000 0.0000 0.0000
vn -0.0010 1.0000 0.0000
vn 1.0000 -0.0010 0.0000
vn 0.0000 1.0000 0.0000
vn -0.4647 0.8855 0.0000
vn -0.9547 0.2975 0.0000
vn -0.9255 -0.3787 0.0000
vn -0.7086 0.7056 0.0000
vn 0.7056 -0.7086 0.0000
vn 0.9239 -0.3827 0.0000
vn 0.9547 0.2975 -0.0000
vn 0.9547 0.2975 0.0000
vn 0.4647 0.8855 -0.0001
vn 0.4647 0.8855 -0.0000
vn -0.0000 1.0000 -0.0001
vn -1.0000 -0.0003 0.0000
vn 0.0003 1.0000 0.0000
vn -1.0000 0.0000 0.0000
vn -0.8836 -0.4682 0.0000
vn -0.2937 -0.9559 0.0000
vn 0.3827 -0.9239 0.0000
vn -0.7067 -0.7075 0.0000
vn 0.7075 0.7067 0.0000
vn 0.3827 0.9239 0.0000
vn -0.3013 0.9535 0.0000
vn -0.8873 0.4612 0.0000
vn 0.0007 -1.0000 0.0000
vn -1.0000 0.0007 0.0000
vn 0.0000 -1.0000 -0.0000
vn 0.4622 -0.8868 -0.0000
vn 0.9539 -0.3001 -0.0000
vn 0.9539 -0.3001 0.0000
vn 0.9238 0.3828 0.0000
vn 0.7081 -0.7061 0.0000
vn -0.7061 0.7081 0.0000
vn -0.9223 0.3866 0.0000
vn -0.9539 -0.3001 0.0000
vn -0.4623 -0.8867 0.0000
vn 0.0000 -1.0000 0.0000
vn 1.0000 0.0011 0.0000
vn -0.0011 -1.0000 0.0000
vn 0.8855 0.4647 0.0000
vn 0.2976 0.9547 0.0000
vn -0.3788 0.9255 0.0000
vn 0.7055 0.7087 0.0000
vn -0.7087 -0.7055 0.0000
vn 0.3829 0.9238 -0.0000
vn 0.3829 0.9238 0.0000
vn -0.2975 0.9547 -0.0000
vn -0.8855 0.4646 -0.0000
vn -0.9948 0.1016 0.0000
vn 0.1016 -0.9948 0.0000
vn 0.4671 -0.8842 0.0000
vn 0.9555 -0.2949 0.0000
vn 0.9239 0.3827 0.0000
vn 0.0000 0.0000 -1.0000
vn 0.0000 -0.0000 -1.0000
vn -0.0000 0.0000 -1.0000
vn -0.9239 0.3827 0.0000
vn -0.9555 -0.2949 0.0000
vn -0.4671 -0.8842 0.0000
vn -0.4671 -0.8842 0.0001
vn -0.1015 -0.9948 0.0001
vn -0.1017 -0.9948 0.0000
vn 0.9948 0.1016 0.0000
vn 0.8855 0.4647 -0.0000
vn 0.2975 0.9547 -0.0000
vn 0.2975 0.9547 0.0000
vn -0.3827 0.9239 0.0000
vn -0.0000 -0.0000 -1.0000
vn -0.3827 -0.9239 0.0000
vn 0.8873 -0.4611 -0.0000
vn 0.9948 -0.1016 -0.0000
vn -0.1016 0.9948 0.0000
vn -0.4623 0.8867 0.0000
vn -0.9539 0.3001 0.0000
vn -0.9239 -0.3827 0.0000
vn 0.9222 -0.3867 0.0000
vn 0.9539 0.3001 0.0000
vn 0.4623 0.8867 0.0000
vn 0.1016 0.9948 0.0000
vn -0.9948 -0.1016 0.0000
vn -0.8855 -0.4647 0.0000
vn -0.2975 -0.9547 0.0000
vn 0.3786 -0.9256 0.0000
vn -0.3420 -0.9397 -0.0000
vn -0.3420 -0.9397 0.0000
vn -0.9063 -0.4226 -0.0000
vn 0.4226 -0.9063 0.0000
vn 0.9397 -0.3420 0.0000
vn 0.9063 0.4226 0.0000
vn 0.3420 0.9397 0.0000
vn -0.4226 0.9063 0.0000
vn -0.9397 0.3420 0.0000
vn -0.7071 -0.7071 0.0000
vn -0.9659 0.2588 0.0000
vn -0.7274 -0.6862 0.0000
vn 0.7071 0.7071 0.0000
vn 0.6862 0.7274 0.0000
vn -0.2588 0.9659 0.0000
vn 0.7071 -0.7071 0.0000
vn -0.2588 -0.9659 0.0000
vn 0.6862 -0.7274 0.0000
vn -0.7071 0.7071 0.0000
vn -0.7274 0.6862 0.0000
vn -0.9659 -0.2588 0.0000
vn 0.9659 -0.2588 0.0000
vn 0.7274 0.6862 0.0000
vn -0.6863 -0.7273 0.0000
vn -0.6862 -0.7275 0.0000
vn 0.2588 -0.9659 0.0000
vn 0.2588 0.9659 0.0000
vn -0.6862 0.7274 0.0000
vn 0.7274 -0.6862 0.0000
vn 0.7274 -0.6862 -0.0000
vn 0.9659 0.2588 0.0000
vn 0.0020 1.0000 -0.0010
vn 0.0016 1.0000 -0.0008
vn 0.0056 1.0000 -0.0027
# 123 vertex normals

vt 0.0000 0.0000 0.0000
vt 1.0000 1.0000 0.0000
vt 0.0000 0.5000 0.0000
vt 0.5000 0.5000 0.0000
vt 0.5000 1.0000 0.0000
vt 1.0000 0.5000 0.0000
vt 1.0000 0.0000 0.0000
vt 0.5000 0.0000 0.0000
vt 0.2500 1.0000 1.0000
vt 0.1250 1.0000 1.0000
vt 0.1250 0.0000 1.0000
vt 0.2500 0.0000 1.0000
vt 0.7500 0.0000 1.0000
vt 0.0000 1.0000 0.0000
vt 0.8750 0.0000 1.0000
vt 1.0000 0.0000 1.0000
vt 1.0000 1.0000 1.0000
vt 0.0000 0.0000 1.0000
vt 0.3750 0.0000 1.0000
vt 0.6250 1.0000 1.0000
vt 0.5000 1.0000 1.0000
vt 0.3750 1.0000 1.0000
vt 0.8750 1.0000 1.0000
vt 0.7500 1.0000 1.0000
vt 0.0000 1.0000 1.0000
vt 0.5000 0.0000 1.0000
vt 0.6250 0.0000 1.0000
vt -0.1250 0.0000 1.0000
vt -0.1250 1.0000 1.0000
vt 0.9167 1.0000 1.0000
vt 0.9167 0.0000 1.0000
vt 0.0833 1.0000 1.0000
vt 0.0833 0.0000 1.0000
vt -0.0833 0.0000 1.0000
vt -0.0833 1.0000 1.0000
vt 0.4167 1.0000 1.0000
vt 0.4167 0.0000 1.0000
vt 0.5833 1.0000 1.0000
vt 0.5833 0.0000 1.0000
vt 0.3333 1.0000 -0.0000
vt 0.0833 1.0000 -1.0000
vt 0.2500 1.0000 -1.0000
vt 0.6667 1.0000 0.0000
# 43 texture coords

g bb_picking
usemtl face_top
f 1/1/1 2/2/1 3/3/1 
f 3/3/1 4/4/1 1/1/1 
f 4/4/1 5/1/1 6/5/1 
f 6/5/1 7/6/1 4/4/1 
f 5/1/1 4/4/1 3/3/1 
f 3/3/1 8/6/1 5/1/1 
f 8/6/1 3/3/1 9/7/1 
f 9/7/1 10/8/1 8/6/1 
f 11/9/1 12/10/1 13/11/1 
f 13/11/1 14/12/1 11/9/1 
f 15/13/1 10/14/1 16/6/1 
f 16/6/1 17/15/1 15/13/1 
f 8/7/1 10/14/1 15/13/1 
f 15/13/1 18/9/1 8/7/1 
f 14/12/1 19/1/1 8/7/1 
f 8/7/1 18/9/1 14/12/1 
f 17/15/1 16/6/1 20/3/1 
f 20/3/1 21/16/1 17/15/1 
f 19/1/1 14/12/1 13/11/1 
f 13/11/1 22/5/1 19/1/1 
f 23/10/1 24/17/1 22/5/1 
f 22/5/1 13/11/1 23/10/1 
f 22/5/1 24/17/1 25/18/1 
f 25/18/1 26/15/1 22/5/1 
f 21/16/1 27/11/1 25/18/1 
f 25/18/1 24/17/1 21/16/1 
f 28/5/1 20/3/1 29/7/1 
f 29/7/1 30/2/1 28/5/1 
f 29/7/1 7/8/1 6/4/1 
f 6/4/1 30/2/1 29/7/1 
f 28/5/1 27/11/1 21/16/1 
f 21/16/1 20/3/1 28/5/1 
f 27/11/1 28/5/1 31/19/1 
f 31/19/1 32/10/1 27/11/1 
f 32/10/1 31/19/1 33/12/1 
f 33/12/1 34/11/1 32/10/1 
f 35/16/1 36/20/1 37/15/1 
f 37/15/1 38/18/1 35/16/1 
f 39/21/1 40/22/1 41/9/1 
f 41/9/1 42/13/1 39/21/1 
f 42/13/1 43/6/1 22/5/1 
f 22/5/1 26/15/1 42/13/1 
f 43/6/1 42/13/1 41/9/1 
f 41/9/1 44/8/1 43/6/1 
f 34/11/1 33/12/1 45/11/1 
f 45/11/1 46/12/1 34/11/1 
f 44/8/1 41/9/1 46/12/1 
f 46/12/1 45/11/1 44/8/1 
f 38/18/1 47/3/1 44/8/1 
f 44/8/1 45/11/1 38/18/1 
f 47/3/1 38/18/1 37/15/1 
f 37/15/1 6/4/1 47/3/1 
f 48/13/1 30/2/1 6/4/1 
f 6/4/1 37/15/1 48/13/1 
f 16/13/2 10/15/3 49/23/3 
f 49/23/3 50/24/2 16/13/2 
f 10/15/3 9/16/4 51/17/4 
f 51/17/4 49/23/3 10/15/3 
f 9/18/4 3/11/5 52/10/5 
f 52/10/5 51/25/4 9/18/4 
f 2/11/6 1/12/7 53/9/7 
f 53/9/7 54/10/6 2/11/6 
f 4/12/8 7/19/9 55/22/9 
f 55/22/9 56/9/8 4/12/8 
f 7/19/9 29/26/10 57/21/10 
f 57/21/10 55/22/9 7/19/9 
f 29/26/10 20/27/11 58/20/11 
f 58/20/11 57/21/10 29/26/10 
f 20/27/11 16/13/2 50/24/2 
f 50/24/2 58/20/11 20/27/11 
f 52/10/12 3/11/12 2/11/6 
f 2/11/6 54/10/6 52/10/12 
f 4/12/13 56/9/13 53/9/7 
f 53/9/7 1/12/7 4/12/13 
f 53/11/1 56/9/1 55/22/1 
f 55/22/1 57/21/1 53/11/1 
f 58/20/1 50/24/1 53/11/1 
f 53/11/1 57/21/1 58/20/1 
f 50/24/1 49/23/1 54/16/1 
f 54/16/1 53/11/1 50/24/1 
f 54/16/1 49/23/1 51/25/1 
f 51/25/1 52/10/1 54/16/1 
f 28/13/14 30/15/15 59/23/16 
f 59/23/16 60/24/14 28/13/14 
f 30/15/15 48/16/17 61/17/18 
f 61/17/18 59/23/16 30/15/15 
f 48/18/17 37/11/19 62/10/19 
f 62/10/19 61/25/18 48/18/17 
f 36/11/20 35/12/21 63/9/21 
f 63/9/21 64/10/20 36/11/20 
f 38/12/22 45/19/23 65/22/23 
f 65/22/23 66/9/22 38/12/22 
f 45/19/23 33/26/24 67/21/24 
f 67/21/24 65/22/23 45/19/23 
f 33/26/24 31/27/25 68/20/25 
f 68/20/25 67/21/24 33/26/24 
f 31/27/25 28/13/14 60/24/14 
f 60/24/14 68/20/25 31/27/25 
f 62/10/26 37/11/26 36/11/20 
f 36/11/20 64/10/20 62/10/26 
f 38/12/27 66/9/27 63/9/21 
f 63/9/21 35/12/21 38/12/27 
f 63/11/1 66/9/1 65/22/1 
f 65/22/1 67/21/1 63/11/1 
f 68/20/1 60/24/1 63/11/1 
f 63/11/1 67/21/1 68/20/1 
f 60/24/1 59/23/1 64/16/1 
f 64/16/1 63/11/1 60/24/1 
f 64/16/1 59/23/1 61/25/1 
f 61/25/1 62/10/1 64/16/1 
f 32/13/28 34/15/29 69/23/29 
f 69/23/29 70/24/28 32/13/28 
f 34/15/29 46/16/30 71/17/30 
f 71/17/30 69/23/29 34/15/29 
f 46/18/30 41/11/22 72/10/22 
f 72/10/22 71/25/30 46/18/30 
f 40/11/31 39/12/32 73/9/32 
f 73/9/32 74/10/31 40/11/31 
f 42/12/33 26/19/34 75/22/34 
f 75/22/34 76/9/33 42/12/33 
f 77/21/35 75/22/34 26/19/34 
f 26/19/34 25/26/36 77/21/35 
f 25/26/36 27/27/37 78/20/37 
f 78/20/37 77/21/35 25/26/36 
f 27/27/37 32/13/28 70/24/28 
f 70/24/28 78/20/37 27/27/37 
f 72/10/38 41/11/38 40/11/31 
f 40/11/31 74/10/31 72/10/38 
f 39/12/32 42/12/39 76/9/39 
f 76/9/39 73/9/32 39/12/32 
f 73/11/1 76/9/1 75/22/1 
f 75/22/1 77/21/1 73/11/1 
f 78/20/1 70/24/1 73/11/1 
f 73/11/1 77/21/1 78/20/1 
f 70/24/1 69/23/1 74/16/1 
f 74/16/1 73/11/1 70/24/1 
f 74/16/1 69/23/1 71/25/1 
f 71/25/1 72/10/1 74/16/1 
f 21/13/40 24/15/41 79/23/41 
f 79/23/41 80/24/40 21/13/40 
f 24/15/41 23/16/42 81/17/42 
f 81/17/42 79/23/41 24/15/41 
f 23/18/42 13/11/43 82/10/43 
f 82/10/43 81/25/42 23/18/42 
f 12/11/44 11/12/45 83/9/45 
f 83/9/45 84/10/44 12/11/44 
f 14/12/5 18/19/46 85/22/46 
f 85/22/46 86/9/5 14/12/5 
f 18/19/46 15/26/47 87/21/47 
f 87/21/47 85/22/46 18/19/46 
f 15/26/47 17/27/48 88/20/48 
f 88/20/48 87/21/47 15/26/47 
f 17/27/48 21/13/40 80/24/40 
f 80/24/40 88/20/48 17/27/48 
f 82/10/49 13/11/49 12/11/44 
f 12/11/44 84/10/44 82/10/49 
f 14/12/50 86/9/50 83/9/45 
f 83/9/45 11/12/45 14/12/50 
f 83/11/1 86/9/1 85/22/1 
f 85/22/1 87/21/1 83/11/1 
f 88/20/1 80/24/1 83/11/1 
f 83/11/1 87/21/1 88/20/1 
f 80/24/1 79/23/1 84/16/1 
f 84/16/1 83/11/1 80/24/1 
f 84/16/1 79/23/1 81/25/1 
f 81/25/1 82/10/1 84/16/1 
usemtl face_bottom
f 89/13/51 90/24/52 91/23/53 
f 91/23/53 92/15/53 89/13/51 
f 92/15/53 91/23/53 93/17/54 
f 93/17/54 94/16/54 92/15/53 
f 94/18/54 93/25/54 95/10/55 
f 95/10/55 96/11/55 94/18/54 
f 97/12/56 98/9/56 99/22/57 
f 99/22/57 100/19/57 97/12/56 
f 100/19/57 99/22/57 101/21/58 
f 101/21/58 102/26/58 100/19/57 
f 102/26/58 101/21/58 103/20/59 
f 103/20/59 104/27/59 102/26/58 
f 104/27/59 103/20/59 90/24/52 
f 90/24/52 89/13/51 104/27/59 
f 105/11/60 101/21/61 99/22/61 
f 99/22/61 98/9/60 105/11/60 
f 103/20/60 101/21/61 105/11/60 
f 105/11/60 90/24/60 103/20/60 
f 90/24/60 105/11/60 106/16/60 
f 106/16/60 91/23/62 90/24/60 
f 106/16/60 95/10/60 93/25/62 
f 93/25/62 91/23/62 106/16/60 
f 107/13/63 108/24/63 109/23/64 
f 109/23/64 110/15/64 107/13/63 
f 110/15/64 109/23/64 111/17/65 
f 111/17/65 112/16/66 110/15/64 
f 112/18/66 111/25/65 113/10/67 
f 113/10/67 114/11/68 112/18/66 
f 115/12/69 116/9/69 117/22/70 
f 117/22/70 118/19/70 115/12/69 
f 118/19/70 117/22/70 119/21/71 
f 119/21/71 120/26/72 118/19/70 
f 120/26/72 119/21/71 121/20/73 
f 121/20/73 122/27/73 120/26/72 
f 122/27/73 121/20/73 108/24/63 
f 108/24/63 107/13/63 122/27/73 
f 123/11/62 119/21/60 117/22/60 
f 117/22/60 116/9/62 123/11/62 
f 121/20/62 119/21/60 123/11/62 
f 123/11/62 108/24/62 121/20/62 
f 108/24/62 123/11/62 124/16/62 
f 124/16/62 109/23/74 108/24/62 
f 124/16/62 113/10/62 111/25/74 
f 111/25/74 109/23/74 124/16/62 
f 125/13/75 126/24/75 127/23/3 
f 127/23/3 128/15/3 125/13/75 
f 128/15/3 127/23/3 129/17/4 
f 129/17/4 130/16/76 128/15/3 
f 130/18/76 129/25/4 131/10/77 
f 131/10/77 132/11/77 130/18/76 
f 133/12/78 134/9/78 135/22/79 
f 135/22/79 136/19/79 133/12/78 
f 136/19/79 135/22/79 137/21/80 
f 137/21/80 138/26/80 136/19/79 
f 138/26/80 137/21/80 139/20/81 
f 139/20/81 140/27/81 138/26/80 
f 140/27/81 139/20/81 126/24/75 
f 126/24/75 125/13/75 140/27/81 
f 141/11/62 137/21/62 135/22/62 
f 135/22/62 134/9/74 141/11/62 
f 139/20/61 137/21/62 141/11/62 
f 141/11/62 126/24/74 139/20/61 
f 126/24/74 141/11/62 142/16/74 
f 142/16/74 127/23/61 126/24/74 
f 142/16/74 131/10/74 129/25/62 
f 129/25/62 127/23/61 142/16/74 
f 143/13/82 144/24/82 145/23/83 
f 145/23/83 146/15/83 143/13/82 
f 146/15/83 145/23/83 147/17/84 
f 147/17/84 148/16/84 146/15/83 
f 148/18/84 147/25/84 149/10/85 
f 149/10/85 150/11/85 148/18/84 
f 151/12/86 152/9/86 153/22/87 
f 153/22/87 154/19/87 151/12/86 
f 154/19/87 153/22/87 155/21/88 
f 155/21/88 156/26/88 154/19/87 
f 156/26/88 155/21/88 157/20/89 
f 157/20/89 158/27/89 156/26/88 
f 158/27/89 157/20/89 144/24/82 
f 144/24/82 143/13/82 158/27/89 
f 153/22/60 152/9/61 159/11/61 
f 159/11/61 155/21/74 153/22/60 
f 157/20/61 155/21/74 159/11/61 
f 159/11/61 144/24/60 157/20/61 
f 144/24/60 159/11/61 160/16/60 
f 160/16/60 145/23/60 144/24/60 
f 160/16/60 149/10/61 147/25/60 
f 147/25/60 145/23/60 160/16/60 
f 141/11/62 134/12/74 131/11/74 
f 131/11/74 142/16/74 141/11/62 
f 159/16/61 152/11/61 149/27/61 
f 149/27/61 160/18/60 159/16/61 
f 161/23/90 162/15/91 163/13/92 
f 163/13/92 164/24/92 161/23/90 
f 165/25/93 166/18/93 162/28/91 
f 162/28/91 161/29/90 165/25/93 
f 167/10/94 168/11/94 166/18/93 
f 166/18/93 165/25/93 167/10/94 
f 169/9/95 170/12/95 168/11/94 
f 168/11/94 167/10/94 169/9/95 
f 171/22/96 172/19/96 170/12/95 
f 170/12/95 169/9/95 171/22/96 
f 173/21/97 174/26/97 172/19/96 
f 172/19/96 171/22/96 173/21/97 
f 175/20/98 176/27/98 174/26/97 
f 174/26/97 173/21/97 175/20/98 
f 164/24/92 163/13/92 176/27/98 
f 176/27/98 175/20/98 164/24/92 
f 130/24/74 118/19/60 120/26/60 
f 120/26/60 128/12/60 130/24/74 
f 128/12/60 120/26/60 122/27/62 
f 122/27/62 125/11/60 128/12/60 
f 125/11/60 122/27/62 168/16/60 
f 168/16/60 170/11/60 125/11/60 
f 170/11/60 172/12/60 140/17/60 
f 140/17/60 125/11/60 170/11/60 
f 166/18/62 168/16/60 122/27/62 
f 122/27/62 107/15/62 166/18/62 
f 112/16/61 100/11/61 102/12/61 
f 102/12/61 110/18/61 112/16/61 
f 110/18/61 102/12/61 104/13/60 
f 104/13/60 107/15/62 110/18/61 
f 162/11/60 166/18/62 107/15/62 
f 107/15/62 104/13/60 162/11/60 
f 163/27/60 162/11/60 104/13/60 
f 104/13/60 89/11/62 163/27/60 
f 158/11/61 89/11/62 92/12/61 
f 92/12/61 156/16/61 158/11/61 
f 146/13/61 138/20/61 140/16/60 
f 140/16/60 143/9/60 146/13/61 
f 174/24/60 176/23/60 158/11/61 
f 158/11/61 143/9/60 174/24/60 
f 89/11/62 158/11/61 176/23/60 
f 176/23/60 163/27/60 89/11/62 
f 143/9/60 140/16/60 172/12/60 
f 172/12/60 174/24/60 143/9/60 
f 156/16/61 92/12/61 94/19/74 
f 94/19/74 154/12/74 156/16/61 
f 148/11/60 136/10/60 138/20/61 
f 138/20/61 146/13/61 148/11/60 
f 177/30/99 178/31/99 179/13/100 
f 179/13/100 180/24/100 177/30/99 
f 181/32/101 182/33/101 178/34/99 
f 178/34/99 177/35/99 181/32/101 
f 183/36/102 184/37/102 185/12/103 
f 185/12/103 186/9/103 183/36/102 
f 187/38/104 188/39/104 184/37/102 
f 184/37/102 183/36/102 187/38/104 
f 180/24/100 179/13/100 188/39/104 
f 188/39/104 187/38/104 180/24/100 
f 187/40/60 183/41/60 186/42/61 
f 186/42/61 181/43/61 177/30/60 
f 187/40/60 186/42/61 177/30/60 
f 180/24/60 187/40/60 177/30/60 
f 186/11/103 185/9/103 150/12/85 
f 150/12/85 149/27/85 186/11/103 
f 181/17/101 152/11/86 151/11/86 
f 151/11/86 182/10/101 181/17/101 
f 186/16/61 149/27/61 152/11/61 
f 152/11/61 181/20/61 186/16/61 
f 189/30/105 190/31/105 191/13/106 
f 191/13/106 192/24/106 189/30/105 
f 193/32/107 194/33/107 190/34/105 
f 190/34/105 189/35/105 193/32/107 
f 195/36/108 196/37/108 197/12/109 
f 197/12/109 198/9/109 195/36/108 
f 199/38/110 200/39/110 196/37/108 
f 196/37/108 195/36/108 199/38/110 
f 192/24/106 191/13/106 200/39/110 
f 200/39/110 199/38/110 192/24/106 
f 199/40/60 195/41/60 198/42/60 
f 198/42/60 193/43/60 189/30/60 
f 199/40/60 198/42/60 189/30/60 
f 192/24/60 199/40/60 189/30/60 
f 193/16/60 198/17/60 95/25/60 
f 95/25/60 98/10/60 193/16/60 
f 198/17/109 197/10/109 96/26/55 
f 96/26/55 95/25/55 198/17/109 
f 193/16/107 98/10/56 97/27/56 
f 97/27/56 194/25/107 193/16/107 
f 201/30/102 202/31/102 203/13/111 
f 203/13/111 204/24/111 201/30/102 
f 205/32/112 206/33/112 202/34/102 
f 202/34/102 201/35/102 205/32/112 
f 207/36/99 208/37/99 209/12/113 
f 209/12/113 210/9/114 207/36/99 
f 211/38/115 212/39/115 208/37/99 
f 208/37/99 207/36/99 211/38/115 
f 204/24/111 203/13/111 212/39/115 
f 212/39/115 211/38/115 204/24/111 
f 211/40/60 207/41/60 210/42/62 
f 210/42/62 205/43/62 201/30/60 
f 211/40/60 210/42/62 201/30/60 
f 204/24/60 211/40/60 201/30/60 
f 213/30/108 214/31/108 215/13/116 
f 215/13/116 216/24/116 213/30/108 
f 217/32/117 218/33/117 214/34/108 
f 214/34/108 213/35/108 217/32/117 
f 219/36/105 220/37/105 221/12/118 
f 221/12/118 222/9/119 219/36/105 
f 223/38/120 224/39/120 220/37/105 
f 220/37/105 219/36/105 223/38/120 
f 216/24/116 215/13/116 224/39/120 
f 224/39/120 223/38/120 216/24/116 
f 223/40/60 219/41/60 222/42/74 
f 222/42/74 217/43/74 213/30/60 
f 223/40/60 222/42/74 213/30/60 
f 216/24/60 223/40/60 213/30/60 
f 210/11/114 209/9/113 114/11/68 
f 114/11/68 113/9/67 210/11/114 
f 210/11/62 113/9/62 116/13/62 
f 116/13/62 205/17/62 210/11/62 
f 205/17/112 116/13/69 115/12/69 
f 115/12/69 206/10/112 205/17/112 
f 222/18/74 131/11/74 134/12/74 
f 134/12/74 217/15/74 222/18/74 
f 222/18/119 221/12/118 132/17/77 
f 132/17/77 131/11/77 222/18/119 
f 217/15/117 134/12/78 133/25/78 
f 133/25/78 218/11/117 217/15/117 
f 208/22/60 212/21/60 225/3/60 
f 225/3/60 226/4/60 208/22/60 
f 208/22/60 226/4/60 114/11/60 
f 114/11/60 209/9/60 208/22/60 
f 226/4/60 227/6/60 190/23/60 
f 190/23/60 194/25/60 226/4/60 
f 226/4/60 194/25/60 97/27/60 
f 97/27/60 114/11/60 226/4/60 
f 191/24/60 190/23/60 227/6/60 
f 227/6/60 200/22/60 191/24/60 
f 196/9/60 200/22/60 227/6/60 
f 227/6/60 228/7/60 196/9/60 
f 196/9/60 228/7/60 96/26/60 
f 96/26/60 197/10/60 196/9/60 
f 94/19/74 96/26/60 228/7/60 
f 228/7/60 154/12/74 94/19/74 
f 228/7/60 229/1/60 178/24/60 
f 178/24/60 182/23/60 228/7/60 
f 182/23/60 151/11/60 154/12/74 
f 154/12/74 228/7/60 182/23/60 
f 179/11/60 178/24/60 229/1/60 
f 229/1/60 188/9/60 179/11/60 
f 184/10/62 188/9/60 229/1/60 
f 229/1/60 230/5/60 184/10/62 
f 184/10/62 230/5/60 150/12/62 
f 150/12/62 185/25/74 184/10/62 
f 148/11/60 150/12/62 230/5/60 
f 230/5/60 136/10/60 148/11/60 
f 230/5/60 231/6/60 214/16/60 
f 214/16/60 218/11/60 230/5/60 
f 218/11/60 133/25/60 136/10/60 
f 136/10/60 230/5/60 218/11/60 
f 215/18/60 214/16/60 231/6/60 
f 231/6/60 224/26/60 215/18/60 
f 220/19/60 224/26/60 231/6/60 
f 231/6/60 232/8/61 220/19/60 
f 220/19/60 232/8/61 132/17/60 
f 132/17/60 221/12/62 220/19/60 
f 130/24/74 132/17/60 232/8/61 
f 232/8/61 118/19/60 130/24/74 
f 232/8/61 225/3/60 202/25/60 
f 202/25/60 206/10/60 232/8/61 
f 206/10/60 115/12/60 118/19/60 
f 118/19/60 232/8/61 206/10/60 
f 203/23/60 202/25/60 225/3/60 
f 225/3/60 212/21/60 203/23/60 
usemtl face_front
f 43/8/43 231/6/43 230/5/43 
f 230/5/43 22/7/43 43/8/43 
f 22/7/43 230/5/43 229/1/43 
f 229/1/43 19/3/43 22/7/43 
usemtl face_right
f 19/3/5 229/1/5 228/7/5 
f 228/7/5 8/6/5 19/3/5 
f 8/6/5 228/7/5 227/6/5 
f 227/6/5 5/7/5 8/6/5 
usemtl face_back
f 5/7/8 227/6/8 226/4/8 
f 226/4/8 6/8/121 5/7/8 
f 6/8/121 226/4/8 225/3/122 
f 225/3/122 47/14/123 6/8/121 
usemtl face_left
f 47/14/22 225/3/22 232/8/22 
f 232/8/22 44/4/22 47/14/22 
f 44/4/22 232/8/22 231/6/22 
f 231/6/22 43/8/22 44/4/22 
usemtl face_bottom
f 175/20/60 173/21/60 171/22/60 
f 171/22/60 164/24/60 175/20/60 
f 167/10/60 165/25/60 161/23/60 
f 161/23/60 169/9/60 167/10/60 
f 161/23/60 164/24/60 171/22/60 
f 171/22/60 169/9/60 161/23/60 
f 98/9/62 95/11/62 106/16/62 
f 106/16/62 105/11/60 98/9/62 
f 116/11/60 113/27/60 124/18/61 
f 124/18/61 123/16/61 116/11/60 
# 458 faces

