# 3ds Max Wavefront OBJ Exporter v0.97b - (c)2007 guruware
# File Created: 15.01.2014 07:30:26

mtllib robotBlock.mtl

#
# object robotBlock
#

v  -4.9000 -4.5000 -4.9000
v  -4.5000 -4.5000 -5.0000
v  -4.5000 -4.9000 -4.9000
v  -4.8000 -4.8000 -4.8000
v  -3.0000 -4.5000 -5.0000
v  3.0000 -4.5000 -5.0000
v  3.0000 -4.9000 -4.9000
v  -3.0000 -4.9000 -4.9000
v  4.5000 -4.5000 -5.0000
v  4.5000 -4.9000 -4.9000
v  -4.9000 3.0000 -4.9000
v  -4.5000 3.0000 -5.0000
v  -4.5000 -3.0000 -5.0000
v  -4.9000 -3.0000 -4.9000
v  -3.0000 -3.0000 -5.0000
v  -3.0000 3.0000 -5.0000
v  3.0000 3.0000 -5.0000
v  3.0000 -3.0000 -5.0000
v  4.5000 3.0000 -5.0000
v  4.5000 -3.0000 -5.0000
v  -4.9000 4.5000 -4.9000
v  -4.5000 4.5000 -5.0000
v  -3.0000 4.5000 -5.0000
v  3.0000 4.5000 -5.0000
v  4.5000 4.5000 -5.0000
v  -4.5000 -4.9000 4.9000
v  -4.5000 -4.5000 5.0000
v  -4.9000 -4.5000 4.9000
v  -4.8000 -4.8000 4.8000
v  3.0000 -4.9000 4.9000
v  3.0000 -4.5000 5.0000
v  -3.0000 -4.5000 5.0000
v  -3.0000 -4.9000 4.9000
v  4.5000 -4.9000 4.9000
v  4.5000 -4.5000 5.0000
v  -4.5000 -3.0000 5.0000
v  -4.5000 3.0000 5.0000
v  -4.9000 3.0000 4.9000
v  -4.9000 -3.0000 4.9000
v  -3.0000 -3.0000 5.0000
v  3.0000 -3.0000 5.0000
v  3.0000 3.0000 5.0000
v  -3.0000 3.0000 5.0000
v  4.5000 -3.0000 5.0000
v  4.5000 3.0000 5.0000
v  -4.5000 4.5000 5.0000
v  -4.9000 4.5000 4.9000
v  3.0000 4.5000 5.0000
v  -3.0000 4.5000 5.0000
v  4.5000 4.5000 5.0000
v  -4.5000 -5.0000 -4.5000
v  -4.9000 -4.9000 -4.5000
v  3.0000 -5.0000 -4.5000
v  -3.0000 -5.0000 -4.5000
v  4.5000 -5.0000 -4.5000
v  -4.5000 -5.0000 -3.0000
v  -4.5000 -5.0000 3.0000
v  -4.9000 -4.9000 3.0000
v  -4.9000 -4.9000 -3.0000
v  -3.0000 -5.0000 -3.0000
v  3.0000 -5.0000 -3.0000
v  3.0000 -5.0000 3.0000
v  -3.0000 -5.0000 3.0000
v  4.5000 -5.0000 -3.0000
v  4.5000 -5.0000 3.0000
v  -4.5000 -5.0000 4.5000
v  -4.9000 -4.9000 4.5000
v  3.0000 -5.0000 4.5000
v  -3.0000 -5.0000 4.5000
v  4.5000 -5.0000 4.5000
v  4.9000 -4.5000 -4.9000
v  5.0000 -4.5000 -4.5000
v  4.9000 -4.9000 -4.5000
v  4.8000 -4.8000 -4.8000
v  4.9000 3.0000 -4.9000
v  5.0000 3.0000 -4.5000
v  5.0000 -3.0000 -4.5000
v  4.9000 -3.0000 -4.9000
v  4.9000 4.5000 -4.9000
v  5.0000 4.5000 -4.5000
v  5.0000 -4.5000 -3.0000
v  5.0000 -4.5000 3.0000
v  4.9000 -4.9000 3.0000
v  4.9000 -4.9000 -3.0000
v  5.0000 -3.0000 -3.0000
v  5.0000 3.0000 -3.0000
v  5.0000 3.0000 3.0000
v  5.0000 -3.0000 3.0000
v  5.0000 4.5000 -3.0000
v  5.0000 4.5000 3.0000
v  5.0000 -4.5000 4.5000
v  4.9000 -4.9000 4.5000
v  5.0000 3.0000 4.5000
v  5.0000 -3.0000 4.5000
v  5.0000 4.5000 4.5000
v  4.5000 4.9000 -4.9000
v  4.5000 5.0000 -4.5000
v  4.9000 4.9000 -4.5000
v  4.8000 4.8000 -4.8000
v  -3.0000 4.9000 -4.9000
v  -3.0000 5.0000 -4.5000
v  3.0000 5.0000 -4.5000
v  3.0000 4.9000 -4.9000
v  -4.5000 4.9000 -4.9000
v  -4.5000 5.0000 -4.5000
v  4.5000 5.0000 -3.0000
v  4.5000 5.0000 3.0000
v  4.9000 4.9000 3.0000
v  4.9000 4.9000 -3.0000
v  3.0000 5.0000 -3.0000
v  -3.0000 5.0000 -3.0000
v  -3.0000 5.0000 3.0000
v  3.0000 5.0000 3.0000
v  -4.5000 5.0000 -3.0000
v  -4.5000 5.0000 3.0000
v  4.5000 5.0000 4.5000
v  4.9000 4.9000 4.5000
v  -3.0000 5.0000 4.5000
v  3.0000 5.0000 4.5000
v  -4.5000 5.0000 4.5000
v  -5.0000 4.5000 -4.5000
v  -4.9000 4.9000 -4.5000
v  -4.8000 4.8000 -4.8000
v  -5.0000 -3.0000 -4.5000
v  -5.0000 3.0000 -4.5000
v  -5.0000 -4.5000 -4.5000
v  -5.0000 4.5000 -3.0000
v  -5.0000 4.5000 3.0000
v  -4.9000 4.9000 3.0000
v  -4.9000 4.9000 -3.0000
v  -5.0000 3.0000 -3.0000
v  -5.0000 -3.0000 -3.0000
v  -5.0000 -3.0000 3.0000
v  -5.0000 3.0000 3.0000
v  -5.0000 -4.5000 -3.0000
v  -5.0000 -4.5000 3.0000
v  -5.0000 4.5000 4.5000
v  -4.9000 4.9000 4.5000
v  -5.0000 -3.0000 4.5000
v  -5.0000 3.0000 4.5000
v  -5.0000 -4.5000 4.5000
v  4.8000 -4.8000 4.8000
v  4.9000 -3.0000 4.9000
v  4.9000 -4.5000 4.9000
v  4.9000 3.0000 4.9000
v  4.8000 4.8000 4.8000
v  4.9000 4.5000 4.9000
v  3.0000 4.9000 4.9000
v  4.5000 4.9000 4.9000
v  -3.0000 4.9000 4.9000
v  -4.8000 4.8000 4.8000
v  -4.5000 4.9000 4.9000
# 152 vertices

vn -0.2764 -0.1443 -0.9501
vn -0.1202 -0.1202 -0.9854
vn -0.1443 -0.2764 -0.9501
vn -0.4082 -0.4082 -0.8165
vn -0.0000 -0.1222 -0.9925
vn 0.0000 -0.1222 -0.9925
vn 0.0000 -0.2425 -0.9701
vn -0.0000 -0.2425 -0.9701
vn 0.1372 -0.1372 -0.9810
vn 0.1764 -0.2387 -0.9549
vn -0.2425 0.0000 -0.9701
vn -0.1222 0.0000 -0.9925
vn 0.0000 0.0000 -1.0000
vn 0.1222 0.0000 -0.9925
vn -0.2387 0.1764 -0.9549
vn -0.1372 0.1372 -0.9810
vn 0.0000 0.1222 -0.9925
vn -0.0000 0.1222 -0.9925
vn 0.1372 0.1372 -0.9810
vn -0.1443 -0.2764 0.9501
vn -0.1202 -0.1202 0.9854
vn -0.2764 -0.1443 0.9501
vn -0.4082 -0.4082 0.8165
vn -0.0000 -0.2425 0.9701
vn -0.0000 -0.1222 0.9925
vn 0.0000 -0.1222 0.9925
vn 0.0000 -0.2425 0.9701
vn 0.1764 -0.2387 0.9549
vn 0.1372 -0.1372 0.9810
vn -0.1222 0.0000 0.9925
vn -0.2425 0.0000 0.9701
vn 0.0000 0.0000 1.0000
vn 0.1222 0.0000 0.9925
vn -0.1202 0.1202 0.9854
vn -0.2764 0.1443 0.9501
vn 0.0000 0.1222 0.9925
vn -0.0000 0.1222 0.9925
vn 0.1372 0.1372 0.9810
vn -0.1443 -0.9501 -0.2764
vn -0.1202 -0.9854 -0.1202
vn -0.2764 -0.9501 -0.1443
vn -0.4082 -0.8165 -0.4082
vn 0.0000 -0.9701 -0.2425
vn 0.0000 -0.9925 -0.1222
vn -0.0000 -0.9925 -0.1222
vn -0.0000 -0.9701 -0.2425
vn 0.1764 -0.9549 -0.2387
vn 0.1372 -0.9810 -0.1372
vn -0.1222 -0.9925 -0.0000
vn -0.1222 -0.9925 0.0000
vn -0.2425 -0.9701 -0.0000
vn -0.0000 -1.0000 -0.0000
vn 0.0000 -1.0000 -0.0000
vn -0.0000 -1.0000 0.0000
vn 0.0000 -1.0000 0.0000
vn 0.1222 -0.9925 -0.0000
vn 0.1222 -0.9925 0.0000
vn -0.1372 -0.9810 0.1372
vn -0.2387 -0.9549 0.1764
vn -0.0000 -0.9925 0.1222
vn 0.0000 -0.9925 0.1222
vn 0.1372 -0.9810 0.1372
vn 0.9501 -0.1443 -0.2764
vn 0.9854 -0.1202 -0.1202
vn 0.9501 -0.2764 -0.1443
vn 0.8165 -0.4082 -0.4082
vn 0.9701 0.0000 -0.2425
vn 0.9925 -0.0000 -0.1222
vn 0.9925 0.0000 -0.1222
vn 0.9549 0.1764 -0.2387
vn 0.9810 0.1372 -0.1372
vn 0.9925 -0.1222 -0.0000
vn 0.9701 -0.2425 -0.0000
vn 1.0000 0.0000 0.0000
vn 0.9925 0.1222 0.0000
vn 0.9925 0.1222 -0.0000
vn 0.9810 -0.1372 0.1372
vn 0.9549 -0.2387 0.1764
vn 0.9925 0.0000 0.1222
vn 0.9810 0.1372 0.1372
vn 0.1443 0.9501 -0.2764
vn 0.1202 0.9854 -0.1202
vn 0.2764 0.9501 -0.1443
vn 0.4082 0.8165 -0.4082
vn 0.0000 0.9701 -0.2425
vn 0.0000 0.9925 -0.1222
vn -0.0000 0.9925 -0.1222
vn -0.0000 0.9701 -0.2425
vn -0.1764 0.9549 -0.2387
vn -0.1372 0.9810 -0.1372
vn 0.1222 0.9925 0.0000
vn 0.1222 0.9925 -0.0000
vn 0.2425 0.9701 0.0000
vn -0.0000 1.0000 0.0000
vn 0.0000 1.0000 0.0000
vn -0.0000 1.0000 -0.0000
vn 0.0000 1.0000 -0.0000
vn -0.1222 0.9925 0.0000
vn -0.1222 0.9925 -0.0000
vn 0.1372 0.9810 0.1372
vn 0.2387 0.9549 0.1764
vn -0.0000 0.9925 0.1222
vn 0.0000 0.9925 0.1222
vn -0.1372 0.9810 0.1372
vn -0.9501 0.1443 -0.2764
vn -0.9854 0.1202 -0.1202
vn -0.9501 0.2764 -0.1443
vn -0.8165 0.4082 -0.4082
vn -0.9701 0.0000 -0.2425
vn -0.9925 0.0000 -0.1222
vn -0.9925 -0.0000 -0.1222
vn -0.9701 -0.0000 -0.2425
vn -0.9549 -0.1764 -0.2387
vn -0.9810 -0.1372 -0.1372
vn -0.9925 0.1222 0.0000
vn -0.9701 0.2425 0.0000
vn -1.0000 0.0000 0.0000
vn -0.9925 -0.1222 -0.0000
vn -0.9925 -0.1222 0.0000
vn -0.9810 0.1372 0.1372
vn -0.9549 0.2387 0.1764
vn -0.9925 0.0000 0.1222
vn -0.9810 -0.1372 0.1372
vn 0.2425 -0.9701 -0.0000
vn 0.2387 -0.9549 -0.1764
vn 0.0000 -0.9701 0.2425
vn -0.1764 -0.9549 0.2387
vn -0.0000 -0.9701 0.2425
vn 0.3015 -0.9045 0.3015
vn 0.1764 -0.9549 0.2387
vn 0.2387 -0.9549 0.1764
vn 0.9701 0.2425 0.0000
vn 0.9549 0.2387 -0.1764
vn 0.9701 0.0000 0.2425
vn 0.9549 -0.1764 0.2387
vn 0.9045 0.3015 0.3015
vn 0.9549 0.1764 0.2387
vn 0.9549 0.2387 0.1764
vn -0.2425 0.9701 0.0000
vn -0.2387 0.9549 -0.1764
vn 0.0000 0.9701 0.2425
vn 0.1764 0.9549 0.2387
vn -0.0000 0.9701 0.2425
vn -0.3015 0.9045 0.3015
vn -0.1764 0.9549 0.2387
vn -0.2387 0.9549 0.1764
vn -0.9701 -0.2425 -0.0000
vn -0.9549 -0.2387 -0.1764
vn -0.9701 0.0000 0.2425
vn -0.9549 0.1764 0.2387
vn -0.9045 -0.3015 0.3015
vn -0.9549 -0.1764 0.2387
vn -0.9549 -0.2387 0.1764
vn 0.2425 0.0000 -0.9701
vn 0.2387 -0.1764 -0.9549
vn 0.0000 0.2425 -0.9701
vn -0.1764 0.2387 -0.9549
vn 0.3015 0.3015 -0.9045
vn 0.2387 0.1764 -0.9549
vn 0.1764 0.2387 -0.9549
vn 0.3015 -0.3015 0.9045
vn 0.2387 -0.1764 0.9549
vn 0.2425 0.0000 0.9701
vn 0.2387 0.1764 0.9549
vn 0.3015 -0.9045 -0.3015
vn -0.3015 0.9045 -0.3015
vn -0.3015 -0.9045 0.3015
vn 0.3015 0.9045 0.3015
vn -0.3015 0.3015 -0.9045
vn -0.0000 0.2425 -0.9701
vn -0.1443 0.2764 0.9501
vn -0.4082 0.4082 0.8165
vn 0.0000 0.2425 0.9701
vn -0.0000 0.2425 0.9701
vn 0.1764 0.2387 0.9549
vn 0.9045 0.3015 -0.3015
vn 0.9701 0.2425 -0.0000
vn -0.9045 -0.3015 -0.3015
vn -0.9701 -0.2425 0.0000
vn 0.9045 -0.3015 0.3015
vn -0.9045 0.3015 0.3015
vn 0.3015 -0.3015 -0.9045
vn 0.3015 0.3015 0.9045
# 183 vertex normals

vt 1.0026 0.0385 -0.0026
vt 0.9615 0.0385 -0.0128
vt 0.9615 -0.0026 -0.0026
vt 0.9923 0.0077 0.0077
vt 0.8077 0.0385 -0.0128
vt 0.1923 0.0385 -0.0128
vt 0.1923 -0.0026 -0.0026
vt 0.8077 -0.0026 -0.0026
vt 0.0385 0.0385 -0.0128
vt 0.0385 -0.0026 -0.0026
vt 1.0026 0.8077 -0.0026
vt 0.9615 0.8077 -0.0128
vt 0.9615 0.1923 -0.0128
vt 1.0026 0.1923 -0.0026
vt 0.8077 0.1923 -0.0128
vt 0.8077 0.8077 -0.0128
vt 0.1923 0.8077 -0.0128
vt 0.1923 0.1923 -0.0128
vt 0.0385 0.8077 -0.0128
vt 0.0385 0.1923 -0.0128
vt 1.0026 0.9615 -0.0026
vt 0.9615 0.9615 -0.0128
vt 0.8077 0.9615 -0.0128
vt 0.1923 0.9615 -0.0128
vt 0.0385 0.9615 -0.0128
vt 0.0385 -0.0026 1.0026
vt 0.0385 0.0385 1.0128
vt -0.0026 0.0385 1.0026
vt 0.0077 0.0077 0.9923
vt 0.8077 -0.0026 1.0026
vt 0.8077 0.0385 1.0128
vt 0.1923 0.0385 1.0128
vt 0.1923 -0.0026 1.0026
vt 0.9615 -0.0026 1.0026
vt 0.9615 0.0385 1.0128
vt 0.0385 0.1923 1.0128
vt 0.0385 0.8077 1.0128
vt -0.0026 0.8077 1.0026
vt -0.0026 0.1923 1.0026
vt 0.1923 0.1923 1.0128
vt 0.8077 0.1923 1.0128
vt 0.8077 0.8077 1.0128
vt 0.1923 0.8077 1.0128
vt 0.9615 0.1923 1.0128
vt 0.9615 0.8077 1.0128
vt 0.0385 0.9615 1.0128
vt -0.0026 0.9615 1.0026
vt 0.8077 0.9615 1.0128
vt 0.1923 0.9615 1.0128
vt 0.9615 0.9615 1.0128
vt -0.0026 0.0385 -0.0026
vt 0.0077 0.0077 0.0077
vt -0.0026 0.8077 -0.0026
vt -0.0026 0.1923 -0.0026
vt -0.0026 0.9615 -0.0026
vt 0.1923 1.0026 -0.0026
vt 0.0385 1.0026 -0.0026
vt 0.8077 1.0026 -0.0026
vt 0.9923 0.9923 0.0077
vt 0.9615 1.0026 -0.0026
vt 1.0026 0.1923 1.0026
vt 1.0026 0.0385 1.0026
vt 0.1923 1.0026 1.0026
vt 0.0385 1.0026 1.0026
vt 0.8077 1.0026 1.0026
vt 0.9923 0.9923 0.9923
vt 0.9615 1.0026 1.0026
vt 1.0026 0.9615 1.0026
vt 0.0077 0.9923 0.0077
vt 0.9923 0.0077 0.9923
vt 1.0026 0.8077 1.0026
vt 0.0077 0.9923 0.9923
# 72 texture coords

g robotBlock
usemtl lighted
f 1/1/1 2/2/2 3/3/3 
f 3/3/3 4/4/4 1/1/1 
f 5/5/5 6/6/6 7/7/7 
f 7/7/7 8/8/8 5/5/5 
f 6/6/6 9/9/9 10/10/10 
f 10/10/10 7/7/7 6/6/6 
f 11/11/11 12/12/12 13/13/12 
f 13/13/12 14/14/11 11/11/11 
f 15/15/13 16/16/13 17/17/13 
f 17/17/13 18/18/13 15/15/13 
usemtl plastic
f 17/17/13 19/19/14 20/20/14 
f 20/20/14 18/18/13 17/17/13 
usemtl lighted
f 21/21/15 22/22/16 12/12/12 
f 12/12/12 11/11/11 21/21/15 
usemtl plastic
f 23/23/17 24/24/18 17/17/13 
f 17/17/13 16/16/13 23/23/17 
f 24/24/18 25/25/19 19/19/14 
f 19/19/14 17/17/13 24/24/18 
usemtl lighted
f 26/26/20 27/27/21 28/28/22 
f 28/28/22 29/29/23 26/26/20 
f 30/30/24 31/31/25 32/32/26 
f 32/32/26 33/33/27 30/30/24 
f 34/34/28 35/35/29 31/31/25 
f 31/31/25 30/30/24 34/34/28 
f 36/36/30 37/37/30 38/38/31 
f 38/38/31 39/39/31 36/36/30 
f 40/40/32 41/41/32 42/42/32 
f 42/42/32 43/43/32 40/40/32 
usemtl plastic
f 44/44/33 45/45/33 42/42/32 
f 42/42/32 41/41/32 44/44/33 
usemtl lighted
f 37/37/30 46/46/34 47/47/35 
f 47/47/35 38/38/31 37/37/30 
usemtl plastic
f 42/42/32 48/48/36 49/49/37 
f 49/49/37 43/43/32 42/42/32 
f 45/45/33 50/50/38 48/48/36 
f 48/48/36 42/42/32 45/45/33 
usemtl lighted
f 3/10/39 51/9/40 52/51/41 
f 52/51/41 4/52/42 3/10/39 
f 7/8/43 53/5/44 54/6/45 
f 54/6/45 8/7/46 7/8/43 
f 10/3/47 55/2/48 53/5/44 
f 53/5/44 7/8/43 10/3/47 
f 56/20/49 57/19/50 58/53/51 
f 58/53/51 59/54/51 56/20/49 
f 60/18/52 61/15/53 62/16/54 
f 62/16/54 63/17/55 60/18/52 
usemtl plastic
f 64/13/56 65/12/57 62/16/54 
f 62/16/54 61/15/53 64/13/56 
usemtl lighted
f 57/19/50 66/25/58 67/55/59 
f 67/55/59 58/53/51 57/19/50 
usemtl plastic
f 62/16/54 68/23/60 69/24/61 
f 69/24/61 63/17/55 62/16/54 
f 65/12/57 70/22/62 68/23/60 
f 68/23/60 62/16/54 65/12/57 
usemtl lighted
f 71/26/63 72/27/64 73/28/65 
f 73/28/65 74/29/66 71/26/63 
f 75/30/67 76/31/68 77/32/69 
f 77/32/69 78/33/67 75/30/67 
f 79/34/70 80/35/71 76/31/68 
f 76/31/68 75/30/67 79/34/70 
f 81/36/72 82/37/72 83/38/73 
f 83/38/73 84/39/73 81/36/72 
f 85/40/74 86/41/74 87/42/74 
f 87/42/74 88/43/74 85/40/74 
usemtl plastic
f 89/44/75 90/45/76 87/42/74 
f 87/42/74 86/41/74 89/44/75 
usemtl lighted
f 82/37/72 91/46/77 92/47/78 
f 92/47/78 83/38/73 82/37/72 
usemtl plastic
f 87/42/74 93/48/79 94/49/79 
f 94/49/79 88/43/74 87/42/74 
f 90/45/76 95/50/80 93/48/79 
f 93/48/79 87/42/74 90/45/76 
usemtl lighted
f 96/26/81 97/27/82 98/28/83 
f 98/28/83 99/29/84 96/26/81 
f 100/30/85 101/31/86 102/32/87 
f 102/32/87 103/33/88 100/30/85 
f 104/34/89 105/35/90 101/31/86 
f 101/31/86 100/30/85 104/34/89 
f 106/36/91 107/37/92 108/38/93 
f 108/38/93 109/39/93 106/36/91 
f 110/40/94 111/41/95 112/42/96 
f 112/42/96 113/43/97 110/40/94 
usemtl plastic
f 114/44/98 115/45/99 112/42/96 
f 112/42/96 111/41/95 114/44/98 
usemtl lighted
f 107/37/92 116/46/100 117/47/101 
f 117/47/101 108/38/93 107/37/92 
usemtl plastic
f 112/42/96 118/48/102 119/49/103 
f 119/49/103 113/43/97 112/42/96 
f 115/45/99 120/50/104 118/48/102 
f 118/48/102 112/42/96 115/45/99 
usemtl lighted
f 21/10/105 121/9/106 122/51/107 
f 122/51/107 123/52/108 21/10/105 
f 14/8/109 124/5/110 125/6/111 
f 125/6/111 11/7/112 14/8/109 
f 1/3/113 126/2/114 124/5/110 
f 124/5/110 14/8/109 1/3/113 
f 127/20/115 128/19/115 129/53/116 
f 129/53/116 130/54/116 127/20/115 
f 131/18/117 132/15/117 133/16/117 
f 133/16/117 134/17/117 131/18/117 
usemtl plastic
f 135/13/118 136/12/119 133/16/117 
f 133/16/117 132/15/117 135/13/118 
usemtl lighted
f 128/19/115 137/25/120 138/55/121 
f 138/55/121 129/53/116 128/19/115 
usemtl plastic
f 133/16/117 139/23/122 140/24/122 
f 140/24/122 134/17/117 133/16/117 
f 136/12/119 141/22/123 139/23/122 
f 139/23/122 133/16/117 136/12/119 
f 60/18/52 56/20/49 51/9/40 
f 51/9/40 54/6/45 60/18/52 
f 61/15/53 60/18/52 54/6/45 
f 54/6/45 53/5/44 61/15/53 
usemtl lighted
f 84/14/124 64/13/56 55/2/48 
f 55/2/48 73/1/125 84/14/124 
f 33/56/126 26/57/127 66/25/58 
f 66/25/58 69/24/61 33/56/126 
f 30/58/128 33/56/126 69/24/61 
f 69/24/61 68/23/60 30/58/128 
f 142/59/129 34/60/130 70/22/62 
f 70/22/62 92/21/131 142/59/129 
usemtl plastic
f 85/40/74 81/36/72 72/27/64 
f 72/27/64 77/32/69 85/40/74 
f 86/41/74 85/40/74 77/32/69 
f 77/32/69 76/31/68 86/41/74 
usemtl lighted
f 109/61/132 89/44/75 80/35/71 
f 80/35/71 98/62/133 109/61/132 
f 143/63/134 144/64/135 91/46/77 
f 91/46/77 94/49/79 143/63/134 
f 145/65/134 143/63/134 94/49/79 
f 94/49/79 93/48/79 145/65/134 
f 146/66/136 147/67/137 95/50/80 
f 95/50/80 117/68/138 146/66/136 
usemtl plastic
f 110/40/94 106/36/91 97/27/82 
f 97/27/82 102/32/87 110/40/94 
f 111/41/95 110/40/94 102/32/87 
f 102/32/87 101/31/86 111/41/95 
usemtl lighted
f 130/61/139 114/44/98 105/35/90 
f 105/35/90 122/62/140 130/61/139 
f 148/63/141 149/64/142 116/46/100 
f 116/46/100 119/49/103 148/63/141 
f 150/65/143 148/63/141 119/49/103 
f 119/49/103 118/48/102 150/65/143 
f 151/66/144 152/67/145 120/50/104 
f 120/50/104 138/68/146 151/66/144 
usemtl plastic
f 131/18/117 127/20/115 121/9/106 
f 121/9/106 125/6/111 131/18/117 
f 132/15/117 131/18/117 125/6/111 
f 125/6/111 124/5/110 132/15/117 
usemtl lighted
f 59/14/147 135/13/118 126/2/114 
f 126/2/114 52/1/148 59/14/147 
f 38/56/149 47/57/150 137/25/120 
f 137/25/120 140/24/122 38/56/149 
f 39/58/149 38/56/149 140/24/122 
f 140/24/122 139/23/122 39/58/149 
f 29/59/151 28/60/152 141/22/123 
f 141/22/123 67/21/153 29/59/151 
usemtl plastic
f 15/15/13 5/5/5 2/2/2 
f 2/2/2 13/13/12 15/15/13 
usemtl lighted
f 78/54/154 71/51/155 9/9/9 
f 9/9/9 20/20/14 78/54/154 
usemtl plastic
f 16/16/13 15/15/13 13/13/12 
f 13/13/12 12/12/12 16/16/13 
usemtl lighted
f 75/53/154 78/54/154 20/20/14 
f 20/20/14 19/19/14 75/53/154 
f 100/58/156 23/23/17 22/22/16 
f 22/22/16 104/60/157 100/58/156 
f 99/69/158 79/55/159 25/25/19 
f 25/25/19 96/57/160 99/69/158 
f 33/33/27 32/32/26 27/27/21 
f 27/27/21 26/26/20 33/33/27 
f 142/70/161 144/62/162 35/35/29 
f 35/35/29 34/34/28 142/70/161 
usemtl plastic
f 40/40/32 43/43/32 37/37/30 
f 37/37/30 36/36/30 40/40/32 
usemtl lighted
f 143/61/163 145/71/163 45/45/33 
f 45/45/33 44/44/33 143/61/163 
usemtl plastic
f 43/43/32 49/49/37 46/46/34 
f 46/46/34 37/37/30 43/43/32 
usemtl lighted
f 145/71/163 147/68/164 50/50/38 
f 50/50/38 45/45/33 145/71/163 
f 8/7/46 54/6/45 51/9/40 
f 51/9/40 3/10/39 8/7/46 
f 74/4/165 73/1/125 55/2/48 
f 55/2/48 10/3/47 74/4/165 
usemtl plastic
f 60/18/52 63/17/55 57/19/50 
f 57/19/50 56/20/49 60/18/52 
usemtl lighted
f 84/14/124 83/11/124 65/12/57 
f 65/12/57 64/13/56 84/14/124 
usemtl plastic
f 63/17/55 69/24/61 66/25/58 
f 66/25/58 57/19/50 63/17/55 
usemtl lighted
f 83/11/124 92/21/131 70/22/62 
f 70/22/62 65/12/57 83/11/124 
f 103/33/88 102/32/87 97/27/82 
f 97/27/82 96/26/81 103/33/88 
f 123/70/166 122/62/140 105/35/90 
f 105/35/90 104/34/89 123/70/166 
usemtl plastic
f 110/40/94 113/43/97 107/37/92 
f 107/37/92 106/36/91 110/40/94 
usemtl lighted
f 130/61/139 129/71/139 115/45/99 
f 115/45/99 114/44/98 130/61/139 
usemtl plastic
f 113/43/97 119/49/103 116/46/100 
f 116/46/100 107/37/92 113/43/97 
usemtl lighted
f 129/71/139 138/68/146 120/50/104 
f 120/50/104 115/45/99 129/71/139 
f 59/54/51 52/51/41 51/9/40 
f 51/9/40 56/20/49 59/54/51 
usemtl plastic
f 61/15/53 53/5/44 55/2/48 
f 55/2/48 64/13/56 61/15/53 
usemtl lighted
f 29/69/167 67/55/59 66/25/58 
f 66/25/58 26/57/127 29/69/167 
f 30/58/128 68/23/60 70/22/62 
f 70/22/62 34/60/130 30/58/128 
f 109/39/93 98/28/83 97/27/82 
f 97/27/82 106/36/91 109/39/93 
usemtl plastic
f 111/41/95 101/31/86 105/35/90 
f 105/35/90 114/44/98 111/41/95 
usemtl lighted
f 146/72/168 117/47/101 116/46/100 
f 116/46/100 149/64/142 146/72/168 
f 150/65/143 118/48/102 120/50/104 
f 120/50/104 152/67/145 150/65/143 
f 14/14/11 13/13/12 2/2/2 
f 2/2/2 1/1/1 14/14/11 
usemtl plastic
f 15/15/13 18/18/13 6/6/6 
f 6/6/6 5/5/5 15/15/13 
f 18/18/13 20/20/14 9/9/9 
f 9/9/9 6/6/6 18/18/13 
usemtl lighted
f 123/59/169 104/60/157 22/22/16 
f 22/22/16 21/21/15 123/59/169 
f 100/58/156 103/56/170 24/24/18 
f 24/24/18 23/23/17 100/58/156 
f 103/56/170 96/57/160 25/25/19 
f 25/25/19 24/24/18 103/56/170 
f 36/36/30 39/39/31 28/28/22 
f 28/28/22 27/27/21 36/36/30 
usemtl plastic
f 41/41/32 40/40/32 32/32/26 
f 32/32/26 31/31/25 41/41/32 
f 44/44/33 41/41/32 31/31/25 
f 31/31/25 35/35/29 44/44/33 
usemtl lighted
f 152/64/171 151/72/172 47/47/35 
f 47/47/35 46/46/34 152/64/171 
f 148/65/173 150/63/174 49/49/37 
f 49/49/37 48/48/36 148/65/173 
f 149/67/175 148/65/173 48/48/36 
f 48/48/36 50/50/38 149/67/175 
f 78/33/67 77/32/69 72/27/64 
f 72/27/64 71/26/63 78/33/67 
f 99/70/176 98/62/133 80/35/71 
f 80/35/71 79/34/70 99/70/176 
usemtl plastic
f 85/40/74 88/43/74 82/37/72 
f 82/37/72 81/36/72 85/40/74 
usemtl lighted
f 109/61/132 108/71/177 90/45/76 
f 90/45/76 89/44/75 109/61/132 
usemtl plastic
f 88/43/74 94/49/79 91/46/77 
f 91/46/77 82/37/72 88/43/74 
usemtl lighted
f 108/71/177 117/68/138 95/50/80 
f 95/50/80 90/45/76 108/71/177 
f 11/7/112 125/6/111 121/9/106 
f 121/9/106 21/10/105 11/7/112 
f 4/4/178 52/1/148 126/2/114 
f 126/2/114 1/3/113 4/4/178 
usemtl plastic
f 131/18/117 134/17/117 128/19/115 
f 128/19/115 127/20/115 131/18/117 
usemtl lighted
f 59/14/147 58/11/179 136/12/119 
f 136/12/119 135/13/118 59/14/147 
usemtl plastic
f 134/17/117 140/24/122 137/25/120 
f 137/25/120 128/19/115 134/17/117 
usemtl lighted
f 58/11/179 67/21/153 141/22/123 
f 141/22/123 136/12/119 58/11/179 
f 84/39/73 73/28/65 72/27/64 
f 72/27/64 81/36/72 84/39/73 
usemtl plastic
f 86/41/74 76/31/68 80/35/71 
f 80/35/71 89/44/75 86/41/74 
usemtl lighted
f 142/72/180 92/47/78 91/46/77 
f 91/46/77 144/64/135 142/72/180 
f 145/65/134 93/48/79 95/50/80 
f 95/50/80 147/67/137 145/65/134 
f 130/54/116 122/51/107 121/9/106 
f 121/9/106 127/20/115 130/54/116 
usemtl plastic
f 132/15/117 124/5/110 126/2/114 
f 126/2/114 135/13/118 132/15/117 
usemtl lighted
f 151/69/181 138/55/121 137/25/120 
f 137/25/120 47/57/150 151/69/181 
f 39/58/149 139/23/122 141/22/123 
f 141/22/123 28/60/152 39/58/149 
f 8/8/8 3/3/3 2/2/2 
f 2/2/2 5/5/5 8/8/8 
f 74/52/182 10/10/10 9/9/9 
f 9/9/9 71/51/155 74/52/182 
usemtl plastic
f 16/16/13 12/12/12 22/22/16 
f 22/22/16 23/23/17 16/16/13 
usemtl lighted
f 75/53/154 19/19/14 25/25/19 
f 25/25/19 79/55/159 75/53/154 
usemtl plastic
f 40/40/32 36/36/30 27/27/21 
f 27/27/21 32/32/26 40/40/32 
usemtl lighted
f 143/61/163 44/44/33 35/35/29 
f 35/35/29 144/62/162 143/61/163 
f 150/63/174 152/64/171 46/46/34 
f 46/46/34 49/49/37 150/63/174 
f 146/66/183 149/67/175 50/50/38 
f 50/50/38 147/68/164 146/66/183 
# 300 faces

