# 3ds Max Wavefront OBJ Exporter v0.97b - (c)2007 guruware
# Fichier crיי: 06.10.2015 12:38:12

mtllib catom3Dsimple.mtl

#
# object catom_origine
#

v -2.7324 1.1318 -4.3330
v -3.8642 2.2636 -2.7324
v -2.2636 3.8642 -2.7324
v -1.1318 2.7324 -4.3330
v 2.2636 -3.8642 2.7324
v 3.8642 -2.2636 2.7324
v 2.7324 -1.1318 4.3330
v 1.1318 -2.7324 4.3330
v 1.1318 2.7324 -4.3330
v 2.2636 3.8642 -2.7324
v 3.8642 2.2636 -2.7324
v 2.7324 1.1318 -4.3330
v -3.8642 -2.2636 2.7324
v -2.2636 -3.8642 2.7324
v -1.1318 -2.7324 4.3330
v -2.7324 -1.1318 4.3330
v -1.1318 4.9960 -1.1318
v -1.1318 4.9960 1.1318
v 1.1318 4.9960 1.1318
v 1.1318 4.9960 -1.1318
v -1.1318 -4.9960 -1.1318
v 1.1318 -4.9960 -1.1318
v 1.1318 -4.9960 1.1318
v -1.1318 -4.9960 1.1318
v 4.9960 1.1318 -1.1318
v 4.9960 1.1318 1.1318
v 4.9960 -1.1318 1.1318
v 4.9960 -1.1318 -1.1318
v -4.9960 1.1318 -1.1318
v -4.9960 -1.1318 -1.1318
v -4.9960 -1.1318 1.1318
v -4.9960 1.1318 1.1318
v -1.1318 -2.7324 -4.3330
v -2.2636 -3.8642 -2.7324
v -3.8642 -2.2636 -2.7324
v -2.7324 -1.1318 -4.3330
v 3.8642 2.2636 2.7324
v 2.2636 3.8642 2.7324
v 1.1318 2.7324 4.3330
v 2.7324 1.1318 4.3330
v 2.7324 -1.1318 -4.3330
v 3.8642 -2.2636 -2.7324
v 2.2636 -3.8642 -2.7324
v 1.1318 -2.7324 -4.3330
v -2.2636 3.8642 2.7324
v -3.8642 2.2636 2.7324
v -2.7324 1.1318 4.3330
v -1.1318 2.7324 4.3330
# 48 vertices

vn -0.5000 0.5000 -0.7071
vn 0.5000 -0.5000 0.7071
vn 0.5000 0.5000 -0.7071
vn -0.5000 -0.5000 0.7071
vn 0.0000 1.0000 0.0000
vn -0.0000 1.0000 0.0000
vn -0.0000 -1.0000 -0.0000
vn -0.0000 -1.0000 0.0000
vn 1.0000 -0.0000 0.0000
vn -1.0000 0.0000 0.0000
vn -0.5000 -0.5000 -0.7071
vn 0.5000 0.5000 0.7071
vn 0.5000 -0.5000 -0.7071
vn -0.5000 0.5000 0.7071
vn 0.8165 0.0000 0.5774
vn 0.8165 -0.0000 0.5774
vn -0.0000 -0.8165 0.5774
vn 0.0000 -0.8165 0.5774
vn 0.0000 -0.8165 -0.5774
vn -0.0000 -0.8165 -0.5774
vn 0.8165 0.0000 -0.5774
vn 0.8165 -0.0000 -0.5774
vn 0.0000 0.8165 -0.5774
vn 0.0000 0.8165 -0.5773
vn -0.0000 0.8165 -0.5774
vn 0.7071 0.7071 0.0000
vn 0.7071 0.7071 -0.0000
vn -0.8165 0.0000 -0.5774
vn 0.0000 -0.0000 -1.0000
vn 0.0000 0.0000 -1.0000
vn -0.0000 0.0000 -1.0000
vn -0.8165 -0.0000 0.5774
vn -0.8165 0.0000 0.5774
vn -0.0000 0.0000 1.0000
vn 0.0000 -0.0000 1.0000
vn 0.0000 0.8165 0.5774
vn -0.0000 0.8165 0.5774
vn -0.7071 0.7071 0.0000
vn -0.7071 0.7071 -0.0000
vn -0.7071 -0.7071 0.0000
vn 0.7071 -0.7071 0.0000
vn 0.7071 -0.7071 -0.0000
# 42 vertex normals

vt 1.0000 0.0000 0.0000
vt 1.0000 1.0000 0.0000
vt 0.0000 1.0000 0.0000
vt 0.0000 0.0000 0.0000
# 4 texture coords

g catom_origine
usemtl lighted
s 1
f 1/1/1 2/2/1 3/3/1 4/4/1
f 5/4/2 6/1/2 7/2/2 8/3/2
f 9/1/3 10/2/3 11/3/3 12/4/3
f 13/4/4 14/1/4 15/2/4 16/3/4
f 17/1/5 18/2/5 19/3/5 20/4/6
f 21/4/7 22/1/8 23/2/7 24/3/7
f 25/1/9 26/2/9 27/3/9 28/4/9
f 29/4/10 30/1/10 31/2/10 32/3/10
f 33/1/11 34/2/11 35/3/11 36/4/11
f 37/4/12 38/1/12 39/2/12 40/3/12
f 41/1/13 42/2/13 43/3/13 44/4/13
f 45/4/14 46/1/14 47/2/14 48/3/14
f 40/2/15 7/3/15 6/4/15 37/1/15
f 6/4/15 27/2/16 26/3/15 37/1/15
f 14/2/17 5/1/17 8/2/17 15/2/17
f 14/2/17 24/2/18 23/3/17 5/1/17
f 34/2/19 43/2/19 22/4/20 21/1/20
f 34/2/19 33/1/19 44/1/19 43/2/19
f 42/3/21 11/1/21 25/4/22 28/1/22
f 42/3/21 41/4/21 12/1/21 11/1/21
f 10/4/23 3/3/23 17/1/24 20/4/25
f 10/4/23 9/4/23 4/4/23 3/3/23
f 26/3/26 19/3/26 38/4/26 37/1/26
f 20/4/26 25/4/26 11/1/26 10/4/27
f 20/4/26 19/3/26 26/3/26 25/4/26
f 2/2/28 35/3/28 30/1/28 29/4/28
f 2/2/28 1/1/28 36/4/28 35/3/28
f 1/1/29 4/4/29 9/4/30 36/4/31
f 41/4/29 44/1/29 33/1/29 12/1/30
f 33/1/29 36/4/31 9/4/30 12/1/30
f 46/1/32 13/3/32 16/3/32 47/2/32
f 46/1/32 32/3/33 31/2/32 13/3/32
f 8/2/34 39/3/34 48/3/34 15/2/34
f 8/2/34 7/3/34 40/2/34 39/3/34
f 48/3/34 47/2/35 16/3/34 15/2/34
f 45/4/36 38/4/37 19/3/36 18/2/36
f 45/4/36 48/3/37 39/3/37 38/4/37
f 46/1/38 45/4/38 18/2/38 32/3/38
f 29/4/38 17/1/39 3/3/39 2/2/38
f 29/4/38 32/3/38 18/2/38 17/1/39
f 35/3/40 34/2/40 21/1/40 30/1/40
f 14/2/40 13/3/40 31/2/40 24/2/40
f 31/2/40 30/1/40 21/1/40 24/2/40
f 28/1/41 22/4/42 43/2/42 42/3/41
f 6/4/42 5/1/41 23/3/41 27/2/41
f 23/3/41 22/4/42 28/1/41 27/2/41
# 46 polygons
