# 3ds Max Wavefront OBJ Exporter v0.99 - (c)2007 guruware
# File Created: 09.03.2026 07:54:50

mtllib datomVS_piston.mtl

#
# object Datom
#

v  -2.1807 -4.3613 2.4452
v  -4.3613 -2.1807 2.4452
v  -4.3613 -2.1807 1.5420
v  -2.1807 -4.3613 1.5420
v  -5.0000 -1.5420 1.5420
v  -5.0000 -1.5420 -1.5420
v  -4.3613 -2.1807 -1.5420
v  -4.3613 -2.1807 -2.4452
v  -2.1807 -4.3613 -2.4452
v  -2.1807 -4.3613 -1.5420
v  -1.5420 -5.0000 -1.5420
v  -1.5420 -5.0000 1.5420
v  1.5420 -5.0000 1.5420
v  1.5420 -5.0000 -1.5420
v  2.1807 -4.3613 -1.5420
v  2.1807 -4.3613 1.5420
v  5.0010 -1.5420 -1.5420
v  5.0010 -1.5420 1.5420
v  4.3613 -2.1807 1.5420
v  4.3613 -2.1807 -1.5420
v  4.3613 -2.1807 2.4452
v  2.1807 -4.3613 2.4452
v  2.1807 -4.3613 -2.4452
v  4.3613 -2.1807 -2.4452
v  4.3613 2.1807 1.5420
v  4.3613 2.1807 -1.5420
v  2.1807 4.3613 -1.5420
v  2.1807 4.3613 1.5420
v  5.0000 1.5420 1.5420
v  5.0000 1.5420 -1.5420
v  2.1807 4.3613 2.4452
v  4.3613 2.1807 2.4452
v  1.5420 5.0010 -1.5420
v  1.5420 5.0010 1.5420
v  4.3613 2.1807 -2.4452
v  2.1807 4.3613 -2.4452
v  -2.1807 4.3613 1.5420
v  -2.1807 4.3613 -1.5420
v  -4.3613 2.1807 -1.5420
v  -4.3613 2.1807 1.5420
v  -1.5420 5.0010 1.5420
v  -1.5420 5.0010 -1.5420
v  -4.3613 2.1807 2.4452
v  -2.1807 4.3613 2.4452
v  -5.0005 1.5420 -1.5420
v  -5.0005 1.5420 1.5420
v  -2.1807 4.3613 -2.4452
v  -4.3613 2.1807 -2.4452
v  2.1779 0.0000 4.6247
v  0.0000 2.1779 4.6247
v  -2.1779 0.0000 4.6247
v  0.0000 -2.1779 4.6247
v  2.8187 0.6387 4.6247
v  0.6387 2.8187 4.6247
v  0.6387 -2.8187 4.6247
v  2.8187 -0.6387 4.6247
v  -2.8187 -0.6387 4.6247
v  -0.6387 -2.8187 4.6247
v  -0.6387 2.8187 4.6247
v  -2.8187 0.6387 4.6247
v  2.1779 0.0000 -4.6247
v  0.0000 -2.1779 -4.6247
v  -2.1779 0.0000 -4.6247
v  0.0000 2.1779 -4.6247
v  -2.8187 0.6387 -4.6247
v  -0.6387 2.8187 -4.6247
v  -0.6387 -2.8187 -4.6247
v  -2.8187 -0.6387 -4.6247
v  2.8187 -0.6387 -4.6247
v  0.6387 -2.8187 -4.6247
v  0.6387 2.8187 -4.6247
v  2.8187 0.6387 -4.6247
# 72 vertices

vn -0.7071 -0.7071 0.0000
vn -0.7071 -0.7071 0.0000
vn -0.7071 -0.7071 0.0000
vn -0.7071 -0.7071 0.0000
vn -0.7071 -0.7071 0.0000
vn -0.7071 -0.7071 0.0000
vn -0.7071 -0.7071 0.0000
vn -0.7071 -0.7071 0.0000
vn -0.7071 -0.7071 0.0000
vn -0.7071 -0.7071 0.0000
vn -0.7071 -0.7071 0.0000
vn -0.7071 -0.7071 0.0000
vn -0.7071 -0.7071 0.0000
vn -0.7071 -0.7071 0.0000
vn -0.7071 -0.7071 0.0000
vn -0.7071 -0.7071 0.0000
vn -0.7071 -0.7071 0.0000
vn -0.7071 -0.7071 0.0000
vn -0.7071 -0.7071 0.0000
vn -0.7071 -0.7071 0.0000
vn -0.7071 -0.7071 0.0000
vn -0.7071 -0.7071 0.0000
vn -0.7071 -0.7071 0.0000
vn -0.7071 -0.7071 0.0000
vn -0.7071 -0.7071 0.0000
vn -0.7071 -0.7071 0.0000
vn -0.7071 -0.7071 0.0000
vn -0.7071 -0.7071 0.0000
vn -0.7071 -0.7071 0.0000
vn -0.7071 -0.7071 0.0000
vn 0.7071 -0.7071 0.0000
vn 0.7071 -0.7071 0.0000
vn 0.7071 -0.7071 0.0000
vn 0.7071 -0.7071 0.0000
vn 0.7071 -0.7071 0.0000
vn 0.7071 -0.7071 0.0000
vn 0.7066 -0.7077 0.0000
vn 0.7066 -0.7077 0.0000
vn 0.7066 -0.7077 0.0000
vn 0.7066 -0.7077 0.0000
vn 0.7066 -0.7077 0.0000
vn 0.7066 -0.7077 0.0000
vn 0.7071 -0.7071 0.0000
vn 0.7071 -0.7071 0.0000
vn 0.7071 -0.7071 0.0000
vn 0.7071 -0.7071 0.0000
vn 0.7071 -0.7071 0.0000
vn 0.7071 -0.7071 0.0000
vn 0.7071 -0.7071 0.0000
vn 0.7071 -0.7071 0.0000
vn 0.7071 -0.7071 0.0000
vn 0.7071 -0.7071 0.0000
vn 0.7071 -0.7071 0.0000
vn 0.7071 -0.7071 0.0000
vn 0.7071 -0.7071 0.0000
vn 0.7071 -0.7071 0.0000
vn 0.7071 -0.7071 0.0000
vn 0.7071 -0.7071 0.0000
vn 0.7071 -0.7071 0.0000
vn 0.7071 -0.7071 0.0000
vn 0.7071 0.7071 0.0000
vn 0.7071 0.7071 0.0000
vn 0.7071 0.7071 0.0000
vn 0.7071 0.7071 0.0000
vn 0.7071 0.7071 0.0000
vn 0.7071 0.7071 0.0000
vn 0.7071 0.7071 0.0000
vn 0.7071 0.7071 0.0000
vn 0.7071 0.7071 0.0000
vn 0.7071 0.7071 0.0000
vn 0.7071 0.7071 0.0000
vn 0.7071 0.7071 0.0000
vn 0.7071 0.7071 0.0000
vn 0.7071 0.7071 0.0000
vn 0.7071 0.7071 0.0000
vn 0.7071 0.7071 0.0000
vn 0.7071 0.7071 0.0000
vn 0.7071 0.7071 0.0000
vn 0.7077 0.7066 0.0000
vn 0.7077 0.7066 0.0000
vn 0.7077 0.7066 0.0000
vn 0.7077 0.7066 0.0000
vn 0.7077 0.7066 0.0000
vn 0.7077 0.7066 0.0000
vn 0.7071 0.7071 0.0000
vn 0.7071 0.7071 0.0000
vn 0.7071 0.7071 0.0000
vn 0.7071 0.7071 0.0000
vn 0.7071 0.7071 0.0000
vn 0.7071 0.7071 0.0000
vn -0.7071 0.7071 0.0000
vn -0.7071 0.7071 0.0000
vn -0.7071 0.7071 0.0000
vn -0.7071 0.7071 0.0000
vn -0.7071 0.7071 0.0000
vn -0.7071 0.7071 0.0000
vn -0.7077 0.7066 0.0000
vn -0.7077 0.7066 0.0000
vn -0.7077 0.7066 0.0000
vn -0.7077 0.7066 0.0000
vn -0.7077 0.7066 0.0000
vn -0.7077 0.7066 0.0000
vn -0.7071 0.7071 0.0000
vn -0.7071 0.7071 0.0000
vn -0.7071 0.7071 0.0000
vn -0.7071 0.7071 0.0000
vn -0.7071 0.7071 0.0000
vn -0.7071 0.7071 0.0000
vn -0.7068 0.7074 0.0000
vn -0.7068 0.7074 0.0000
vn -0.7068 0.7074 0.0000
vn -0.7068 0.7074 0.0000
vn -0.7068 0.7074 0.0000
vn -0.7068 0.7074 0.0000
vn -0.7071 0.7071 0.0000
vn -0.7071 0.7071 0.0000
vn -0.7071 0.7071 0.0000
vn -0.7071 0.7071 0.0000
vn -0.7071 0.7071 0.0000
vn -0.7071 0.7071 0.0000
vn 0.0000 0.0000 1.0000
vn 0.0000 0.0000 1.0000
vn 0.0000 0.0000 1.0000
vn 0.0000 0.0000 1.0000
vn 0.0000 0.0000 1.0000
vn 0.0000 0.0000 1.0000
vn 0.0000 0.0000 1.0000
vn 0.0000 0.0000 1.0000
vn 0.0000 0.0000 1.0000
vn 0.0000 0.0000 1.0000
vn 0.0000 0.0000 1.0000
vn 0.0000 0.0000 1.0000
vn 0.0000 0.0000 1.0000
vn 0.0000 0.0000 1.0000
vn 0.0000 0.0000 1.0000
vn 0.0000 0.0000 1.0000
vn 0.0000 0.0000 1.0000
vn 0.0000 0.0000 1.0000
vn 0.0000 0.0000 1.0000
vn 0.0000 0.0000 1.0000
vn 0.0000 0.0000 1.0000
vn 0.0000 0.0000 1.0000
vn 0.0000 0.0000 1.0000
vn 0.0000 0.0000 1.0000
vn 0.0000 0.0000 1.0000
vn 0.0000 0.0000 1.0000
vn 0.0000 0.0000 1.0000
vn 0.0000 0.0000 1.0000
vn 0.0000 0.0000 1.0000
vn 0.0000 0.0000 1.0000
vn 0.0000 0.0000 -1.0000
vn 0.0000 0.0000 -1.0000
vn 0.0000 0.0000 -1.0000
vn 0.0000 0.0000 -1.0000
vn 0.0000 0.0000 -1.0000
vn 0.0000 0.0000 -1.0000
vn 0.0000 0.0000 -1.0000
vn 0.0000 0.0000 -1.0000
vn 0.0000 0.0000 -1.0000
vn 0.0000 0.0000 -1.0000
vn 0.0000 0.0000 -1.0000
vn 0.0000 0.0000 -1.0000
vn 0.0000 0.0000 -1.0000
vn 0.0000 0.0000 -1.0000
vn 0.0000 0.0000 -1.0000
vn 0.0000 0.0000 -1.0000
vn 0.0000 0.0000 -1.0000
vn 0.0000 0.0000 -1.0000
vn 0.0000 0.0000 -1.0000
vn 0.0000 0.0000 -1.0000
vn 0.0000 0.0000 -1.0000
vn 0.0000 0.0000 -1.0000
vn 0.0000 0.0000 -1.0000
vn 0.0000 0.0000 -1.0000
vn 0.0000 0.0000 -1.0000
vn 0.0000 0.0000 -1.0000
vn 0.0000 0.0000 -1.0000
vn 0.0000 0.0000 -1.0000
vn 0.0000 0.0000 -1.0000
vn 0.0000 0.0000 -1.0000
vn 0.0000 1.0000 0.0000
vn 0.0000 1.0000 0.0000
vn 0.0000 1.0000 0.0000
vn 0.0000 1.0000 0.0000
vn 0.0000 1.0000 0.0000
vn 0.0000 1.0000 0.0000
vn -1.0000 -0.0002 0.0000
vn -1.0000 -0.0002 0.0000
vn -1.0000 -0.0002 0.0000
vn -1.0000 -0.0002 0.0000
vn -1.0000 -0.0002 0.0000
vn -1.0000 -0.0002 0.0000
vn -0.4998 0.4998 -0.7074
vn -0.4998 0.4998 -0.7074
vn -0.4998 0.4998 -0.7074
vn -0.4998 0.4998 -0.7074
vn -0.4998 0.4998 -0.7074
vn -0.4998 0.4998 -0.7074
vn -0.4998 -0.4998 -0.7074
vn -0.4998 -0.4998 -0.7074
vn -0.4998 -0.4998 -0.7074
vn -0.4998 -0.4998 -0.7074
vn -0.4998 -0.4998 -0.7074
vn -0.4998 -0.4998 -0.7074
vn -0.4998 -0.4998 0.7074
vn -0.4998 -0.4998 0.7074
vn -0.4998 -0.4998 0.7074
vn -0.4998 -0.4998 0.7074
vn -0.4998 -0.4998 0.7074
vn -0.4998 -0.4998 0.7074
vn -0.4998 0.4998 0.7074
vn -0.4998 0.4998 0.7074
vn -0.4998 0.4998 0.7074
vn -0.4998 0.4998 0.7074
vn -0.4998 0.4998 0.7074
vn -0.4998 0.4998 0.7074
vn 0.0000 -1.0000 0.0000
vn 0.0000 -1.0000 0.0000
vn 0.0000 -1.0000 0.0000
vn 0.0000 -1.0000 0.0000
vn 0.0000 -1.0000 0.0000
vn 0.0000 -1.0000 0.0000
vn 0.4998 -0.4998 0.7074
vn 0.4998 -0.4998 0.7074
vn 0.4998 -0.4998 0.7074
vn 0.4998 -0.4998 0.7074
vn 0.4998 -0.4998 0.7074
vn 0.4998 -0.4998 0.7074
vn 0.4998 -0.4998 -0.7074
vn 0.4998 -0.4998 -0.7074
vn 0.4998 -0.4998 -0.7074
vn 0.4998 -0.4998 -0.7074
vn 0.4998 -0.4998 -0.7074
vn 0.4998 -0.4998 -0.7074
vn 1.0000 0.0003 0.0000
vn 1.0000 0.0003 0.0000
vn 1.0000 0.0003 0.0000
vn 1.0000 0.0003 0.0000
vn 1.0000 0.0003 0.0000
vn 1.0000 0.0003 0.0000
vn 0.4998 0.4998 0.7074
vn 0.4998 0.4998 0.7074
vn 0.4998 0.4998 0.7074
vn 0.4998 0.4998 0.7074
vn 0.4998 0.4998 0.7074
vn 0.4998 0.4998 0.7074
vn 0.4998 0.4998 -0.7074
vn 0.4998 0.4998 -0.7074
vn 0.4998 0.4998 -0.7074
vn 0.4998 0.4998 -0.7074
vn 0.4998 0.4998 -0.7074
vn 0.4998 0.4998 -0.7074
# 252 vertex normals

vt 0.8124 0.0908 0.0000
vt 0.8441 0.0554 0.0000
vt 0.5459 0.2385 0.0000
vt 0.6964 0.2385 0.0000
vt 0.8982 0.2072 0.0000
vt 0.9485 0.1531 0.0000
vt 0.5459 0.1359 0.0000
vt 0.0000 0.2500 0.0000
vt 0.0000 0.5000 0.0000
vt 0.6964 0.1359 0.0000
vt 1.0000 0.5000 0.0000
vt 0.2495 0.5000 0.0000
vt 0.7500 0.7500 0.0000
vt 1.0000 0.7500 0.0000
vt 0.0400 0.0000 0.0000
vt 0.2500 2.1245 0.0000
vt 0.9075 0.1968 0.0000
vt 0.8758 0.2072 0.0000
vt 0.2098 0.1240 0.0000
vt 0.2098 0.0000 0.0000
vt 0.9075 0.0832 0.0000
vt 0.0000 1.0000 0.0000
vt 0.2500 0.2500 0.0000
vt 0.2500 0.5000 0.0000
vt 0.8441 0.2072 0.0000
vt 0.8348 0.2072 0.0000
vt 0.8348 0.0451 0.0000
vt 0.8441 0.0450 0.0000
vt 0.5000 0.2503 0.0000
vt 0.0000 0.5000 0.0000
vt 1.0000 1.0000 0.0000
vt 0.5489 0.1280 0.0000
vt 0.4463 0.1240 0.0000
vt 0.4463 0.2490 0.0000
vt 0.7071 0.1280 0.0000
vt 0.7500 0.2503 0.0000
vt 0.8851 0.2072 0.0000
vt 0.5000 0.5000 0.0000
vt 0.5000 0.7497 0.0000
vt 0.8758 0.0450 0.0000
vt 0.8665 0.0451 0.0000
vt 0.5000 0.7500 0.0000
vt 0.2495 0.2500 0.0000
vt 0.2500 0.7500 0.0000
vt 0.9075 0.0450 0.0000
vt 0.8851 0.0451 0.0000
vt 0.0000 0.7500 0.0000
vt 0.7489 0.7497 0.0000
vt 1.0000 0.2500 0.0000
vt 0.7500 0.2500 0.0000
vt 0.5000 1.0000 0.0000
vt 0.5000 0.7501 0.0000
vt 0.2487 0.7501 0.0000
vt 0.2487 1.0000 0.0000
vt 0.5000 0.7497 0.0000
vt 0.5000 0.5000 0.0000
vt 0.7497 0.5000 0.0000
vt 0.7497 0.7497 0.0000
vt 0.7534 0.2454 0.0000
vt 1.0000 0.2454 0.0000
vt 1.0000 0.5000 0.0000
vt 0.7534 0.5000 0.0000
vt 0.0000 0.2594 0.0000
vt 0.2524 0.2594 0.0000
vt 0.2524 0.5000 0.0000
vt 0.0000 0.5000 0.0000
vt 0.2499 0.7489 0.0000
vt 0.0000 0.7489 0.0000
vt 0.0000 0.5000 0.0000
vt 0.2499 0.5000 0.0000
vt 0.7468 1.0000 0.0000
vt 0.7468 0.7509 0.0000
vt 1.0000 0.7509 0.0000
vt 0.7501 0.7505 0.0000
vt 0.7501 0.5000 0.0000
vt 0.9975 0.5000 0.0000
vt 0.9975 0.7505 0.0000
vt 0.5000 0.7499 0.0000
vt 0.2521 0.7499 0.0000
vt 0.2520 0.5000 0.0000
vt 0.5000 0.5000 0.0000
vt 0.2505 0.2584 0.0000
vt 0.5000 0.2584 0.0000
vt 0.5000 0.5000 0.0000
vt 0.2503 0.5000 0.0000
vt 0.2499 1.0000 0.0000
vt 0.2499 0.7493 0.0000
vt 0.0000 0.7493 0.0000
vt 0.7504 1.0002 0.0000
vt 0.5000 1.0002 0.0000
vt 0.5000 0.7503 0.0000
vt 0.7505 0.7503 0.0000
vt 0.5000 0.2394 0.0000
vt 0.7504 0.2394 0.0000
vt 0.7505 0.5000 0.0000
vt 0.5000 0.5000 0.0000
# 96 texture coords

o Datom
g Datom
usemtl datomVS_piston_lighted
s 2
f 3/3/1 4/4/2 1/1/3 
f 1/1/4 2/2/5 3/3/6 
f 7/7/7 3/3/8 5/5/9 
f 5/5/10 6/6/11 7/7/12 
f 10/10/13 7/7/14 8/8/15 
f 8/8/16 9/9/17 10/10/18 
f 4/4/19 10/10/20 11/11/21 
f 11/11/22 12/12/23 4/4/24 
s 4
f 7/7/25 10/10/26 4/4/27 
f 4/4/28 3/3/29 7/7/30 
s 2
f 15/15/31 16/16/32 13/13/33 
f 13/13/34 14/14/35 15/15/36 
f 19/19/37 20/20/38 17/17/39 
f 17/17/40 18/18/41 19/19/42 
f 16/16/43 19/19/44 21/21/45 
f 21/21/46 22/22/47 16/16/48 
f 20/20/49 15/15/50 23/23/51 
f 23/23/52 24/24/53 20/20/54 
s 4
f 20/20/55 19/19/56 16/16/57 
f 16/16/58 15/15/59 20/20/60 
f 27/20/61 28/19/62 25/16/63 
f 25/16/64 26/15/65 27/20/66 
s 2
f 26/15/67 25/16/68 29/25/69 
f 29/25/70 30/26/71 26/15/72 
f 25/16/73 28/19/74 31/27/75 
f 31/27/76 32/28/77 25/16/78 
f 28/19/79 27/20/80 33/24/81 
f 33/24/82 34/29/83 28/19/84 
f 27/20/85 26/15/86 35/30/87 
f 35/30/88 36/31/89 27/20/90 
s 4
f 39/34/91 40/35/92 37/32/93 
f 37/32/94 38/33/95 39/34/96 
s 2
f 38/33/97 37/32/98 41/36/99 
f 41/36/100 42/29/101 38/33/102 
f 37/32/103 40/35/104 43/26/105 
f 43/26/106 44/37/107 37/32/108 
f 40/35/109 39/34/110 45/38/111 
f 45/38/112 46/39/113 40/35/114 
f 39/34/115 38/33/116 47/40/117 
f 47/40/118 48/41/119 39/34/120 
s 4
f 51/43/121 52/44/122 49/42/123 
f 49/42/124 50/8/125 51/43/126 
s 2
f 50/8/127 49/42/128 53/45/129 
f 53/45/130 54/46/131 50/8/132 
f 49/42/133 52/44/134 55/37/135 
f 55/37/136 56/18/137 49/42/138 
f 52/44/139 51/43/140 57/47/141 
f 57/47/142 58/44/143 52/44/144 
f 51/43/145 50/8/146 59/39/147 
f 59/39/148 60/48/149 51/43/150 
s 4
f 63/15/151 64/20/152 61/19/153 
f 61/19/154 62/16/155 63/15/156 
s 2
f 64/20/157 63/15/158 65/17/159 
f 65/17/160 66/5/161 64/20/162 
f 63/15/163 62/16/164 67/49/165 
f 67/49/166 68/50/167 63/15/168 
f 62/16/169 61/19/170 69/41/171 
f 69/41/172 70/21/173 62/16/174 
f 61/19/175 64/20/176 71/2/177 
f 71/2/178 72/27/179 61/19/180 
usemtl datomVS_piston_texture
s 1
f 42/53/181 41/54/182 34/51/183 
f 34/51/184 33/52/185 42/53/186 
f 6/57/187 5/58/188 46/55/189 
f 46/55/190 45/56/191 6/57/192 
f 48/61/193 47/62/194 66/59/195 
f 66/59/196 65/60/197 48/61/198 
f 9/65/199 8/66/200 68/63/201 
f 68/63/202 67/64/203 9/65/204 
f 2/69/205 1/70/206 58/67/207 
f 58/67/208 57/68/209 2/69/210 
f 44/72/211 43/73/212 60/31/213 
f 60/31/214 59/71/215 44/72/216 
f 14/76/217 13/77/218 12/74/219 
f 12/74/220 11/75/221 14/76/222 
f 22/80/223 21/81/224 56/78/225 
f 56/78/226 55/79/227 22/80/228 
f 24/84/229 23/85/230 70/82/231 
f 70/82/232 69/83/233 24/84/234 
f 30/88/235 29/22/236 18/86/237 
f 18/86/238 17/87/239 30/88/240 
f 32/91/241 31/92/242 54/89/243 
f 54/89/244 53/90/245 32/91/246 
f 36/95/247 35/96/248 72/93/249 
f 72/93/250 71/94/251 36/95/252 
# 84 faces

#
# object Datom012A
#

v  -2.1807 -4.3613 2.4452
v  -4.3613 -2.1807 2.4452
v  -4.3613 -2.1807 1.5420
v  -2.1807 -4.3613 1.5420
v  -5.0000 -1.5420 1.5420
v  -5.0000 -1.5420 -1.5420
v  -4.3613 -2.1807 -1.5420
v  -4.3613 -2.1807 -2.4452
v  -2.1807 -4.3613 -2.4452
v  -2.1807 -4.3613 -1.5420
v  -1.5420 -5.0000 -1.5420
v  -1.5420 -5.0000 1.5420
v  1.5420 -5.0000 1.5420
v  1.5420 -5.0000 -1.5420
v  2.1807 -4.3613 -1.5420
v  2.1807 -4.3613 1.5420
v  5.0010 -1.5420 -1.5420
v  5.0010 -1.5420 1.5420
v  4.3613 -2.1807 1.5420
v  4.3613 -2.1807 -1.5420
v  4.3613 -2.1807 2.4452
v  2.1807 -4.3613 2.4452
v  2.1807 -4.3613 -2.4452
v  4.3613 -2.1807 -2.4452
v  2.1807 0.0001 1.5420
v  2.1807 0.0001 -1.5420
v  0.0001 2.1807 -1.5420
v  0.0001 2.1807 1.5420
v  2.8191 0.6384 1.5420
v  2.8191 0.6384 -1.5420
v  0.6385 2.8191 1.5420
v  2.8191 0.6385 1.5420
v  0.6389 2.8196 -1.5420
v  0.6389 2.8196 1.5420
v  2.8191 0.6385 -1.5420
v  0.6385 2.8191 -1.5420
v  -2.1807 4.3613 1.5420
v  -2.1807 4.3613 -1.5420
v  -4.3613 2.1807 -1.5420
v  -4.3613 2.1807 1.5420
v  -1.5420 5.0010 1.5420
v  -1.5420 5.0010 -1.5420
v  -4.3613 2.1807 2.4452
v  -2.1807 4.3613 2.4452
v  -5.0005 1.5420 -1.5420
v  -5.0005 1.5420 1.5420
v  -2.1807 4.3613 -2.4452
v  -4.3613 2.1807 -2.4452
v  2.1779 0.0000 4.6247
v  -0.0000 2.1779 4.6247
v  -2.1779 -0.0000 4.6247
v  0.0000 -2.1779 4.6247
v  2.8187 0.6387 4.6247
v  0.6387 2.8187 4.6247
v  0.6387 -2.8187 4.6247
v  2.8187 -0.6387 4.6247
v  -2.8187 -0.6387 4.6247
v  -0.6387 -2.8187 4.6247
v  -0.6387 2.8187 4.6247
v  -2.8187 0.6387 4.6247
v  2.1779 0.0000 -4.6247
v  0.0000 -2.1779 -4.6247
v  -2.1779 -0.0000 -4.6247
v  -0.0000 2.1779 -4.6247
v  -2.8187 0.6387 -4.6247
v  -0.6387 2.8187 -4.6247
v  -0.6387 -2.8187 -4.6247
v  -2.8187 -0.6387 -4.6247
v  2.8187 -0.6387 -4.6247
v  0.6387 -2.8187 -4.6247
v  0.6387 2.8187 -4.6247
v  2.8187 0.6387 -4.6247
# 72 vertices

vn -0.7071 -0.7071 0.0000
vn -0.7071 -0.7071 0.0000
vn -0.7071 -0.7071 0.0000
vn -0.7071 -0.7071 0.0000
vn -0.7071 -0.7071 0.0000
vn -0.7071 -0.7071 0.0000
vn -0.7071 -0.7071 0.0000
vn -0.7071 -0.7071 0.0000
vn -0.7071 -0.7071 0.0000
vn -0.7071 -0.7071 0.0000
vn -0.7071 -0.7071 0.0000
vn -0.7071 -0.7071 0.0000
vn -0.7071 -0.7071 0.0000
vn -0.7071 -0.7071 0.0000
vn -0.7071 -0.7071 0.0000
vn -0.7071 -0.7071 0.0000
vn -0.7071 -0.7071 0.0000
vn -0.7071 -0.7071 0.0000
vn -0.7071 -0.7071 0.0000
vn -0.7071 -0.7071 0.0000
vn -0.7071 -0.7071 0.0000
vn -0.7071 -0.7071 0.0000
vn -0.7071 -0.7071 0.0000
vn -0.7071 -0.7071 0.0000
vn -0.7071 -0.7071 0.0000
vn -0.7071 -0.7071 0.0000
vn -0.7071 -0.7071 0.0000
vn -0.7071 -0.7071 0.0000
vn -0.7071 -0.7071 0.0000
vn -0.7071 -0.7071 0.0000
vn 0.7071 -0.7071 0.0000
vn 0.7071 -0.7071 0.0000
vn 0.7071 -0.7071 0.0000
vn 0.7071 -0.7071 0.0000
vn 0.7071 -0.7071 0.0000
vn 0.7071 -0.7071 0.0000
vn 0.7066 -0.7077 0.0000
vn 0.7066 -0.7077 0.0000
vn 0.7066 -0.7077 0.0000
vn 0.7066 -0.7077 0.0000
vn 0.7066 -0.7077 0.0000
vn 0.7066 -0.7077 0.0000
vn 0.7071 -0.7071 0.0000
vn 0.7071 -0.7071 0.0000
vn 0.7071 -0.7071 0.0000
vn 0.7071 -0.7071 0.0000
vn 0.7071 -0.7071 0.0000
vn 0.7071 -0.7071 0.0000
vn 0.7071 -0.7071 0.0000
vn 0.7071 -0.7071 0.0000
vn 0.7071 -0.7071 0.0000
vn 0.7071 -0.7071 0.0000
vn 0.7071 -0.7071 0.0000
vn 0.7071 -0.7071 0.0000
vn 0.7071 -0.7071 0.0000
vn 0.7071 -0.7071 0.0000
vn 0.7071 -0.7071 0.0000
vn 0.7071 -0.7071 0.0000
vn 0.7071 -0.7071 0.0000
vn 0.7071 -0.7071 0.0000
vn 0.7071 0.7071 0.0000
vn 0.7071 0.7071 0.0000
vn 0.7071 0.7071 0.0000
vn 0.7071 0.7071 0.0000
vn 0.7071 0.7071 0.0000
vn 0.7071 0.7071 0.0000
vn 0.0002 1.0000 0.0000
vn 0.0002 1.0000 0.0000
vn 0.0002 1.0000 0.0000
vn 0.0002 1.0000 0.0000
vn 0.0002 1.0000 0.0000
vn 0.0002 1.0000 0.0000
vn 0.5001 0.5001 -0.7070
vn 0.5001 0.5001 -0.7070
vn 0.5001 0.5001 -0.7070
vn 0.5001 0.5001 -0.7070
vn 0.5001 0.5001 -0.7070
vn 0.5001 0.5001 -0.7070
vn 1.0000 0.0002 0.0000
vn 1.0000 0.0002 0.0000
vn 1.0000 0.0002 0.0000
vn 1.0000 0.0002 0.0000
vn 1.0000 0.0002 0.0000
vn 1.0000 0.0002 0.0000
vn 0.5001 0.5001 0.7070
vn 0.5001 0.5001 0.7070
vn 0.5001 0.5001 0.7070
vn 0.5001 0.5001 0.7070
vn 0.5001 0.5001 0.7070
vn 0.5001 0.5001 0.7070
vn -0.7071 0.7071 0.0000
vn -0.7071 0.7071 0.0000
vn -0.7071 0.7071 0.0000
vn -0.7071 0.7071 0.0000
vn -0.7071 0.7071 0.0000
vn -0.7071 0.7071 0.0000
vn -0.7077 0.7066 0.0000
vn -0.7077 0.7066 0.0000
vn -0.7077 0.7066 0.0000
vn -0.7077 0.7066 0.0000
vn -0.7077 0.7066 0.0000
vn -0.7077 0.7066 0.0000
vn -0.7071 0.7071 0.0000
vn -0.7071 0.7071 0.0000
vn -0.7071 0.7071 0.0000
vn -0.7071 0.7071 0.0000
vn -0.7071 0.7071 0.0000
vn -0.7071 0.7071 0.0000
vn -0.7068 0.7074 0.0000
vn -0.7068 0.7074 0.0000
vn -0.7068 0.7074 0.0000
vn -0.7068 0.7074 0.0000
vn -0.7068 0.7074 0.0000
vn -0.7068 0.7074 0.0000
vn -0.7071 0.7071 0.0000
vn -0.7071 0.7071 0.0000
vn -0.7071 0.7071 0.0000
vn -0.7071 0.7071 0.0000
vn -0.7071 0.7071 0.0000
vn -0.7071 0.7071 0.0000
vn 0.0000 0.0000 1.0000
vn 0.0000 0.0000 1.0000
vn 0.0000 0.0000 1.0000
vn 0.0000 0.0000 1.0000
vn 0.0000 0.0000 1.0000
vn 0.0000 0.0000 1.0000
vn 0.0000 0.0000 1.0000
vn 0.0000 0.0000 1.0000
vn 0.0000 0.0000 1.0000
vn 0.0000 0.0000 1.0000
vn 0.0000 0.0000 1.0000
vn 0.0000 0.0000 1.0000
vn 0.0000 0.0000 1.0000
vn 0.0000 0.0000 1.0000
vn 0.0000 0.0000 1.0000
vn 0.0000 0.0000 1.0000
vn 0.0000 0.0000 1.0000
vn 0.0000 0.0000 1.0000
vn 0.0000 0.0000 1.0000
vn 0.0000 0.0000 1.0000
vn 0.0000 0.0000 1.0000
vn 0.0000 0.0000 1.0000
vn 0.0000 0.0000 1.0000
vn 0.0000 0.0000 1.0000
vn 0.0000 0.0000 1.0000
vn 0.0000 0.0000 1.0000
vn 0.0000 0.0000 1.0000
vn 0.0000 0.0000 1.0000
vn 0.0000 0.0000 1.0000
vn 0.0000 0.0000 1.0000
vn 0.0000 0.0000 -1.0000
vn 0.0000 0.0000 -1.0000
vn 0.0000 0.0000 -1.0000
vn 0.0000 0.0000 -1.0000
vn 0.0000 0.0000 -1.0000
vn 0.0000 0.0000 -1.0000
vn 0.0000 0.0000 -1.0000
vn 0.0000 0.0000 -1.0000
vn 0.0000 0.0000 -1.0000
vn 0.0000 0.0000 -1.0000
vn 0.0000 0.0000 -1.0000
vn 0.0000 0.0000 -1.0000
vn 0.0000 0.0000 -1.0000
vn 0.0000 0.0000 -1.0000
vn 0.0000 0.0000 -1.0000
vn 0.0000 0.0000 -1.0000
vn 0.0000 0.0000 -1.0000
vn 0.0000 0.0000 -1.0000
vn 0.0000 0.0000 -1.0000
vn 0.0000 0.0000 -1.0000
vn 0.0000 0.0000 -1.0000
vn 0.0000 0.0000 -1.0000
vn 0.0000 0.0000 -1.0000
vn 0.0000 0.0000 -1.0000
vn 0.0000 0.0000 -1.0000
vn 0.0000 0.0000 -1.0000
vn 0.0000 0.0000 -1.0000
vn 0.0000 0.0000 -1.0000
vn 0.0000 0.0000 -1.0000
vn 0.0000 0.0000 -1.0000
vn 0.7072 0.7070 0.0000
vn 0.7072 0.7070 0.0000
vn 0.7072 0.7070 0.0000
vn 0.7072 0.7070 0.0000
vn 0.7072 0.7070 0.0000
vn 0.7072 0.7070 0.0000
vn -1.0000 -0.0002 0.0000
vn -1.0000 -0.0002 0.0000
vn -1.0000 -0.0002 0.0000
vn -1.0000 -0.0002 0.0000
vn -1.0000 -0.0002 0.0000
vn -1.0000 -0.0002 0.0000
vn -0.4998 0.4998 -0.7074
vn -0.4998 0.4998 -0.7074
vn -0.4998 0.4998 -0.7074
vn -0.4998 0.4998 -0.7074
vn -0.4998 0.4998 -0.7074
vn -0.4998 0.4998 -0.7074
vn -0.4998 -0.4998 -0.7074
vn -0.4998 -0.4998 -0.7074
vn -0.4998 -0.4998 -0.7074
vn -0.4998 -0.4998 -0.7074
vn -0.4998 -0.4998 -0.7074
vn -0.4998 -0.4998 -0.7074
vn -0.4998 -0.4998 0.7074
vn -0.4998 -0.4998 0.7074
vn -0.4998 -0.4998 0.7074
vn -0.4998 -0.4998 0.7074
vn -0.4998 -0.4998 0.7074
vn -0.4998 -0.4998 0.7074
vn -0.4998 0.4998 0.7074
vn -0.4998 0.4998 0.7074
vn -0.4998 0.4998 0.7074
vn -0.4998 0.4998 0.7074
vn -0.4998 0.4998 0.7074
vn -0.4998 0.4998 0.7074
vn 0.0000 -1.0000 0.0000
vn 0.0000 -1.0000 0.0000
vn 0.0000 -1.0000 0.0000
vn 0.0000 -1.0000 0.0000
vn 0.0000 -1.0000 0.0000
vn 0.0000 -1.0000 0.0000
vn 0.4998 -0.4998 0.7074
vn 0.4998 -0.4998 0.7074
vn 0.4998 -0.4998 0.7074
vn 0.4998 -0.4998 0.7074
vn 0.4998 -0.4998 0.7074
vn 0.4998 -0.4998 0.7074
vn 0.4998 -0.4998 -0.7074
vn 0.4998 -0.4998 -0.7074
vn 0.4998 -0.4998 -0.7074
vn 0.4998 -0.4998 -0.7074
vn 0.4998 -0.4998 -0.7074
vn 0.4998 -0.4998 -0.7074
vn 0.7068 0.7075 0.0000
vn 0.7068 0.7075 0.0000
vn 0.7068 0.7075 0.0000
vn 0.7068 0.7075 0.0000
vn 0.7068 0.7075 0.0000
vn 0.7068 0.7075 0.0000
vn 0.7071 0.7071 0.0000
vn 0.7071 0.7071 0.0000
vn 0.7071 0.7071 0.0000
vn 0.7071 0.7071 0.0000
vn 0.7071 0.7071 0.0000
vn 0.7071 0.7071 0.0000
vn 0.7071 0.7071 -0.0000
vn 0.7071 0.7071 -0.0000
vn 0.7071 0.7071 -0.0000
vn 0.7071 0.7071 -0.0000
vn 0.7071 0.7071 -0.0000
vn 0.7071 0.7071 -0.0000
# 252 vertex normals

vt 0.8124 0.0908 0.0000
vt 0.8441 0.0554 0.0000
vt 0.5459 0.2385 0.0000
vt 0.6964 0.2385 0.0000
vt 0.8982 0.2072 0.0000
vt 0.9485 0.1531 0.0000
vt 0.5459 0.1359 0.0000
vt 0.0000 0.2500 0.0000
vt 0.0000 0.5000 0.0000
vt 0.6964 0.1359 0.0000
vt 1.0000 0.5000 0.0000
vt 0.2495 0.5000 0.0000
vt 0.7500 0.7500 0.0000
vt 1.0000 0.7500 0.0000
vt 0.0400 0.0000 0.0000
vt 0.2500 2.1245 0.0000
vt 0.9075 0.1968 0.0000
vt 0.8758 0.2072 0.0000
vt 0.2098 0.1240 0.0000
vt 0.2098 0.0000 0.0000
vt 0.9075 0.0832 0.0000
vt 0.0000 1.0000 0.0000
vt 0.2500 0.2500 0.0000
vt 0.2500 0.5000 0.0000
vt 0.8441 0.2072 0.0000
vt 0.8348 0.2072 0.0000
vt 0.8348 0.0451 0.0000
vt 0.8441 0.0450 0.0000
vt 0.5000 0.2503 0.0000
vt 0.0000 0.5000 0.0000
vt 1.0000 1.0000 0.0000
vt 0.5489 0.1280 0.0000
vt 0.4463 0.1240 0.0000
vt 0.4463 0.2490 0.0000
vt 0.7071 0.1280 0.0000
vt 0.7500 0.2503 0.0000
vt 0.8851 0.2072 0.0000
vt 0.5000 0.5000 0.0000
vt 0.5000 0.7497 0.0000
vt 0.8758 0.0450 0.0000
vt 0.8665 0.0451 0.0000
vt 0.5000 0.7500 0.0000
vt 0.2495 0.2500 0.0000
vt 0.2500 0.7500 0.0000
vt 0.9075 0.0450 0.0000
vt 0.8851 0.0451 0.0000
vt 0.0000 0.7500 0.0000
vt 0.7489 0.7497 0.0000
vt 1.0000 0.2500 0.0000
vt 0.7500 0.2500 0.0000
vt 0.5000 1.0000 0.0000
vt 0.5000 0.7501 0.0000
vt 0.2487 0.7501 0.0000
vt 0.2487 1.0000 0.0000
vt 0.5000 0.7497 0.0000
vt 0.5000 0.5000 0.0000
vt 0.7497 0.5000 0.0000
vt 0.7497 0.7497 0.0000
vt 0.7534 0.2454 0.0000
vt 1.0000 0.2454 0.0000
vt 1.0000 0.5000 0.0000
vt 0.7534 0.5000 0.0000
vt 0.0000 0.2594 0.0000
vt 0.2524 0.2594 0.0000
vt 0.2524 0.5000 0.0000
vt 0.0000 0.5000 0.0000
vt 0.2499 0.7489 0.0000
vt 0.0000 0.7489 0.0000
vt 0.0000 0.5000 0.0000
vt 0.2499 0.5000 0.0000
vt 0.7468 1.0000 0.0000
vt 0.7468 0.7509 0.0000
vt 1.0000 0.7509 0.0000
vt 0.7501 0.7505 0.0000
vt 0.7501 0.5000 0.0000
vt 0.9975 0.5000 0.0000
vt 0.9975 0.7505 0.0000
vt 0.5000 0.7499 0.0000
vt 0.2521 0.7499 0.0000
vt 0.2520 0.5000 0.0000
vt 0.5000 0.5000 0.0000
vt 0.2505 0.2584 0.0000
vt 0.5000 0.2584 0.0000
vt 0.5000 0.5000 0.0000
vt 0.2503 0.5000 0.0000
vt 0.2499 1.0000 0.0000
vt 0.2499 0.7493 0.0000
vt 0.0000 0.7493 0.0000
vt 0.7504 1.0002 0.0000
vt 0.5000 1.0002 0.0000
vt 0.5000 0.7503 0.0000
vt 0.7505 0.7503 0.0000
vt 0.5000 0.2394 0.0000
vt 0.7504 0.2394 0.0000
vt 0.7505 0.5000 0.0000
vt 0.5000 0.5000 0.0000
# 96 texture coords

o Datom012A
g Datom012A
usemtl datomVS_piston_lighted
s 2
f 75/99/253 76/100/254 73/97/255 
f 73/97/256 74/98/257 75/99/258 
f 79/103/259 75/99/260 77/101/261 
f 77/101/262 78/102/263 79/103/264 
f 82/106/265 79/103/266 80/104/267 
f 80/104/268 81/105/269 82/106/270 
f 76/100/271 82/106/272 83/107/273 
f 83/107/274 84/108/275 76/100/276 
s 4
f 79/103/277 82/106/278 76/100/279 
f 76/100/280 75/99/281 79/103/282 
s 2
f 87/111/283 88/112/284 85/109/285 
f 85/109/286 86/110/287 87/111/288 
f 91/115/289 92/116/290 89/113/291 
f 89/113/292 90/114/293 91/115/294 
f 88/112/295 91/115/296 93/117/297 
f 93/117/298 94/118/299 88/112/300 
f 92/116/301 87/111/302 95/119/303 
f 95/119/304 96/120/305 92/116/306 
s 4
f 92/116/307 91/115/308 88/112/309 
f 88/112/310 87/111/311 92/116/312 
f 99/116/313 100/115/314 97/112/315 
f 97/112/316 98/111/317 99/116/318 
s 2
f 98/111/319 97/112/320 101/121/321 
f 101/121/322 102/122/323 98/111/324 
f 97/112/325 100/115/326 103/123/327 
f 103/123/328 104/124/329 97/112/330 
f 100/115/331 99/116/332 105/120/333 
f 105/120/334 106/125/335 100/115/336 
f 99/116/337 98/111/338 107/126/339 
f 107/126/340 108/127/341 99/116/342 
s 4
f 111/130/343 112/131/344 109/128/345 
f 109/128/346 110/129/347 111/130/348 
s 2
f 110/129/349 109/128/350 113/132/351 
f 113/132/352 114/125/353 110/129/354 
f 109/128/355 112/131/356 115/122/357 
f 115/122/358 116/133/359 109/128/360 
f 112/131/361 111/130/362 117/134/363 
f 117/134/364 118/135/365 112/131/366 
f 111/130/367 110/129/368 119/136/369 
f 119/136/370 120/137/371 111/130/372 
s 4
f 123/139/373 124/140/374 121/138/375 
f 121/138/376 122/104/377 123/139/378 
s 2
f 122/104/379 121/138/380 125/141/381 
f 125/141/382 126/142/383 122/104/384 
f 121/138/385 124/140/386 127/133/387 
f 127/133/388 128/114/389 121/138/390 
f 124/140/391 123/139/392 129/143/393 
f 129/143/394 130/140/395 124/140/396 
f 123/139/397 122/104/398 131/135/399 
f 131/135/400 132/144/401 123/139/402 
s 4
f 135/111/403 136/116/404 133/115/405 
f 133/115/406 134/112/407 135/111/408 
s 2
f 136/116/409 135/111/410 137/113/411 
f 137/113/412 138/101/413 136/116/414 
f 135/111/415 134/112/416 139/145/417 
f 139/145/418 140/146/419 135/111/420 
f 134/112/421 133/115/422 141/137/423 
f 141/137/424 142/117/425 134/112/426 
f 133/115/427 136/116/428 143/98/429 
f 143/98/430 144/123/431 133/115/432 
usemtl datomVS_piston_texture
s 1
f 114/149/433 113/150/434 106/147/435 
f 106/147/436 105/148/437 114/149/438 
f 78/153/439 77/154/440 118/151/441 
f 118/151/442 117/152/443 78/153/444 
f 120/157/445 119/158/446 138/155/447 
f 138/155/448 137/156/449 120/157/450 
f 81/161/451 80/162/452 140/159/453 
f 140/159/454 139/160/455 81/161/456 
f 74/165/457 73/166/458 130/163/459 
f 130/163/460 129/164/461 74/165/462 
f 116/168/463 115/169/464 132/127/465 
f 132/127/466 131/167/467 116/168/468 
f 86/172/469 85/173/470 84/170/471 
f 84/170/472 83/171/473 86/172/474 
f 94/176/475 93/177/476 128/174/477 
f 128/174/478 127/175/479 94/176/480 
f 96/180/481 95/181/482 142/178/483 
f 142/178/484 141/179/485 96/180/486 
f 102/184/487 101/118/488 90/182/489 
f 90/182/490 89/183/491 102/184/492 
f 104/187/493 103/188/494 126/185/495 
f 126/185/496 125/186/497 104/187/498 
f 108/191/499 107/192/500 144/189/501 
f 144/189/502 143/190/503 108/191/504 
# 84 faces

#
# object Datom0579
#

v  -2.1807 -4.3613 2.4452
v  -4.3613 -2.1807 2.4452
v  -4.3613 -2.1807 1.5420
v  -2.1807 -4.3613 1.5420
v  -5.0000 -1.5420 1.5420
v  -5.0000 -1.5420 -1.5420
v  -4.3613 -2.1807 -1.5420
v  -4.3613 -2.1807 -2.4452
v  -2.1807 -4.3613 -2.4452
v  -2.1807 -4.3613 -1.5420
v  -1.5420 -5.0000 -1.5420
v  -1.5420 -5.0000 1.5420
v  0.6384 -2.8191 1.5420
v  0.6384 -2.8191 -1.5420
v  0.0001 -2.1807 -1.5420
v  0.0001 -2.1807 1.5420
v  2.8196 -0.6389 -1.5420
v  2.8196 -0.6389 1.5420
v  2.1807 -0.0001 1.5420
v  2.1807 -0.0001 -1.5420
v  2.8191 -0.6385 1.5420
v  0.6385 -2.8191 1.5420
v  0.6385 -2.8191 -1.5420
v  2.8191 -0.6385 -1.5420
v  4.3613 2.1807 1.5420
v  4.3613 2.1807 -1.5420
v  2.1807 4.3613 -1.5420
v  2.1807 4.3613 1.5420
v  5.0000 1.5420 1.5420
v  5.0000 1.5420 -1.5420
v  2.1807 4.3613 2.4452
v  4.3613 2.1807 2.4452
v  1.5420 5.0010 -1.5420
v  1.5420 5.0010 1.5420
v  4.3613 2.1807 -2.4452
v  2.1807 4.3613 -2.4452
v  -2.1807 4.3613 1.5420
v  -2.1807 4.3613 -1.5420
v  -4.3613 2.1807 -1.5420
v  -4.3613 2.1807 1.5420
v  -1.5420 5.0010 1.5420
v  -1.5420 5.0010 -1.5420
v  -4.3613 2.1807 2.4452
v  -2.1807 4.3613 2.4452
v  -5.0005 1.5420 -1.5420
v  -5.0005 1.5420 1.5420
v  -2.1807 4.3613 -2.4452
v  -4.3613 2.1807 -2.4452
v  2.1779 0.0000 4.6247
v  0.0000 2.1779 4.6247
v  -2.1779 0.0000 4.6247
v  0.0000 -2.1779 4.6247
v  2.8187 0.6387 4.6247
v  0.6387 2.8187 4.6247
v  0.6387 -2.8187 4.6247
v  2.8187 -0.6387 4.6247
v  -2.8187 -0.6387 4.6247
v  -0.6387 -2.8187 4.6247
v  -0.6387 2.8187 4.6247
v  -2.8187 0.6387 4.6247
v  2.1779 0.0000 -4.6247
v  0.0000 -2.1779 -4.6247
v  -2.1779 0.0000 -4.6247
v  0.0000 2.1779 -4.6247
v  -2.8187 0.6387 -4.6247
v  -0.6387 2.8187 -4.6247
v  -0.6387 -2.8187 -4.6247
v  -2.8187 -0.6387 -4.6247
v  2.8187 -0.6387 -4.6247
v  0.6387 -2.8187 -4.6247
v  0.6387 2.8187 -4.6247
v  2.8187 0.6387 -4.6247
# 72 vertices

vn -0.7071 -0.7071 0.0000
vn -0.7071 -0.7071 0.0000
vn -0.7071 -0.7071 0.0000
vn -0.7071 -0.7071 0.0000
vn -0.7071 -0.7071 0.0000
vn -0.7071 -0.7071 0.0000
vn -0.7071 -0.7071 0.0000
vn -0.7071 -0.7071 0.0000
vn -0.7071 -0.7071 0.0000
vn -0.7071 -0.7071 0.0000
vn -0.7071 -0.7071 0.0000
vn -0.7071 -0.7071 0.0000
vn -0.7071 -0.7071 0.0000
vn -0.7071 -0.7071 0.0000
vn -0.7071 -0.7071 0.0000
vn -0.7071 -0.7071 0.0000
vn -0.7071 -0.7071 0.0000
vn -0.7071 -0.7071 0.0000
vn -0.7071 -0.7071 0.0000
vn -0.7071 -0.7071 0.0000
vn -0.7071 -0.7071 0.0000
vn -0.7071 -0.7071 0.0000
vn -0.7071 -0.7071 0.0000
vn -0.7071 -0.7071 0.0000
vn -0.7071 -0.7071 0.0000
vn -0.7071 -0.7071 0.0000
vn -0.7071 -0.7071 0.0000
vn -0.7071 -0.7071 0.0000
vn -0.7071 -0.7071 0.0000
vn -0.7071 -0.7071 0.0000
vn 0.7071 -0.7071 0.0000
vn 0.7071 -0.7071 0.0000
vn 0.7071 -0.7071 0.0000
vn 0.7071 -0.7071 0.0000
vn 0.7071 -0.7071 0.0000
vn 0.7071 -0.7071 0.0000
vn 0.7066 -0.7077 0.0000
vn 0.7066 -0.7077 0.0000
vn 0.7066 -0.7077 0.0000
vn 0.7066 -0.7077 0.0000
vn 0.7066 -0.7077 0.0000
vn 0.7066 -0.7077 0.0000
vn 0.7071 -0.7071 0.0000
vn 0.7071 -0.7071 0.0000
vn 0.7071 -0.7071 0.0000
vn 0.7071 -0.7071 0.0000
vn 0.7071 -0.7071 0.0000
vn 0.7071 -0.7071 0.0000
vn 0.7071 -0.7071 0.0000
vn 0.7071 -0.7071 0.0000
vn 0.7071 -0.7071 0.0000
vn 0.7071 -0.7071 0.0000
vn 0.7071 -0.7071 0.0000
vn 0.7071 -0.7071 0.0000
vn 0.7071 -0.7071 0.0000
vn 0.7071 -0.7071 0.0000
vn 0.7071 -0.7071 0.0000
vn 0.7071 -0.7071 0.0000
vn 0.7071 -0.7071 0.0000
vn 0.7071 -0.7071 0.0000
vn 0.7071 0.7071 0.0000
vn 0.7071 0.7071 0.0000
vn 0.7071 0.7071 0.0000
vn 0.7071 0.7071 0.0000
vn 0.7071 0.7071 0.0000
vn 0.7071 0.7071 0.0000
vn 0.7071 0.7071 0.0000
vn 0.7071 0.7071 0.0000
vn 0.7071 0.7071 0.0000
vn 0.7071 0.7071 0.0000
vn 0.7071 0.7071 0.0000
vn 0.7071 0.7071 0.0000
vn 0.7071 0.7071 0.0000
vn 0.7071 0.7071 0.0000
vn 0.7071 0.7071 0.0000
vn 0.7071 0.7071 0.0000
vn 0.7071 0.7071 0.0000
vn 0.7071 0.7071 0.0000
vn 0.7077 0.7066 0.0000
vn 0.7077 0.7066 0.0000
vn 0.7077 0.7066 0.0000
vn 0.7077 0.7066 0.0000
vn 0.7077 0.7066 0.0000
vn 0.7077 0.7066 0.0000
vn 0.7071 0.7071 0.0000
vn 0.7071 0.7071 0.0000
vn 0.7071 0.7071 0.0000
vn 0.7071 0.7071 0.0000
vn 0.7071 0.7071 0.0000
vn 0.7071 0.7071 0.0000
vn -0.7071 0.7071 0.0000
vn -0.7071 0.7071 0.0000
vn -0.7071 0.7071 0.0000
vn -0.7071 0.7071 0.0000
vn -0.7071 0.7071 0.0000
vn -0.7071 0.7071 0.0000
vn -0.7077 0.7066 0.0000
vn -0.7077 0.7066 0.0000
vn -0.7077 0.7066 0.0000
vn -0.7077 0.7066 0.0000
vn -0.7077 0.7066 0.0000
vn -0.7077 0.7066 0.0000
vn -0.7071 0.7071 0.0000
vn -0.7071 0.7071 0.0000
vn -0.7071 0.7071 0.0000
vn -0.7071 0.7071 0.0000
vn -0.7071 0.7071 0.0000
vn -0.7071 0.7071 0.0000
vn -0.7068 0.7074 0.0000
vn -0.7068 0.7074 0.0000
vn -0.7068 0.7074 0.0000
vn -0.7068 0.7074 0.0000
vn -0.7068 0.7074 0.0000
vn -0.7068 0.7074 0.0000
vn -0.7071 0.7071 0.0000
vn -0.7071 0.7071 0.0000
vn -0.7071 0.7071 0.0000
vn -0.7071 0.7071 0.0000
vn -0.7071 0.7071 0.0000
vn -0.7071 0.7071 0.0000
vn 0.0000 0.0000 1.0000
vn 0.0000 0.0000 1.0000
vn 0.0000 0.0000 1.0000
vn 0.0000 0.0000 1.0000
vn 0.0000 0.0000 1.0000
vn 0.0000 0.0000 1.0000
vn 0.0000 0.0000 1.0000
vn 0.0000 0.0000 1.0000
vn 0.0000 0.0000 1.0000
vn 0.0000 0.0000 1.0000
vn 0.0000 0.0000 1.0000
vn 0.0000 0.0000 1.0000
vn 0.0000 0.0000 1.0000
vn 0.0000 0.0000 1.0000
vn 0.0000 0.0000 1.0000
vn 0.0000 0.0000 1.0000
vn 0.0000 0.0000 1.0000
vn 0.0000 0.0000 1.0000
vn 0.0000 0.0000 1.0000
vn 0.0000 0.0000 1.0000
vn 0.0000 0.0000 1.0000
vn 0.0000 0.0000 1.0000
vn 0.0000 0.0000 1.0000
vn 0.0000 0.0000 1.0000
vn 0.0000 0.0000 1.0000
vn 0.0000 0.0000 1.0000
vn 0.0000 0.0000 1.0000
vn 0.0000 0.0000 1.0000
vn 0.0000 0.0000 1.0000
vn 0.0000 0.0000 1.0000
vn 0.0000 0.0000 -1.0000
vn 0.0000 0.0000 -1.0000
vn 0.0000 0.0000 -1.0000
vn 0.0000 0.0000 -1.0000
vn 0.0000 0.0000 -1.0000
vn 0.0000 0.0000 -1.0000
vn 0.0000 0.0000 -1.0000
vn 0.0000 0.0000 -1.0000
vn 0.0000 0.0000 -1.0000
vn 0.0000 0.0000 -1.0000
vn 0.0000 0.0000 -1.0000
vn 0.0000 0.0000 -1.0000
vn 0.0000 0.0000 -1.0000
vn 0.0000 0.0000 -1.0000
vn 0.0000 0.0000 -1.0000
vn 0.0000 0.0000 -1.0000
vn 0.0000 0.0000 -1.0000
vn 0.0000 0.0000 -1.0000
vn 0.0000 0.0000 -1.0000
vn 0.0000 0.0000 -1.0000
vn 0.0000 0.0000 -1.0000
vn 0.0000 0.0000 -1.0000
vn 0.0000 0.0000 -1.0000
vn 0.0000 0.0000 -1.0000
vn 0.0000 0.0000 -1.0000
vn 0.0000 0.0000 -1.0000
vn 0.0000 0.0000 -1.0000
vn 0.0000 0.0000 -1.0000
vn 0.0000 0.0000 -1.0000
vn 0.0000 0.0000 -1.0000
vn 0.0000 1.0000 0.0000
vn 0.0000 1.0000 0.0000
vn 0.0000 1.0000 0.0000
vn 0.0000 1.0000 0.0000
vn 0.0000 1.0000 0.0000
vn 0.0000 1.0000 0.0000
vn -1.0000 -0.0002 0.0000
vn -1.0000 -0.0002 0.0000
vn -1.0000 -0.0002 0.0000
vn -1.0000 -0.0002 0.0000
vn -1.0000 -0.0002 0.0000
vn -1.0000 -0.0002 0.0000
vn -0.4998 0.4998 -0.7074
vn -0.4998 0.4998 -0.7074
vn -0.4998 0.4998 -0.7074
vn -0.4998 0.4998 -0.7074
vn -0.4998 0.4998 -0.7074
vn -0.4998 0.4998 -0.7074
vn -0.4998 -0.4998 -0.7074
vn -0.4998 -0.4998 -0.7074
vn -0.4998 -0.4998 -0.7074
vn -0.4998 -0.4998 -0.7074
vn -0.4998 -0.4998 -0.7074
vn -0.4998 -0.4998 -0.7074
vn -0.4998 -0.4998 0.7074
vn -0.4998 -0.4998 0.7074
vn -0.4998 -0.4998 0.7074
vn -0.4998 -0.4998 0.7074
vn -0.4998 -0.4998 0.7074
vn -0.4998 -0.4998 0.7074
vn -0.4998 0.4998 0.7074
vn -0.4998 0.4998 0.7074
vn -0.4998 0.4998 0.7074
vn -0.4998 0.4998 0.7074
vn -0.4998 0.4998 0.7074
vn -0.4998 0.4998 0.7074
vn 0.0000 -1.0000 0.0000
vn 0.0000 -1.0000 0.0000
vn 0.0000 -1.0000 0.0000
vn 0.0000 -1.0000 0.0000
vn 0.0000 -1.0000 0.0000
vn 0.0000 -1.0000 0.0000
vn 0.4998 -0.4998 0.7074
vn 0.4998 -0.4998 0.7074
vn 0.4998 -0.4998 0.7074
vn 0.4998 -0.4998 0.7074
vn 0.4998 -0.4998 0.7074
vn 0.4998 -0.4998 0.7074
vn 0.4998 -0.4998 -0.7074
vn 0.4998 -0.4998 -0.7074
vn 0.4998 -0.4998 -0.7074
vn 0.4998 -0.4998 -0.7074
vn 0.4998 -0.4998 -0.7074
vn 0.4998 -0.4998 -0.7074
vn 1.0000 0.0003 0.0000
vn 1.0000 0.0003 0.0000
vn 1.0000 0.0003 0.0000
vn 1.0000 0.0003 0.0000
vn 1.0000 0.0003 0.0000
vn 1.0000 0.0003 0.0000
vn 0.4998 0.4998 0.7074
vn 0.4998 0.4998 0.7074
vn 0.4998 0.4998 0.7074
vn 0.4998 0.4998 0.7074
vn 0.4998 0.4998 0.7074
vn 0.4998 0.4998 0.7074
vn 0.4998 0.4998 -0.7074
vn 0.4998 0.4998 -0.7074
vn 0.4998 0.4998 -0.7074
vn 0.4998 0.4998 -0.7074
vn 0.4998 0.4998 -0.7074
vn 0.4998 0.4998 -0.7074
# 252 vertex normals

vt 0.8124 0.0908 0.0000
vt 0.8441 0.0554 0.0000
vt 0.5459 0.2385 0.0000
vt 0.6964 0.2385 0.0000
vt 0.8982 0.2072 0.0000
vt 0.9485 0.1531 0.0000
vt 0.5459 0.1359 0.0000
vt 0.0000 0.2500 0.0000
vt 0.0000 0.5000 0.0000
vt 0.6964 0.1359 0.0000
vt 1.0000 0.5000 0.0000
vt 0.2495 0.5000 0.0000
vt 0.7500 0.7500 0.0000
vt 1.0000 0.7500 0.0000
vt 0.0400 0.0000 0.0000
vt 0.2500 2.1245 0.0000
vt 0.9075 0.1968 0.0000
vt 0.8758 0.2072 0.0000
vt 0.2098 0.1240 0.0000
vt 0.2098 0.0000 0.0000
vt 0.9075 0.0832 0.0000
vt 0.0000 1.0000 0.0000
vt 0.2500 0.2500 0.0000
vt 0.2500 0.5000 0.0000
vt 0.8441 0.2072 0.0000
vt 0.8348 0.2072 0.0000
vt 0.8348 0.0451 0.0000
vt 0.8441 0.0450 0.0000
vt 0.5000 0.2503 0.0000
vt 0.0000 0.5000 0.0000
vt 1.0000 1.0000 0.0000
vt 0.5489 0.1280 0.0000
vt 0.4463 0.1240 0.0000
vt 0.4463 0.2490 0.0000
vt 0.7071 0.1280 0.0000
vt 0.7500 0.2503 0.0000
vt 0.8851 0.2072 0.0000
vt 0.5000 0.5000 0.0000
vt 0.5000 0.7497 0.0000
vt 0.8758 0.0450 0.0000
vt 0.8665 0.0451 0.0000
vt 0.5000 0.7500 0.0000
vt 0.2495 0.2500 0.0000
vt 0.2500 0.7500 0.0000
vt 0.9075 0.0450 0.0000
vt 0.8851 0.0451 0.0000
vt 0.0000 0.7500 0.0000
vt 0.7489 0.7497 0.0000
vt 1.0000 0.2500 0.0000
vt 0.7500 0.2500 0.0000
vt 0.5000 1.0000 0.0000
vt 0.5000 0.7501 0.0000
vt 0.2487 0.7501 0.0000
vt 0.2487 1.0000 0.0000
vt 0.5000 0.7497 0.0000
vt 0.5000 0.5000 0.0000
vt 0.7497 0.5000 0.0000
vt 0.7497 0.7497 0.0000
vt 0.7534 0.2454 0.0000
vt 1.0000 0.2454 0.0000
vt 1.0000 0.5000 0.0000
vt 0.7534 0.5000 0.0000
vt 0.0000 0.2594 0.0000
vt 0.2524 0.2594 0.0000
vt 0.2524 0.5000 0.0000
vt 0.0000 0.5000 0.0000
vt 0.2499 0.7489 0.0000
vt 0.0000 0.7489 0.0000
vt 0.0000 0.5000 0.0000
vt 0.2499 0.5000 0.0000
vt 0.7468 1.0000 0.0000
vt 0.7468 0.7509 0.0000
vt 1.0000 0.7509 0.0000
vt 0.7501 0.7505 0.0000
vt 0.7501 0.5000 0.0000
vt 0.9975 0.5000 0.0000
vt 0.9975 0.7505 0.0000
vt 0.5000 0.7499 0.0000
vt 0.2521 0.7499 0.0000
vt 0.2520 0.5000 0.0000
vt 0.5000 0.5000 0.0000
vt 0.2505 0.2584 0.0000
vt 0.5000 0.2584 0.0000
vt 0.5000 0.5000 0.0000
vt 0.2503 0.5000 0.0000
vt 0.2499 1.0000 0.0000
vt 0.2499 0.7493 0.0000
vt 0.0000 0.7493 0.0000
vt 0.7504 1.0002 0.0000
vt 0.5000 1.0002 0.0000
vt 0.5000 0.7503 0.0000
vt 0.7505 0.7503 0.0000
vt 0.5000 0.2394 0.0000
vt 0.7504 0.2394 0.0000
vt 0.7505 0.5000 0.0000
vt 0.5000 0.5000 0.0000
# 96 texture coords

o Datom0579
g Datom0579
usemtl datomVS_piston_lighted
s 2
f 147/195/505 148/196/506 145/193/507 
f 145/193/508 146/194/509 147/195/510 
f 151/199/511 147/195/512 149/197/513 
f 149/197/514 150/198/515 151/199/516 
f 154/202/517 151/199/518 152/200/519 
f 152/200/520 153/201/521 154/202/522 
f 148/196/523 154/202/524 155/203/525 
f 155/203/526 156/204/527 148/196/528 
s 4
f 151/199/529 154/202/530 148/196/531 
f 148/196/532 147/195/533 151/199/534 
s 2
f 159/207/535 160/208/536 157/205/537 
f 157/205/538 158/206/539 159/207/540 
f 163/211/541 164/212/542 161/209/543 
f 161/209/544 162/210/545 163/211/546 
f 160/208/547 163/211/548 165/213/549 
f 165/213/550 166/214/551 160/208/552 
f 164/212/553 159/207/554 167/215/555 
f 167/215/556 168/216/557 164/212/558 
s 4
f 164/212/559 163/211/560 160/208/561 
f 160/208/562 159/207/563 164/212/564 
f 171/212/565 172/211/566 169/208/567 
f 169/208/568 170/207/569 171/212/570 
s 2
f 170/207/571 169/208/572 173/217/573 
f 173/217/574 174/218/575 170/207/576 
f 169/208/577 172/211/578 175/219/579 
f 175/219/580 176/220/581 169/208/582 
f 172/211/583 171/212/584 177/216/585 
f 177/216/586 178/221/587 172/211/588 
f 171/212/589 170/207/590 179/222/591 
f 179/222/592 180/223/593 171/212/594 
s 4
f 183/226/595 184/227/596 181/224/597 
f 181/224/598 182/225/599 183/226/600 
s 2
f 182/225/601 181/224/602 185/228/603 
f 185/228/604 186/221/605 182/225/606 
f 181/224/607 184/227/608 187/218/609 
f 187/218/610 188/229/611 181/224/612 
f 184/227/613 183/226/614 189/230/615 
f 189/230/616 190/231/617 184/227/618 
f 183/226/619 182/225/620 191/232/621 
f 191/232/622 192/233/623 183/226/624 
s 4
f 195/235/625 196/236/626 193/234/627 
f 193/234/628 194/200/629 195/235/630 
s 2
f 194/200/631 193/234/632 197/237/633 
f 197/237/634 198/238/635 194/200/636 
f 193/234/637 196/236/638 199/229/639 
f 199/229/640 200/210/641 193/234/642 
f 196/236/643 195/235/644 201/239/645 
f 201/239/646 202/236/647 196/236/648 
f 195/235/649 194/200/650 203/231/651 
f 203/231/652 204/240/653 195/235/654 
s 4
f 207/207/655 208/212/656 205/211/657 
f 205/211/658 206/208/659 207/207/660 
s 2
f 208/212/661 207/207/662 209/209/663 
f 209/209/664 210/197/665 208/212/666 
f 207/207/667 206/208/668 211/241/669 
f 211/241/670 212/242/671 207/207/672 
f 206/208/673 205/211/674 213/233/675 
f 213/233/676 214/213/677 206/208/678 
f 205/211/679 208/212/680 215/194/681 
f 215/194/682 216/219/683 205/211/684 
usemtl datomVS_piston_texture
s 1
f 186/245/685 185/246/686 178/243/687 
f 178/243/688 177/244/689 186/245/690 
f 150/249/691 149/250/692 190/247/693 
f 190/247/694 189/248/695 150/249/696 
f 192/253/697 191/254/698 210/251/699 
f 210/251/700 209/252/701 192/253/702 
f 153/257/703 152/258/704 212/255/705 
f 212/255/706 211/256/707 153/257/708 
f 146/261/709 145/262/710 202/259/711 
f 202/259/712 201/260/713 146/261/714 
f 188/264/715 187/265/716 204/223/717 
f 204/223/718 203/263/719 188/264/720 
f 158/268/721 157/269/722 156/266/723 
f 156/266/724 155/267/725 158/268/726 
f 166/272/727 165/273/728 200/270/729 
f 200/270/730 199/271/731 166/272/732 
f 168/276/733 167/277/734 214/274/735 
f 214/274/736 213/275/737 168/276/738 
f 174/280/739 173/214/740 162/278/741 
f 162/278/742 161/279/743 174/280/744 
f 176/283/745 175/284/746 198/281/747 
f 198/281/748 197/282/749 176/283/750 
f 180/287/751 179/288/752 216/285/753 
f 216/285/754 215/286/755 180/287/756 
# 84 faces

#
# object Datom4678
#

v  -0.6386 -2.8192 1.5420
v  -2.8192 -0.6386 1.5420
v  -2.1807 -0.0001 1.5420
v  -0.0001 -2.1807 1.5420
v  -2.8192 -0.6385 1.5420
v  -2.8192 -0.6385 -1.5420
v  -2.1807 -0.0001 -1.5420
v  -2.8192 -0.6386 -1.5420
v  -0.6386 -2.8192 -1.5420
v  -0.0001 -2.1807 -1.5420
v  -0.6385 -2.8192 -1.5420
v  -0.6385 -2.8192 1.5420
v  1.5420 -5.0000 1.5420
v  1.5420 -5.0000 -1.5420
v  2.1807 -4.3613 -1.5420
v  2.1807 -4.3613 1.5420
v  5.0010 -1.5420 -1.5420
v  5.0010 -1.5420 1.5420
v  4.3613 -2.1807 1.5420
v  4.3613 -2.1807 -1.5420
v  4.3613 -2.1807 2.4452
v  2.1807 -4.3613 2.4452
v  2.1807 -4.3613 -2.4452
v  4.3613 -2.1807 -2.4452
v  4.3613 2.1807 1.5420
v  4.3613 2.1807 -1.5420
v  2.1807 4.3613 -1.5420
v  2.1807 4.3613 1.5420
v  5.0000 1.5420 1.5420
v  5.0000 1.5420 -1.5420
v  2.1807 4.3613 2.4452
v  4.3613 2.1807 2.4452
v  1.5420 5.0010 -1.5420
v  1.5420 5.0010 1.5420
v  4.3613 2.1807 -2.4452
v  2.1807 4.3613 -2.4452
v  -2.1807 4.3613 1.5420
v  -2.1807 4.3613 -1.5420
v  -4.3613 2.1807 -1.5420
v  -4.3613 2.1807 1.5420
v  -1.5420 5.0010 1.5420
v  -1.5420 5.0010 -1.5420
v  -4.3613 2.1807 2.4452
v  -2.1807 4.3613 2.4452
v  -5.0005 1.5420 -1.5420
v  -5.0005 1.5420 1.5420
v  -2.1807 4.3613 -2.4452
v  -4.3613 2.1807 -2.4452
v  2.1779 0.0000 4.6247
v  0.0000 2.1779 4.6247
v  -2.1779 0.0000 4.6247
v  0.0000 -2.1779 4.6247
v  2.8187 0.6387 4.6247
v  0.6387 2.8187 4.6247
v  0.6387 -2.8187 4.6247
v  2.8187 -0.6387 4.6247
v  -2.8187 -0.6387 4.6247
v  -0.6387 -2.8187 4.6247
v  -0.6387 2.8187 4.6247
v  -2.8187 0.6387 4.6247
v  2.1779 0.0000 -4.6247
v  0.0000 -2.1779 -4.6247
v  -2.1779 0.0000 -4.6247
v  0.0000 2.1779 -4.6247
v  -2.8187 0.6387 -4.6247
v  -0.6387 2.8187 -4.6247
v  -0.6387 -2.8187 -4.6247
v  -2.8187 -0.6387 -4.6247
v  2.8187 -0.6387 -4.6247
v  0.6387 -2.8187 -4.6247
v  0.6387 2.8187 -4.6247
v  2.8187 0.6387 -4.6247
# 72 vertices

vn -0.7071 -0.7071 0.0000
vn -0.7071 -0.7071 0.0000
vn -0.7071 -0.7071 0.0000
vn -0.7071 -0.7071 0.0000
vn -0.7071 -0.7071 0.0000
vn -0.7071 -0.7071 0.0000
vn -0.7071 -0.7071 0.0000
vn -0.7071 -0.7071 0.0000
vn -0.7071 -0.7071 0.0000
vn -0.7071 -0.7071 0.0000
vn -0.7071 -0.7071 0.0000
vn -0.7071 -0.7071 0.0000
vn -0.7071 -0.7071 0.0000
vn -0.7071 -0.7071 0.0000
vn -0.7071 -0.7071 0.0000
vn -0.7071 -0.7071 0.0000
vn -0.7071 -0.7071 0.0000
vn -0.7071 -0.7071 0.0000
vn -0.7071 -0.7071 0.0000
vn -0.7071 -0.7071 0.0000
vn -0.7071 -0.7071 0.0000
vn -0.7071 -0.7071 0.0000
vn -0.7071 -0.7071 0.0000
vn -0.7071 -0.7071 0.0000
vn -0.7071 -0.7071 0.0000
vn -0.7071 -0.7071 0.0000
vn -0.7071 -0.7071 0.0000
vn -0.7071 -0.7071 0.0000
vn -0.7071 -0.7071 0.0000
vn -0.7071 -0.7071 0.0000
vn 0.7071 -0.7071 0.0000
vn 0.7071 -0.7071 0.0000
vn 0.7071 -0.7071 0.0000
vn 0.7071 -0.7071 0.0000
vn 0.7071 -0.7071 0.0000
vn 0.7071 -0.7071 0.0000
vn 0.7066 -0.7077 0.0000
vn 0.7066 -0.7077 0.0000
vn 0.7066 -0.7077 0.0000
vn 0.7066 -0.7077 0.0000
vn 0.7066 -0.7077 0.0000
vn 0.7066 -0.7077 0.0000
vn 0.7071 -0.7071 0.0000
vn 0.7071 -0.7071 0.0000
vn 0.7071 -0.7071 0.0000
vn 0.7071 -0.7071 0.0000
vn 0.7071 -0.7071 0.0000
vn 0.7071 -0.7071 0.0000
vn 0.7071 -0.7071 0.0000
vn 0.7071 -0.7071 0.0000
vn 0.7071 -0.7071 0.0000
vn 0.7071 -0.7071 0.0000
vn 0.7071 -0.7071 0.0000
vn 0.7071 -0.7071 0.0000
vn 0.7071 -0.7071 0.0000
vn 0.7071 -0.7071 0.0000
vn 0.7071 -0.7071 0.0000
vn 0.7071 -0.7071 0.0000
vn 0.7071 -0.7071 0.0000
vn 0.7071 -0.7071 0.0000
vn 0.7071 0.7071 0.0000
vn 0.7071 0.7071 0.0000
vn 0.7071 0.7071 0.0000
vn 0.7071 0.7071 0.0000
vn 0.7071 0.7071 0.0000
vn 0.7071 0.7071 0.0000
vn 0.7071 0.7071 0.0000
vn 0.7071 0.7071 0.0000
vn 0.7071 0.7071 0.0000
vn 0.7071 0.7071 0.0000
vn 0.7071 0.7071 0.0000
vn 0.7071 0.7071 0.0000
vn 0.7071 0.7071 0.0000
vn 0.7071 0.7071 0.0000
vn 0.7071 0.7071 0.0000
vn 0.7071 0.7071 0.0000
vn 0.7071 0.7071 0.0000
vn 0.7071 0.7071 0.0000
vn 0.7077 0.7066 0.0000
vn 0.7077 0.7066 0.0000
vn 0.7077 0.7066 0.0000
vn 0.7077 0.7066 0.0000
vn 0.7077 0.7066 0.0000
vn 0.7077 0.7066 0.0000
vn 0.7071 0.7071 0.0000
vn 0.7071 0.7071 0.0000
vn 0.7071 0.7071 0.0000
vn 0.7071 0.7071 0.0000
vn 0.7071 0.7071 0.0000
vn 0.7071 0.7071 0.0000
vn -0.7071 0.7071 0.0000
vn -0.7071 0.7071 0.0000
vn -0.7071 0.7071 0.0000
vn -0.7071 0.7071 0.0000
vn -0.7071 0.7071 0.0000
vn -0.7071 0.7071 0.0000
vn -0.7077 0.7066 0.0000
vn -0.7077 0.7066 0.0000
vn -0.7077 0.7066 0.0000
vn -0.7077 0.7066 0.0000
vn -0.7077 0.7066 0.0000
vn -0.7077 0.7066 0.0000
vn -0.7071 0.7071 0.0000
vn -0.7071 0.7071 0.0000
vn -0.7071 0.7071 0.0000
vn -0.7071 0.7071 0.0000
vn -0.7071 0.7071 0.0000
vn -0.7071 0.7071 0.0000
vn -0.7068 0.7074 0.0000
vn -0.7068 0.7074 0.0000
vn -0.7068 0.7074 0.0000
vn -0.7068 0.7074 0.0000
vn -0.7068 0.7074 0.0000
vn -0.7068 0.7074 0.0000
vn -0.7071 0.7071 0.0000
vn -0.7071 0.7071 0.0000
vn -0.7071 0.7071 0.0000
vn -0.7071 0.7071 0.0000
vn -0.7071 0.7071 0.0000
vn -0.7071 0.7071 0.0000
vn 0.0000 0.0000 1.0000
vn 0.0000 0.0000 1.0000
vn 0.0000 0.0000 1.0000
vn 0.0000 0.0000 1.0000
vn 0.0000 0.0000 1.0000
vn 0.0000 0.0000 1.0000
vn 0.0000 0.0000 1.0000
vn 0.0000 0.0000 1.0000
vn 0.0000 0.0000 1.0000
vn 0.0000 0.0000 1.0000
vn 0.0000 0.0000 1.0000
vn 0.0000 0.0000 1.0000
vn 0.0000 0.0000 1.0000
vn 0.0000 0.0000 1.0000
vn 0.0000 0.0000 1.0000
vn 0.0000 0.0000 1.0000
vn 0.0000 0.0000 1.0000
vn 0.0000 0.0000 1.0000
vn 0.0000 0.0000 1.0000
vn 0.0000 0.0000 1.0000
vn 0.0000 0.0000 1.0000
vn 0.0000 0.0000 1.0000
vn 0.0000 0.0000 1.0000
vn 0.0000 0.0000 1.0000
vn 0.0000 0.0000 1.0000
vn 0.0000 0.0000 1.0000
vn 0.0000 0.0000 1.0000
vn 0.0000 0.0000 1.0000
vn 0.0000 0.0000 1.0000
vn 0.0000 0.0000 1.0000
vn 0.0000 0.0000 -1.0000
vn 0.0000 0.0000 -1.0000
vn 0.0000 0.0000 -1.0000
vn 0.0000 0.0000 -1.0000
vn 0.0000 0.0000 -1.0000
vn 0.0000 0.0000 -1.0000
vn 0.0000 0.0000 -1.0000
vn 0.0000 0.0000 -1.0000
vn 0.0000 0.0000 -1.0000
vn 0.0000 0.0000 -1.0000
vn 0.0000 0.0000 -1.0000
vn 0.0000 0.0000 -1.0000
vn 0.0000 0.0000 -1.0000
vn 0.0000 0.0000 -1.0000
vn 0.0000 0.0000 -1.0000
vn 0.0000 0.0000 -1.0000
vn 0.0000 0.0000 -1.0000
vn 0.0000 0.0000 -1.0000
vn 0.0000 0.0000 -1.0000
vn 0.0000 0.0000 -1.0000
vn 0.0000 0.0000 -1.0000
vn 0.0000 0.0000 -1.0000
vn 0.0000 0.0000 -1.0000
vn 0.0000 0.0000 -1.0000
vn 0.0000 0.0000 -1.0000
vn 0.0000 0.0000 -1.0000
vn 0.0000 0.0000 -1.0000
vn 0.0000 0.0000 -1.0000
vn 0.0000 0.0000 -1.0000
vn 0.0000 0.0000 -1.0000
vn 0.0000 1.0000 0.0000
vn 0.0000 1.0000 0.0000
vn 0.0000 1.0000 0.0000
vn 0.0000 1.0000 0.0000
vn 0.0000 1.0000 0.0000
vn 0.0000 1.0000 0.0000
vn -1.0000 -0.0002 0.0000
vn -1.0000 -0.0002 0.0000
vn -1.0000 -0.0002 0.0000
vn -1.0000 -0.0002 0.0000
vn -1.0000 -0.0002 0.0000
vn -1.0000 -0.0002 0.0000
vn -0.4998 0.4998 -0.7074
vn -0.4998 0.4998 -0.7074
vn -0.4998 0.4998 -0.7074
vn -0.4998 0.4998 -0.7074
vn -0.4998 0.4998 -0.7074
vn -0.4998 0.4998 -0.7074
vn -0.4998 -0.4998 -0.7074
vn -0.4998 -0.4998 -0.7074
vn -0.4998 -0.4998 -0.7074
vn -0.4998 -0.4998 -0.7074
vn -0.4998 -0.4998 -0.7074
vn -0.4998 -0.4998 -0.7074
vn -0.4998 -0.4998 0.7074
vn -0.4998 -0.4998 0.7074
vn -0.4998 -0.4998 0.7074
vn -0.4998 -0.4998 0.7074
vn -0.4998 -0.4998 0.7074
vn -0.4998 -0.4998 0.7074
vn -0.4998 0.4998 0.7074
vn -0.4998 0.4998 0.7074
vn -0.4998 0.4998 0.7074
vn -0.4998 0.4998 0.7074
vn -0.4998 0.4998 0.7074
vn -0.4998 0.4998 0.7074
vn 0.0000 -1.0000 0.0000
vn 0.0000 -1.0000 0.0000
vn 0.0000 -1.0000 0.0000
vn 0.0000 -1.0000 0.0000
vn 0.0000 -1.0000 0.0000
vn 0.0000 -1.0000 0.0000
vn 0.4998 -0.4998 0.7074
vn 0.4998 -0.4998 0.7074
vn 0.4998 -0.4998 0.7074
vn 0.4998 -0.4998 0.7074
vn 0.4998 -0.4998 0.7074
vn 0.4998 -0.4998 0.7074
vn 0.4998 -0.4998 -0.7074
vn 0.4998 -0.4998 -0.7074
vn 0.4998 -0.4998 -0.7074
vn 0.4998 -0.4998 -0.7074
vn 0.4998 -0.4998 -0.7074
vn 0.4998 -0.4998 -0.7074
vn 1.0000 0.0003 0.0000
vn 1.0000 0.0003 0.0000
vn 1.0000 0.0003 0.0000
vn 1.0000 0.0003 0.0000
vn 1.0000 0.0003 0.0000
vn 1.0000 0.0003 0.0000
vn 0.4998 0.4998 0.7074
vn 0.4998 0.4998 0.7074
vn 0.4998 0.4998 0.7074
vn 0.4998 0.4998 0.7074
vn 0.4998 0.4998 0.7074
vn 0.4998 0.4998 0.7074
vn 0.4998 0.4998 -0.7074
vn 0.4998 0.4998 -0.7074
vn 0.4998 0.4998 -0.7074
vn 0.4998 0.4998 -0.7074
vn 0.4998 0.4998 -0.7074
vn 0.4998 0.4998 -0.7074
# 252 vertex normals

vt 0.8124 0.0908 0.0000
vt 0.8441 0.0554 0.0000
vt 0.5459 0.2385 0.0000
vt 0.6964 0.2385 0.0000
vt 0.8982 0.2072 0.0000
vt 0.9485 0.1531 0.0000
vt 0.5459 0.1359 0.0000
vt 0.0000 0.2500 0.0000
vt 0.0000 0.5000 0.0000
vt 0.6964 0.1359 0.0000
vt 1.0000 0.5000 0.0000
vt 0.2495 0.5000 0.0000
vt 0.7500 0.7500 0.0000
vt 1.0000 0.7500 0.0000
vt 0.0400 0.0000 0.0000
vt 0.2500 2.1245 0.0000
vt 0.9075 0.1968 0.0000
vt 0.8758 0.2072 0.0000
vt 0.2098 0.1240 0.0000
vt 0.2098 0.0000 0.0000
vt 0.9075 0.0832 0.0000
vt 0.0000 1.0000 0.0000
vt 0.2500 0.2500 0.0000
vt 0.2500 0.5000 0.0000
vt 0.8441 0.2072 0.0000
vt 0.8348 0.2072 0.0000
vt 0.8348 0.0451 0.0000
vt 0.8441 0.0450 0.0000
vt 0.5000 0.2503 0.0000
vt 0.0000 0.5000 0.0000
vt 1.0000 1.0000 0.0000
vt 0.5489 0.1280 0.0000
vt 0.4463 0.1240 0.0000
vt 0.4463 0.2490 0.0000
vt 0.7071 0.1280 0.0000
vt 0.7500 0.2503 0.0000
vt 0.8851 0.2072 0.0000
vt 0.5000 0.5000 0.0000
vt 0.5000 0.7497 0.0000
vt 0.8758 0.0450 0.0000
vt 0.8665 0.0451 0.0000
vt 0.5000 0.7500 0.0000
vt 0.2495 0.2500 0.0000
vt 0.2500 0.7500 0.0000
vt 0.9075 0.0450 0.0000
vt 0.8851 0.0451 0.0000
vt 0.0000 0.7500 0.0000
vt 0.7489 0.7497 0.0000
vt 1.0000 0.2500 0.0000
vt 0.7500 0.2500 0.0000
vt 0.5000 1.0000 0.0000
vt 0.5000 0.7501 0.0000
vt 0.2487 0.7501 0.0000
vt 0.2487 1.0000 0.0000
vt 0.5000 0.7497 0.0000
vt 0.5000 0.5000 0.0000
vt 0.7497 0.5000 0.0000
vt 0.7497 0.7497 0.0000
vt 0.7534 0.2454 0.0000
vt 1.0000 0.2454 0.0000
vt 1.0000 0.5000 0.0000
vt 0.7534 0.5000 0.0000
vt 0.0000 0.2594 0.0000
vt 0.2524 0.2594 0.0000
vt 0.2524 0.5000 0.0000
vt 0.0000 0.5000 0.0000
vt 0.2499 0.7489 0.0000
vt 0.0000 0.7489 0.0000
vt 0.0000 0.5000 0.0000
vt 0.2499 0.5000 0.0000
vt 0.7468 1.0000 0.0000
vt 0.7468 0.7509 0.0000
vt 1.0000 0.7509 0.0000
vt 0.7501 0.7505 0.0000
vt 0.7501 0.5000 0.0000
vt 0.9975 0.5000 0.0000
vt 0.9975 0.7505 0.0000
vt 0.5000 0.7499 0.0000
vt 0.2521 0.7499 0.0000
vt 0.2520 0.5000 0.0000
vt 0.5000 0.5000 0.0000
vt 0.2505 0.2584 0.0000
vt 0.5000 0.2584 0.0000
vt 0.5000 0.5000 0.0000
vt 0.2503 0.5000 0.0000
vt 0.2499 1.0000 0.0000
vt 0.2499 0.7493 0.0000
vt 0.0000 0.7493 0.0000
vt 0.7504 1.0002 0.0000
vt 0.5000 1.0002 0.0000
vt 0.5000 0.7503 0.0000
vt 0.7505 0.7503 0.0000
vt 0.5000 0.2394 0.0000
vt 0.7504 0.2394 0.0000
vt 0.7505 0.5000 0.0000
vt 0.5000 0.5000 0.0000
# 96 texture coords

o Datom4678
g Datom4678
usemtl datomVS_piston_lighted
s 2
f 219/291/757 220/292/758 217/289/759 
f 217/289/760 218/290/761 219/291/762 
f 223/295/763 219/291/764 221/293/765 
f 221/293/766 222/294/767 223/295/768 
f 226/298/769 223/295/770 224/296/771 
f 224/296/772 225/297/773 226/298/774 
f 220/292/775 226/298/776 227/299/777 
f 227/299/778 228/300/779 220/292/780 
s 4
f 223/295/781 226/298/782 220/292/783 
f 220/292/784 219/291/785 223/295/786 
s 2
f 231/303/787 232/304/788 229/301/789 
f 229/301/790 230/302/791 231/303/792 
f 235/307/793 236/308/794 233/305/795 
f 233/305/796 234/306/797 235/307/798 
f 232/304/799 235/307/800 237/309/801 
f 237/309/802 238/310/803 232/304/804 
f 236/308/805 231/303/806 239/311/807 
f 239/311/808 240/312/809 236/308/810 
s 4
f 236/308/811 235/307/812 232/304/813 
f 232/304/814 231/303/815 236/308/816 
f 243/308/817 244/307/818 241/304/819 
f 241/304/820 242/303/821 243/308/822 
s 2
f 242/303/823 241/304/824 245/313/825 
f 245/313/826 246/314/827 242/303/828 
f 241/304/829 244/307/830 247/315/831 
f 247/315/832 248/316/833 241/304/834 
f 244/307/835 243/308/836 249/312/837 
f 249/312/838 250/317/839 244/307/840 
f 243/308/841 242/303/842 251/318/843 
f 251/318/844 252/319/845 243/308/846 
s 4
f 255/322/847 256/323/848 253/320/849 
f 253/320/850 254/321/851 255/322/852 
s 2
f 254/321/853 253/320/854 257/324/855 
f 257/324/856 258/317/857 254/321/858 
f 253/320/859 256/323/860 259/314/861 
f 259/314/862 260/325/863 253/320/864 
f 256/323/865 255/322/866 261/326/867 
f 261/326/868 262/327/869 256/323/870 
f 255/322/871 254/321/872 263/328/873 
f 263/328/874 264/329/875 255/322/876 
s 4
f 267/331/877 268/332/878 265/330/879 
f 265/330/880 266/296/881 267/331/882 
s 2
f 266/296/883 265/330/884 269/333/885 
f 269/333/886 270/334/887 266/296/888 
f 265/330/889 268/332/890 271/325/891 
f 271/325/892 272/306/893 265/330/894 
f 268/332/895 267/331/896 273/335/897 
f 273/335/898 274/332/899 268/332/900 
f 267/331/901 266/296/902 275/327/903 
f 275/327/904 276/336/905 267/331/906 
s 4
f 279/303/907 280/308/908 277/307/909 
f 277/307/910 278/304/911 279/303/912 
s 2
f 280/308/913 279/303/914 281/305/915 
f 281/305/916 282/293/917 280/308/918 
f 279/303/919 278/304/920 283/337/921 
f 283/337/922 284/338/923 279/303/924 
f 278/304/925 277/307/926 285/329/927 
f 285/329/928 286/309/929 278/304/930 
f 277/307/931 280/308/932 287/290/933 
f 287/290/934 288/315/935 277/307/936 
usemtl datomVS_piston_texture
s 1
f 258/341/937 257/342/938 250/339/939 
f 250/339/940 249/340/941 258/341/942 
f 222/345/943 221/346/944 262/343/945 
f 262/343/946 261/344/947 222/345/948 
f 264/349/949 263/350/950 282/347/951 
f 282/347/952 281/348/953 264/349/954 
f 225/353/955 224/354/956 284/351/957 
f 284/351/958 283/352/959 225/353/960 
f 218/357/961 217/358/962 274/355/963 
f 274/355/964 273/356/965 218/357/966 
f 260/360/967 259/361/968 276/319/969 
f 276/319/970 275/359/971 260/360/972 
f 230/364/973 229/365/974 228/362/975 
f 228/362/976 227/363/977 230/364/978 
f 238/368/979 237/369/980 272/366/981 
f 272/366/982 271/367/983 238/368/984 
f 240/372/985 239/373/986 286/370/987 
f 286/370/988 285/371/989 240/372/990 
f 246/376/991 245/310/992 234/374/993 
f 234/374/994 233/375/995 246/376/996 
f 248/379/997 247/380/998 270/377/999 
f 270/377/1000 269/378/1001 248/379/1002 
f 252/383/1003 251/384/1004 288/381/1005 
f 288/381/1006 287/382/1007 252/383/1008 
# 84 faces

#
# object Datom2345
#

v  -2.1807 -4.3613 2.4452
v  -4.3613 -2.1807 2.4452
v  -4.3613 -2.1807 1.5420
v  -2.1807 -4.3613 1.5420
v  -5.0000 -1.5420 1.5420
v  -5.0000 -1.5420 -1.5420
v  -4.3613 -2.1807 -1.5420
v  -4.3613 -2.1807 -2.4452
v  -2.1807 -4.3613 -2.4452
v  -2.1807 -4.3613 -1.5420
v  -1.5420 -5.0000 -1.5420
v  -1.5420 -5.0000 1.5420
v  1.5420 -5.0000 1.5420
v  1.5420 -5.0000 -1.5420
v  2.1807 -4.3613 -1.5420
v  2.1807 -4.3613 1.5420
v  5.0010 -1.5420 -1.5420
v  5.0010 -1.5420 1.5420
v  4.3613 -2.1807 1.5420
v  4.3613 -2.1807 -1.5420
v  4.3613 -2.1807 2.4452
v  2.1807 -4.3613 2.4452
v  2.1807 -4.3613 -2.4452
v  4.3613 -2.1807 -2.4452
v  4.3613 2.1807 1.5420
v  4.3613 2.1807 -1.5420
v  2.1807 4.3613 -1.5420
v  2.1807 4.3613 1.5420
v  5.0000 1.5420 1.5420
v  5.0000 1.5420 -1.5420
v  2.1807 4.3613 2.4452
v  4.3613 2.1807 2.4452
v  1.5420 5.0010 -1.5420
v  1.5420 5.0010 1.5420
v  4.3613 2.1807 -2.4452
v  2.1807 4.3613 -2.4452
v  -2.1807 4.3613 1.5420
v  -2.1807 4.3613 -1.5420
v  -4.3613 2.1807 -1.5420
v  -4.3613 2.1807 1.5420
v  -1.5420 5.0010 1.5420
v  -1.5420 5.0010 -1.5420
v  -4.3613 2.1807 2.4452
v  -2.1807 4.3613 2.4452
v  -5.0005 1.5420 -1.5420
v  -5.0005 1.5420 1.5420
v  -2.1807 4.3613 -2.4452
v  -4.3613 2.1807 -2.4452
v  2.1779 0.0000 1.5420
v  0.0000 2.1779 1.5420
v  -2.1779 0.0000 1.5420
v  0.0000 -2.1779 1.5420
v  2.1804 0.0004 2.4450
v  0.0004 2.1804 2.4450
v  0.0004 -2.1804 2.4450
v  2.1804 -0.0004 2.4450
v  -2.1804 -0.0004 2.4450
v  -0.0004 -2.1804 2.4450
v  -0.0004 2.1804 2.4450
v  -2.1804 0.0004 2.4450
v  2.1779 0.0000 -4.6247
v  0.0000 -2.1779 -4.6247
v  -2.1779 0.0000 -4.6247
v  0.0000 2.1779 -4.6247
v  -2.8187 0.6387 -4.6247
v  -0.6387 2.8187 -4.6247
v  -0.6387 -2.8187 -4.6247
v  -2.8187 -0.6387 -4.6247
v  2.8187 -0.6387 -4.6247
v  0.6387 -2.8187 -4.6247
v  0.6387 2.8187 -4.6247
v  2.8187 0.6387 -4.6247
# 72 vertices

vn -0.7071 -0.7071 0.0000
vn -0.7071 -0.7071 0.0000
vn -0.7071 -0.7071 0.0000
vn -0.7071 -0.7071 0.0000
vn -0.7071 -0.7071 0.0000
vn -0.7071 -0.7071 0.0000
vn -0.7071 -0.7071 0.0000
vn -0.7071 -0.7071 0.0000
vn -0.7071 -0.7071 0.0000
vn -0.7071 -0.7071 0.0000
vn -0.7071 -0.7071 0.0000
vn -0.7071 -0.7071 0.0000
vn -0.7071 -0.7071 0.0000
vn -0.7071 -0.7071 0.0000
vn -0.7071 -0.7071 0.0000
vn -0.7071 -0.7071 0.0000
vn -0.7071 -0.7071 0.0000
vn -0.7071 -0.7071 0.0000
vn -0.7071 -0.7071 0.0000
vn -0.7071 -0.7071 0.0000
vn -0.7071 -0.7071 0.0000
vn -0.7071 -0.7071 0.0000
vn -0.7071 -0.7071 0.0000
vn -0.7071 -0.7071 0.0000
vn -0.7071 -0.7071 0.0000
vn -0.7071 -0.7071 0.0000
vn -0.7071 -0.7071 0.0000
vn -0.7071 -0.7071 0.0000
vn -0.7071 -0.7071 0.0000
vn -0.7071 -0.7071 0.0000
vn 0.7071 -0.7071 0.0000
vn 0.7071 -0.7071 0.0000
vn 0.7071 -0.7071 0.0000
vn 0.7071 -0.7071 0.0000
vn 0.7071 -0.7071 0.0000
vn 0.7071 -0.7071 0.0000
vn 0.7066 -0.7077 0.0000
vn 0.7066 -0.7077 0.0000
vn 0.7066 -0.7077 0.0000
vn 0.7066 -0.7077 0.0000
vn 0.7066 -0.7077 0.0000
vn 0.7066 -0.7077 0.0000
vn 0.7071 -0.7071 0.0000
vn 0.7071 -0.7071 0.0000
vn 0.7071 -0.7071 0.0000
vn 0.7071 -0.7071 0.0000
vn 0.7071 -0.7071 0.0000
vn 0.7071 -0.7071 0.0000
vn 0.7071 -0.7071 0.0000
vn 0.7071 -0.7071 0.0000
vn 0.7071 -0.7071 0.0000
vn 0.7071 -0.7071 0.0000
vn 0.7071 -0.7071 0.0000
vn 0.7071 -0.7071 0.0000
vn 0.7071 -0.7071 0.0000
vn 0.7071 -0.7071 0.0000
vn 0.7071 -0.7071 0.0000
vn 0.7071 -0.7071 0.0000
vn 0.7071 -0.7071 0.0000
vn 0.7071 -0.7071 0.0000
vn 0.7071 0.7071 0.0000
vn 0.7071 0.7071 0.0000
vn 0.7071 0.7071 0.0000
vn 0.7071 0.7071 0.0000
vn 0.7071 0.7071 0.0000
vn 0.7071 0.7071 0.0000
vn 0.7071 0.7071 0.0000
vn 0.7071 0.7071 0.0000
vn 0.7071 0.7071 0.0000
vn 0.7071 0.7071 0.0000
vn 0.7071 0.7071 0.0000
vn 0.7071 0.7071 0.0000
vn 0.7071 0.7071 0.0000
vn 0.7071 0.7071 0.0000
vn 0.7071 0.7071 0.0000
vn 0.7071 0.7071 0.0000
vn 0.7071 0.7071 0.0000
vn 0.7071 0.7071 0.0000
vn 0.7077 0.7066 0.0000
vn 0.7077 0.7066 0.0000
vn 0.7077 0.7066 0.0000
vn 0.7077 0.7066 0.0000
vn 0.7077 0.7066 0.0000
vn 0.7077 0.7066 0.0000
vn 0.7071 0.7071 0.0000
vn 0.7071 0.7071 0.0000
vn 0.7071 0.7071 0.0000
vn 0.7071 0.7071 0.0000
vn 0.7071 0.7071 0.0000
vn 0.7071 0.7071 0.0000
vn -0.7071 0.7071 0.0000
vn -0.7071 0.7071 0.0000
vn -0.7071 0.7071 0.0000
vn -0.7071 0.7071 0.0000
vn -0.7071 0.7071 0.0000
vn -0.7071 0.7071 0.0000
vn -0.7077 0.7066 0.0000
vn -0.7077 0.7066 0.0000
vn -0.7077 0.7066 0.0000
vn -0.7077 0.7066 0.0000
vn -0.7077 0.7066 0.0000
vn -0.7077 0.7066 0.0000
vn -0.7071 0.7071 0.0000
vn -0.7071 0.7071 0.0000
vn -0.7071 0.7071 0.0000
vn -0.7071 0.7071 0.0000
vn -0.7071 0.7071 0.0000
vn -0.7071 0.7071 0.0000
vn -0.7068 0.7074 0.0000
vn -0.7068 0.7074 0.0000
vn -0.7068 0.7074 0.0000
vn -0.7068 0.7074 0.0000
vn -0.7068 0.7074 0.0000
vn -0.7068 0.7074 0.0000
vn -0.7071 0.7071 0.0000
vn -0.7071 0.7071 0.0000
vn -0.7071 0.7071 0.0000
vn -0.7071 0.7071 0.0000
vn -0.7071 0.7071 0.0000
vn -0.7071 0.7071 0.0000
vn 0.0000 0.0000 1.0000
vn 0.0000 0.0000 1.0000
vn 0.0000 0.0000 1.0000
vn 0.0000 0.0000 1.0000
vn 0.0000 0.0000 1.0000
vn 0.0000 0.0000 1.0000
vn 0.0000 0.0000 1.0000
vn 0.0000 0.0000 1.0000
vn 0.0000 0.0000 1.0000
vn 0.0000 0.0000 1.0000
vn 0.0000 0.0000 1.0000
vn 0.0000 0.0000 1.0000
vn 0.0000 0.0000 1.0000
vn 0.0000 0.0000 1.0000
vn 0.0000 0.0000 1.0000
vn 0.0000 0.0000 1.0000
vn 0.0000 0.0000 1.0000
vn 0.0000 0.0000 1.0000
vn 0.0000 0.0000 1.0000
vn 0.0000 0.0000 1.0000
vn 0.0000 0.0000 1.0000
vn 0.0000 0.0000 1.0000
vn 0.0000 0.0000 1.0000
vn 0.0000 0.0000 1.0000
vn 0.0000 0.0000 1.0000
vn 0.0000 0.0000 1.0000
vn 0.0000 0.0000 1.0000
vn 0.0000 0.0000 1.0000
vn 0.0000 0.0000 1.0000
vn 0.0000 0.0000 1.0000
vn 0.0000 0.0000 -1.0000
vn 0.0000 0.0000 -1.0000
vn 0.0000 0.0000 -1.0000
vn 0.0000 0.0000 -1.0000
vn 0.0000 0.0000 -1.0000
vn 0.0000 0.0000 -1.0000
vn 0.0000 0.0000 -1.0000
vn 0.0000 0.0000 -1.0000
vn 0.0000 0.0000 -1.0000
vn 0.0000 0.0000 -1.0000
vn 0.0000 0.0000 -1.0000
vn 0.0000 0.0000 -1.0000
vn 0.0000 0.0000 -1.0000
vn 0.0000 0.0000 -1.0000
vn 0.0000 0.0000 -1.0000
vn 0.0000 0.0000 -1.0000
vn 0.0000 0.0000 -1.0000
vn 0.0000 0.0000 -1.0000
vn 0.0000 0.0000 -1.0000
vn 0.0000 0.0000 -1.0000
vn 0.0000 0.0000 -1.0000
vn 0.0000 0.0000 -1.0000
vn 0.0000 0.0000 -1.0000
vn 0.0000 0.0000 -1.0000
vn 0.0000 0.0000 -1.0000
vn 0.0000 0.0000 -1.0000
vn 0.0000 0.0000 -1.0000
vn 0.0000 0.0000 -1.0000
vn 0.0000 0.0000 -1.0000
vn 0.0000 0.0000 -1.0000
vn 0.0000 1.0000 0.0000
vn 0.0000 1.0000 0.0000
vn 0.0000 1.0000 0.0000
vn 0.0000 1.0000 0.0000
vn 0.0000 1.0000 0.0000
vn 0.0000 1.0000 0.0000
vn -1.0000 -0.0002 0.0000
vn -1.0000 -0.0002 0.0000
vn -1.0000 -0.0002 0.0000
vn -1.0000 -0.0002 0.0000
vn -1.0000 -0.0002 0.0000
vn -1.0000 -0.0002 0.0000
vn -0.4998 0.4998 -0.7074
vn -0.4998 0.4998 -0.7074
vn -0.4998 0.4998 -0.7074
vn -0.4998 0.4998 -0.7074
vn -0.4998 0.4998 -0.7074
vn -0.4998 0.4998 -0.7074
vn -0.4998 -0.4998 -0.7074
vn -0.4998 -0.4998 -0.7074
vn -0.4998 -0.4998 -0.7074
vn -0.4998 -0.4998 -0.7074
vn -0.4998 -0.4998 -0.7074
vn -0.4998 -0.4998 -0.7074
vn -0.4998 -0.4998 0.7074
vn -0.4998 -0.4998 0.7074
vn -0.4998 -0.4998 0.7074
vn -0.4998 -0.4998 0.7074
vn -0.4998 -0.4998 0.7074
vn -0.4998 -0.4998 0.7074
vn -0.4998 0.4998 0.7074
vn -0.4998 0.4998 0.7074
vn -0.4998 0.4998 0.7074
vn -0.4998 0.4998 0.7074
vn -0.4998 0.4998 0.7074
vn -0.4998 0.4998 0.7074
vn 0.0000 -1.0000 0.0000
vn 0.0000 -1.0000 0.0000
vn 0.0000 -1.0000 0.0000
vn 0.0000 -1.0000 0.0000
vn 0.0000 -1.0000 0.0000
vn 0.0000 -1.0000 0.0000
vn 0.4998 -0.4998 0.7074
vn 0.4998 -0.4998 0.7074
vn 0.4998 -0.4998 0.7074
vn 0.4998 -0.4998 0.7074
vn 0.4998 -0.4998 0.7074
vn 0.4998 -0.4998 0.7074
vn 0.4998 -0.4998 -0.7074
vn 0.4998 -0.4998 -0.7074
vn 0.4998 -0.4998 -0.7074
vn 0.4998 -0.4998 -0.7074
vn 0.4998 -0.4998 -0.7074
vn 0.4998 -0.4998 -0.7074
vn 1.0000 0.0003 0.0000
vn 1.0000 0.0003 0.0000
vn 1.0000 0.0003 0.0000
vn 1.0000 0.0003 0.0000
vn 1.0000 0.0003 0.0000
vn 1.0000 0.0003 0.0000
vn 0.4998 0.4998 0.7074
vn 0.4998 0.4998 0.7074
vn 0.4998 0.4998 0.7074
vn 0.4998 0.4998 0.7074
vn 0.4998 0.4998 0.7074
vn 0.4998 0.4998 0.7074
vn 0.4998 0.4998 -0.7074
vn 0.4998 0.4998 -0.7074
vn 0.4998 0.4998 -0.7074
vn 0.4998 0.4998 -0.7074
vn 0.4998 0.4998 -0.7074
vn 0.4998 0.4998 -0.7074
# 252 vertex normals

vt 0.8124 0.0908 0.0000
vt 0.8441 0.0554 0.0000
vt 0.5459 0.2385 0.0000
vt 0.6964 0.2385 0.0000
vt 0.8982 0.2072 0.0000
vt 0.9485 0.1531 0.0000
vt 0.5459 0.1359 0.0000
vt 0.0000 0.2500 0.0000
vt 0.0000 0.5000 0.0000
vt 0.6964 0.1359 0.0000
vt 1.0000 0.5000 0.0000
vt 0.2495 0.5000 0.0000
vt 0.7500 0.7500 0.0000
vt 1.0000 0.7500 0.0000
vt 0.0400 0.0000 0.0000
vt 0.2500 2.1245 0.0000
vt 0.9075 0.1968 0.0000
vt 0.8758 0.2072 0.0000
vt 0.2098 0.1240 0.0000
vt 0.2098 0.0000 0.0000
vt 0.9075 0.0832 0.0000
vt 0.0000 1.0000 0.0000
vt 0.2500 0.2500 0.0000
vt 0.2500 0.5000 0.0000
vt 0.8441 0.2072 0.0000
vt 0.8348 0.2072 0.0000
vt 0.8348 0.0451 0.0000
vt 0.8441 0.0450 0.0000
vt 0.5000 0.2503 0.0000
vt 0.0000 0.5000 0.0000
vt 1.0000 1.0000 0.0000
vt 0.5489 0.1280 0.0000
vt 0.4463 0.1240 0.0000
vt 0.4463 0.2490 0.0000
vt 0.7071 0.1280 0.0000
vt 0.7500 0.2503 0.0000
vt 0.8851 0.2072 0.0000
vt 0.5000 0.5000 0.0000
vt 0.5000 0.7497 0.0000
vt 0.8758 0.0450 0.0000
vt 0.8665 0.0451 0.0000
vt 0.5000 0.7500 0.0000
vt 0.2495 0.2500 0.0000
vt 0.2500 0.7500 0.0000
vt 0.9075 0.0450 0.0000
vt 0.8851 0.0451 0.0000
vt 0.0000 0.7500 0.0000
vt 0.7489 0.7497 0.0000
vt 1.0000 0.2500 0.0000
vt 0.7500 0.2500 0.0000
vt 0.5000 1.0000 0.0000
vt 0.5000 0.7501 0.0000
vt 0.2487 0.7501 0.0000
vt 0.2487 1.0000 0.0000
vt 0.5000 0.7497 0.0000
vt 0.5000 0.5000 0.0000
vt 0.7497 0.5000 0.0000
vt 0.7497 0.7497 0.0000
vt 0.7534 0.2454 0.0000
vt 1.0000 0.2454 0.0000
vt 1.0000 0.5000 0.0000
vt 0.7534 0.5000 0.0000
vt 0.0000 0.2594 0.0000
vt 0.2524 0.2594 0.0000
vt 0.2524 0.5000 0.0000
vt 0.0000 0.5000 0.0000
vt 0.2499 0.7489 0.0000
vt 0.0000 0.7489 0.0000
vt 0.0000 0.5000 0.0000
vt 0.2499 0.5000 0.0000
vt 0.7468 1.0000 0.0000
vt 0.7468 0.7509 0.0000
vt 1.0000 0.7509 0.0000
vt 0.7501 0.7505 0.0000
vt 0.7501 0.5000 0.0000
vt 0.9975 0.5000 0.0000
vt 0.9975 0.7505 0.0000
vt 0.5000 0.7499 0.0000
vt 0.2521 0.7499 0.0000
vt 0.2520 0.5000 0.0000
vt 0.5000 0.5000 0.0000
vt 0.2505 0.2584 0.0000
vt 0.5000 0.2584 0.0000
vt 0.5000 0.5000 0.0000
vt 0.2503 0.5000 0.0000
vt 0.2499 1.0000 0.0000
vt 0.2499 0.7493 0.0000
vt 0.0000 0.7493 0.0000
vt 0.7504 1.0002 0.0000
vt 0.5000 1.0002 0.0000
vt 0.5000 0.7503 0.0000
vt 0.7505 0.7503 0.0000
vt 0.5000 0.2394 0.0000
vt 0.7504 0.2394 0.0000
vt 0.7505 0.5000 0.0000
vt 0.5000 0.5000 0.0000
# 96 texture coords

o Datom2345
g Datom2345
usemtl datomVS_piston_lighted
s 2
f 291/387/1009 292/388/1010 289/385/1011 
f 289/385/1012 290/386/1013 291/387/1014 
f 295/391/1015 291/387/1016 293/389/1017 
f 293/389/1018 294/390/1019 295/391/1020 
f 298/394/1021 295/391/1022 296/392/1023 
f 296/392/1024 297/393/1025 298/394/1026 
f 292/388/1027 298/394/1028 299/395/1029 
f 299/395/1030 300/396/1031 292/388/1032 
s 4
f 295/391/1033 298/394/1034 292/388/1035 
f 292/388/1036 291/387/1037 295/391/1038 
s 2
f 303/399/1039 304/400/1040 301/397/1041 
f 301/397/1042 302/398/1043 303/399/1044 
f 307/403/1045 308/404/1046 305/401/1047 
f 305/401/1048 306/402/1049 307/403/1050 
f 304/400/1051 307/403/1052 309/405/1053 
f 309/405/1054 310/406/1055 304/400/1056 
f 308/404/1057 303/399/1058 311/407/1059 
f 311/407/1060 312/408/1061 308/404/1062 
s 4
f 308/404/1063 307/403/1064 304/400/1065 
f 304/400/1066 303/399/1067 308/404/1068 
f 315/404/1069 316/403/1070 313/400/1071 
f 313/400/1072 314/399/1073 315/404/1074 
s 2
f 314/399/1075 313/400/1076 317/409/1077 
f 317/409/1078 318/410/1079 314/399/1080 
f 313/400/1081 316/403/1082 319/411/1083 
f 319/411/1084 320/412/1085 313/400/1086 
f 316/403/1087 315/404/1088 321/408/1089 
f 321/408/1090 322/413/1091 316/403/1092 
f 315/404/1093 314/399/1094 323/414/1095 
f 323/414/1096 324/415/1097 315/404/1098 
s 4
f 327/418/1099 328/419/1100 325/416/1101 
f 325/416/1102 326/417/1103 327/418/1104 
s 2
f 326/417/1105 325/416/1106 329/420/1107 
f 329/420/1108 330/413/1109 326/417/1110 
f 325/416/1111 328/419/1112 331/410/1113 
f 331/410/1114 332/421/1115 325/416/1116 
f 328/419/1117 327/418/1118 333/422/1119 
f 333/422/1120 334/423/1121 328/419/1122 
f 327/418/1123 326/417/1124 335/424/1125 
f 335/424/1126 336/425/1127 327/418/1128 
s 4
f 339/427/1129 340/428/1130 337/426/1131 
f 337/426/1132 338/392/1133 339/427/1134 
s 2
f 338/392/1135 337/426/1136 341/429/1137 
f 341/429/1138 342/430/1139 338/392/1140 
f 337/426/1141 340/428/1142 343/421/1143 
f 343/421/1144 344/402/1145 337/426/1146 
f 340/428/1147 339/427/1148 345/431/1149 
f 345/431/1150 346/428/1151 340/428/1152 
f 339/427/1153 338/392/1154 347/423/1155 
f 347/423/1156 348/432/1157 339/427/1158 
s 4
f 351/399/1159 352/404/1160 349/403/1161 
f 349/403/1162 350/400/1163 351/399/1164 
s 2
f 352/404/1165 351/399/1166 353/401/1167 
f 353/401/1168 354/389/1169 352/404/1170 
f 351/399/1171 350/400/1172 355/433/1173 
f 355/433/1174 356/434/1175 351/399/1176 
f 350/400/1177 349/403/1178 357/425/1179 
f 357/425/1180 358/405/1181 350/400/1182 
f 349/403/1183 352/404/1184 359/386/1185 
f 359/386/1186 360/411/1187 349/403/1188 
usemtl datomVS_piston_texture
s 1
f 330/437/1189 329/438/1190 322/435/1191 
f 322/435/1192 321/436/1193 330/437/1194 
f 294/441/1195 293/442/1196 334/439/1197 
f 334/439/1198 333/440/1199 294/441/1200 
f 336/445/1201 335/446/1202 354/443/1203 
f 354/443/1204 353/444/1205 336/445/1206 
f 297/449/1207 296/450/1208 356/447/1209 
f 356/447/1210 355/448/1211 297/449/1212 
f 290/453/1213 289/454/1214 346/451/1215 
f 346/451/1216 345/452/1217 290/453/1218 
f 332/456/1219 331/457/1220 348/415/1221 
f 348/415/1222 347/455/1223 332/456/1224 
f 302/460/1225 301/461/1226 300/458/1227 
f 300/458/1228 299/459/1229 302/460/1230 
f 310/464/1231 309/465/1232 344/462/1233 
f 344/462/1234 343/463/1235 310/464/1236 
f 312/468/1237 311/469/1238 358/466/1239 
f 358/466/1240 357/467/1241 312/468/1242 
f 318/472/1243 317/406/1244 306/470/1245 
f 306/470/1246 305/471/1247 318/472/1248 
f 320/475/1249 319/476/1250 342/473/1251 
f 342/473/1252 341/474/1253 320/475/1254 
f 324/479/1255 323/480/1256 360/477/1257 
f 360/477/1258 359/478/1259 324/479/1260 
# 84 faces

#
# object Datom89AB
#

v  -2.1807 -4.3613 2.4452
v  -4.3613 -2.1807 2.4452
v  -4.3613 -2.1807 1.5420
v  -2.1807 -4.3613 1.5420
v  -5.0000 -1.5420 1.5420
v  -5.0000 -1.5420 -1.5420
v  -4.3613 -2.1807 -1.5420
v  -4.3613 -2.1807 -2.4452
v  -2.1807 -4.3613 -2.4452
v  -2.1807 -4.3613 -1.5420
v  -1.5420 -5.0000 -1.5420
v  -1.5420 -5.0000 1.5420
v  1.5420 -5.0000 1.5420
v  1.5420 -5.0000 -1.5420
v  2.1807 -4.3613 -1.5420
v  2.1807 -4.3613 1.5420
v  5.0010 -1.5420 -1.5420
v  5.0010 -1.5420 1.5420
v  4.3613 -2.1807 1.5420
v  4.3613 -2.1807 -1.5420
v  4.3613 -2.1807 2.4452
v  2.1807 -4.3613 2.4452
v  2.1807 -4.3613 -2.4452
v  4.3613 -2.1807 -2.4452
v  4.3613 2.1807 1.5420
v  4.3613 2.1807 -1.5420
v  2.1807 4.3613 -1.5420
v  2.1807 4.3613 1.5420
v  5.0000 1.5420 1.5420
v  5.0000 1.5420 -1.5420
v  2.1807 4.3613 2.4452
v  4.3613 2.1807 2.4452
v  1.5420 5.0010 -1.5420
v  1.5420 5.0010 1.5420
v  4.3613 2.1807 -2.4452
v  2.1807 4.3613 -2.4452
v  -2.1807 4.3613 1.5420
v  -2.1807 4.3613 -1.5420
v  -4.3613 2.1807 -1.5420
v  -4.3613 2.1807 1.5420
v  -1.5420 5.0010 1.5420
v  -1.5420 5.0010 -1.5420
v  -4.3613 2.1807 2.4452
v  -2.1807 4.3613 2.4452
v  -5.0005 1.5420 -1.5420
v  -5.0005 1.5420 1.5420
v  -2.1807 4.3613 -2.4452
v  -4.3613 2.1807 -2.4452
v  2.1779 0.0000 4.6247
v  0.0000 2.1779 4.6247
v  -2.1779 0.0000 4.6247
v  0.0000 -2.1779 4.6247
v  2.8187 0.6387 4.6247
v  0.6387 2.8187 4.6247
v  0.6387 -2.8187 4.6247
v  2.8187 -0.6387 4.6247
v  -2.8187 -0.6387 4.6247
v  -0.6387 -2.8187 4.6247
v  -0.6387 2.8187 4.6247
v  -2.8187 0.6387 4.6247
v  2.1779 -0.0000 -1.5420
v  -0.0000 -2.1779 -1.5420
v  -2.1779 -0.0000 -1.5420
v  0.0000 2.1779 -1.5420
v  -2.1804 0.0004 -2.4453
v  -0.0004 2.1804 -2.4453
v  -0.0004 -2.1804 -2.4453
v  -2.1804 -0.0004 -2.4453
v  2.8168 -0.6368 -2.4453
v  0.6368 -2.8168 -2.4453
v  0.0004 2.1804 -2.4453
v  2.1804 0.0004 -2.4453
# 72 vertices

vn -0.7071 -0.7071 0.0000
vn -0.7071 -0.7071 0.0000
vn -0.7071 -0.7071 0.0000
vn -0.7071 -0.7071 0.0000
vn -0.7071 -0.7071 0.0000
vn -0.7071 -0.7071 0.0000
vn -0.7071 -0.7071 0.0000
vn -0.7071 -0.7071 0.0000
vn -0.7071 -0.7071 0.0000
vn -0.7071 -0.7071 0.0000
vn -0.7071 -0.7071 0.0000
vn -0.7071 -0.7071 0.0000
vn -0.7071 -0.7071 0.0000
vn -0.7071 -0.7071 0.0000
vn -0.7071 -0.7071 0.0000
vn -0.7071 -0.7071 0.0000
vn -0.7071 -0.7071 0.0000
vn -0.7071 -0.7071 0.0000
vn -0.7071 -0.7071 0.0000
vn -0.7071 -0.7071 0.0000
vn -0.7071 -0.7071 0.0000
vn -0.7071 -0.7071 0.0000
vn -0.7071 -0.7071 0.0000
vn -0.7071 -0.7071 0.0000
vn -0.7071 -0.7071 0.0000
vn -0.7071 -0.7071 0.0000
vn -0.7071 -0.7071 0.0000
vn -0.7071 -0.7071 0.0000
vn -0.7071 -0.7071 0.0000
vn -0.7071 -0.7071 0.0000
vn 0.7071 -0.7071 0.0000
vn 0.7071 -0.7071 0.0000
vn 0.7071 -0.7071 0.0000
vn 0.7071 -0.7071 0.0000
vn 0.7071 -0.7071 0.0000
vn 0.7071 -0.7071 0.0000
vn 0.7066 -0.7077 0.0000
vn 0.7066 -0.7077 0.0000
vn 0.7066 -0.7077 0.0000
vn 0.7066 -0.7077 0.0000
vn 0.7066 -0.7077 0.0000
vn 0.7066 -0.7077 0.0000
vn 0.7071 -0.7071 0.0000
vn 0.7071 -0.7071 0.0000
vn 0.7071 -0.7071 0.0000
vn 0.7071 -0.7071 0.0000
vn 0.7071 -0.7071 0.0000
vn 0.7071 -0.7071 0.0000
vn 0.7071 -0.7071 0.0000
vn 0.7071 -0.7071 0.0000
vn 0.7071 -0.7071 0.0000
vn 0.7071 -0.7071 0.0000
vn 0.7071 -0.7071 0.0000
vn 0.7071 -0.7071 0.0000
vn 0.7071 -0.7071 0.0000
vn 0.7071 -0.7071 0.0000
vn 0.7071 -0.7071 0.0000
vn 0.7071 -0.7071 0.0000
vn 0.7071 -0.7071 0.0000
vn 0.7071 -0.7071 0.0000
vn 0.7071 0.7071 0.0000
vn 0.7071 0.7071 0.0000
vn 0.7071 0.7071 0.0000
vn 0.7071 0.7071 0.0000
vn 0.7071 0.7071 0.0000
vn 0.7071 0.7071 0.0000
vn 0.7071 0.7071 0.0000
vn 0.7071 0.7071 0.0000
vn 0.7071 0.7071 0.0000
vn 0.7071 0.7071 0.0000
vn 0.7071 0.7071 0.0000
vn 0.7071 0.7071 0.0000
vn 0.7071 0.7071 0.0000
vn 0.7071 0.7071 0.0000
vn 0.7071 0.7071 0.0000
vn 0.7071 0.7071 0.0000
vn 0.7071 0.7071 0.0000
vn 0.7071 0.7071 0.0000
vn 0.7077 0.7066 0.0000
vn 0.7077 0.7066 0.0000
vn 0.7077 0.7066 0.0000
vn 0.7077 0.7066 0.0000
vn 0.7077 0.7066 0.0000
vn 0.7077 0.7066 0.0000
vn 0.7071 0.7071 0.0000
vn 0.7071 0.7071 0.0000
vn 0.7071 0.7071 0.0000
vn 0.7071 0.7071 0.0000
vn 0.7071 0.7071 0.0000
vn 0.7071 0.7071 0.0000
vn -0.7071 0.7071 0.0000
vn -0.7071 0.7071 0.0000
vn -0.7071 0.7071 0.0000
vn -0.7071 0.7071 0.0000
vn -0.7071 0.7071 0.0000
vn -0.7071 0.7071 0.0000
vn -0.7077 0.7066 0.0000
vn -0.7077 0.7066 0.0000
vn -0.7077 0.7066 0.0000
vn -0.7077 0.7066 0.0000
vn -0.7077 0.7066 0.0000
vn -0.7077 0.7066 0.0000
vn -0.7071 0.7071 0.0000
vn -0.7071 0.7071 0.0000
vn -0.7071 0.7071 0.0000
vn -0.7071 0.7071 0.0000
vn -0.7071 0.7071 0.0000
vn -0.7071 0.7071 0.0000
vn -0.7068 0.7074 0.0000
vn -0.7068 0.7074 0.0000
vn -0.7068 0.7074 0.0000
vn -0.7068 0.7074 0.0000
vn -0.7068 0.7074 0.0000
vn -0.7068 0.7074 0.0000
vn -0.7071 0.7071 0.0000
vn -0.7071 0.7071 0.0000
vn -0.7071 0.7071 0.0000
vn -0.7071 0.7071 0.0000
vn -0.7071 0.7071 0.0000
vn -0.7071 0.7071 0.0000
vn 0.0000 0.0000 1.0000
vn 0.0000 0.0000 1.0000
vn 0.0000 0.0000 1.0000
vn 0.0000 0.0000 1.0000
vn 0.0000 0.0000 1.0000
vn 0.0000 0.0000 1.0000
vn 0.0000 0.0000 1.0000
vn 0.0000 0.0000 1.0000
vn 0.0000 0.0000 1.0000
vn 0.0000 0.0000 1.0000
vn 0.0000 0.0000 1.0000
vn 0.0000 0.0000 1.0000
vn 0.0000 0.0000 1.0000
vn 0.0000 0.0000 1.0000
vn 0.0000 0.0000 1.0000
vn 0.0000 0.0000 1.0000
vn 0.0000 0.0000 1.0000
vn 0.0000 0.0000 1.0000
vn 0.0000 0.0000 1.0000
vn 0.0000 0.0000 1.0000
vn 0.0000 0.0000 1.0000
vn 0.0000 0.0000 1.0000
vn 0.0000 0.0000 1.0000
vn 0.0000 0.0000 1.0000
vn 0.0000 0.0000 1.0000
vn 0.0000 0.0000 1.0000
vn 0.0000 0.0000 1.0000
vn 0.0000 0.0000 1.0000
vn 0.0000 0.0000 1.0000
vn 0.0000 0.0000 1.0000
vn 0.0000 0.0000 -1.0000
vn 0.0000 0.0000 -1.0000
vn 0.0000 0.0000 -1.0000
vn 0.0000 0.0000 -1.0000
vn 0.0000 0.0000 -1.0000
vn 0.0000 0.0000 -1.0000
vn 0.0000 0.0000 -1.0000
vn 0.0000 0.0000 -1.0000
vn 0.0000 0.0000 -1.0000
vn 0.0000 0.0000 -1.0000
vn 0.0000 0.0000 -1.0000
vn 0.0000 0.0000 -1.0000
vn 0.0000 0.0000 -1.0000
vn 0.0000 0.0000 -1.0000
vn 0.0000 0.0000 -1.0000
vn 0.0000 0.0000 -1.0000
vn 0.0000 0.0000 -1.0000
vn 0.0000 0.0000 -1.0000
vn 0.0000 0.0000 -1.0000
vn 0.0000 0.0000 -1.0000
vn 0.0000 0.0000 -1.0000
vn 0.0000 0.0000 -1.0000
vn 0.0000 0.0000 -1.0000
vn 0.0000 0.0000 -1.0000
vn 0.0000 0.0000 -1.0000
vn 0.0000 0.0000 -1.0000
vn 0.0000 0.0000 -1.0000
vn 0.0000 0.0000 -1.0000
vn 0.0000 0.0000 -1.0000
vn 0.0000 0.0000 -1.0000
vn 0.0000 1.0000 0.0000
vn 0.0000 1.0000 0.0000
vn 0.0000 1.0000 0.0000
vn 0.0000 1.0000 0.0000
vn 0.0000 1.0000 0.0000
vn 0.0000 1.0000 0.0000
vn -1.0000 -0.0002 0.0000
vn -1.0000 -0.0002 0.0000
vn -1.0000 -0.0002 0.0000
vn -1.0000 -0.0002 0.0000
vn -1.0000 -0.0002 0.0000
vn -1.0000 -0.0002 0.0000
vn -0.4998 0.4998 -0.7074
vn -0.4998 0.4998 -0.7074
vn -0.4998 0.4998 -0.7074
vn -0.4998 0.4998 -0.7074
vn -0.4998 0.4998 -0.7074
vn -0.4998 0.4998 -0.7074
vn -0.4998 -0.4998 -0.7074
vn -0.4998 -0.4998 -0.7074
vn -0.4998 -0.4998 -0.7074
vn -0.4998 -0.4998 -0.7074
vn -0.4998 -0.4998 -0.7074
vn -0.4998 -0.4998 -0.7074
vn -0.4998 -0.4998 0.7074
vn -0.4998 -0.4998 0.7074
vn -0.4998 -0.4998 0.7074
vn -0.4998 -0.4998 0.7074
vn -0.4998 -0.4998 0.7074
vn -0.4998 -0.4998 0.7074
vn -0.4998 0.4998 0.7074
vn -0.4998 0.4998 0.7074
vn -0.4998 0.4998 0.7074
vn -0.4998 0.4998 0.7074
vn -0.4998 0.4998 0.7074
vn -0.4998 0.4998 0.7074
vn 0.0000 -1.0000 0.0000
vn 0.0000 -1.0000 0.0000
vn 0.0000 -1.0000 0.0000
vn 0.0000 -1.0000 0.0000
vn 0.0000 -1.0000 0.0000
vn 0.0000 -1.0000 0.0000
vn 0.4998 -0.4998 0.7074
vn 0.4998 -0.4998 0.7074
vn 0.4998 -0.4998 0.7074
vn 0.4998 -0.4998 0.7074
vn 0.4998 -0.4998 0.7074
vn 0.4998 -0.4998 0.7074
vn 0.4998 -0.4998 -0.7074
vn 0.4998 -0.4998 -0.7074
vn 0.4998 -0.4998 -0.7074
vn 0.4998 -0.4998 -0.7074
vn 0.4998 -0.4998 -0.7074
vn 0.4998 -0.4998 -0.7074
vn 1.0000 0.0003 0.0000
vn 1.0000 0.0003 0.0000
vn 1.0000 0.0003 0.0000
vn 1.0000 0.0003 0.0000
vn 1.0000 0.0003 0.0000
vn 1.0000 0.0003 0.0000
vn 0.4998 0.4998 0.7074
vn 0.4998 0.4998 0.7074
vn 0.4998 0.4998 0.7074
vn 0.4998 0.4998 0.7074
vn 0.4998 0.4998 0.7074
vn 0.4998 0.4998 0.7074
vn 0.4998 0.4998 -0.7074
vn 0.4998 0.4998 -0.7074
vn 0.4998 0.4998 -0.7074
vn 0.4998 0.4998 -0.7074
vn 0.4998 0.4998 -0.7074
vn 0.4998 0.4998 -0.7074
# 252 vertex normals

vt 0.8124 0.0908 0.0000
vt 0.8441 0.0554 0.0000
vt 0.5459 0.2385 0.0000
vt 0.6964 0.2385 0.0000
vt 0.8982 0.2072 0.0000
vt 0.9485 0.1531 0.0000
vt 0.5459 0.1359 0.0000
vt 0.0000 0.2500 0.0000
vt 0.0000 0.5000 0.0000
vt 0.6964 0.1359 0.0000
vt 1.0000 0.5000 0.0000
vt 0.2495 0.5000 0.0000
vt 0.7500 0.7500 0.0000
vt 1.0000 0.7500 0.0000
vt 0.0400 0.0000 0.0000
vt 0.2500 2.1245 0.0000
vt 0.9075 0.1968 0.0000
vt 0.8758 0.2072 0.0000
vt 0.2098 0.1240 0.0000
vt 0.2098 0.0000 0.0000
vt 0.9075 0.0832 0.0000
vt 0.0000 1.0000 0.0000
vt 0.2500 0.2500 0.0000
vt 0.2500 0.5000 0.0000
vt 0.8441 0.2072 0.0000
vt 0.8348 0.2072 0.0000
vt 0.8348 0.0451 0.0000
vt 0.8441 0.0450 0.0000
vt 0.5000 0.2503 0.0000
vt 0.0000 0.5000 0.0000
vt 1.0000 1.0000 0.0000
vt 0.5489 0.1280 0.0000
vt 0.4463 0.1240 0.0000
vt 0.4463 0.2490 0.0000
vt 0.7071 0.1280 0.0000
vt 0.7500 0.2503 0.0000
vt 0.8851 0.2072 0.0000
vt 0.5000 0.5000 0.0000
vt 0.5000 0.7497 0.0000
vt 0.8758 0.0450 0.0000
vt 0.8665 0.0451 0.0000
vt 0.5000 0.7500 0.0000
vt 0.2495 0.2500 0.0000
vt 0.2500 0.7500 0.0000
vt 0.9075 0.0450 0.0000
vt 0.8851 0.0451 0.0000
vt 0.0000 0.7500 0.0000
vt 0.7489 0.7497 0.0000
vt 1.0000 0.2500 0.0000
vt 0.7500 0.2500 0.0000
vt 0.5000 1.0000 0.0000
vt 0.5000 0.7501 0.0000
vt 0.2487 0.7501 0.0000
vt 0.2487 1.0000 0.0000
vt 0.5000 0.7497 0.0000
vt 0.5000 0.5000 0.0000
vt 0.7497 0.5000 0.0000
vt 0.7497 0.7497 0.0000
vt 0.7534 0.2454 0.0000
vt 1.0000 0.2454 0.0000
vt 1.0000 0.5000 0.0000
vt 0.7534 0.5000 0.0000
vt 0.0000 0.2594 0.0000
vt 0.2524 0.2594 0.0000
vt 0.2524 0.5000 0.0000
vt 0.0000 0.5000 0.0000
vt 0.2499 0.7489 0.0000
vt 0.0000 0.7489 0.0000
vt 0.0000 0.5000 0.0000
vt 0.2499 0.5000 0.0000
vt 0.7468 1.0000 0.0000
vt 0.7468 0.7509 0.0000
vt 1.0000 0.7509 0.0000
vt 0.7501 0.7505 0.0000
vt 0.7501 0.5000 0.0000
vt 0.9975 0.5000 0.0000
vt 0.9975 0.7505 0.0000
vt 0.5000 0.7499 0.0000
vt 0.2521 0.7499 0.0000
vt 0.2520 0.5000 0.0000
vt 0.5000 0.5000 0.0000
vt 0.2505 0.2584 0.0000
vt 0.5000 0.2584 0.0000
vt 0.5000 0.5000 0.0000
vt 0.2503 0.5000 0.0000
vt 0.2499 1.0000 0.0000
vt 0.2499 0.7493 0.0000
vt 0.0000 0.7493 0.0000
vt 0.7504 1.0002 0.0000
vt 0.5000 1.0002 0.0000
vt 0.5000 0.7503 0.0000
vt 0.7505 0.7503 0.0000
vt 0.5000 0.2394 0.0000
vt 0.7504 0.2394 0.0000
vt 0.7505 0.5000 0.0000
vt 0.5000 0.5000 0.0000
# 96 texture coords

o Datom89AB
g Datom89AB
usemtl datomVS_piston_lighted
s 2
f 363/483/1261 364/484/1262 361/481/1263 
f 361/481/1264 362/482/1265 363/483/1266 
f 367/487/1267 363/483/1268 365/485/1269 
f 365/485/1270 366/486/1271 367/487/1272 
f 370/490/1273 367/487/1274 368/488/1275 
f 368/488/1276 369/489/1277 370/490/1278 
f 364/484/1279 370/490/1280 371/491/1281 
f 371/491/1282 372/492/1283 364/484/1284 
s 4
f 367/487/1285 370/490/1286 364/484/1287 
f 364/484/1288 363/483/1289 367/487/1290 
s 2
f 375/495/1291 376/496/1292 373/493/1293 
f 373/493/1294 374/494/1295 375/495/1296 
f 379/499/1297 380/500/1298 377/497/1299 
f 377/497/1300 378/498/1301 379/499/1302 
f 376/496/1303 379/499/1304 381/501/1305 
f 381/501/1306 382/502/1307 376/496/1308 
f 380/500/1309 375/495/1310 383/503/1311 
f 383/503/1312 384/504/1313 380/500/1314 
s 4
f 380/500/1315 379/499/1316 376/496/1317 
f 376/496/1318 375/495/1319 380/500/1320 
f 387/500/1321 388/499/1322 385/496/1323 
f 385/496/1324 386/495/1325 387/500/1326 
s 2
f 386/495/1327 385/496/1328 389/505/1329 
f 389/505/1330 390/506/1331 386/495/1332 
f 385/496/1333 388/499/1334 391/507/1335 
f 391/507/1336 392/508/1337 385/496/1338 
f 388/499/1339 387/500/1340 393/504/1341 
f 393/504/1342 394/509/1343 388/499/1344 
f 387/500/1345 386/495/1346 395/510/1347 
f 395/510/1348 396/511/1349 387/500/1350 
s 4
f 399/514/1351 400/515/1352 397/512/1353 
f 397/512/1354 398/513/1355 399/514/1356 
s 2
f 398/513/1357 397/512/1358 401/516/1359 
f 401/516/1360 402/509/1361 398/513/1362 
f 397/512/1363 400/515/1364 403/506/1365 
f 403/506/1366 404/517/1367 397/512/1368 
f 400/515/1369 399/514/1370 405/518/1371 
f 405/518/1372 406/519/1373 400/515/1374 
f 399/514/1375 398/513/1376 407/520/1377 
f 407/520/1378 408/521/1379 399/514/1380 
s 4
f 411/523/1381 412/524/1382 409/522/1383 
f 409/522/1384 410/488/1385 411/523/1386 
s 2
f 410/488/1387 409/522/1388 413/525/1389 
f 413/525/1390 414/526/1391 410/488/1392 
f 409/522/1393 412/524/1394 415/517/1395 
f 415/517/1396 416/498/1397 409/522/1398 
f 412/524/1399 411/523/1400 417/527/1401 
f 417/527/1402 418/524/1403 412/524/1404 
f 411/523/1405 410/488/1406 419/519/1407 
f 419/519/1408 420/528/1409 411/523/1410 
s 4
f 423/495/1411 424/500/1412 421/499/1413 
f 421/499/1414 422/496/1415 423/495/1416 
s 2
f 424/500/1417 423/495/1418 425/497/1419 
f 425/497/1420 426/485/1421 424/500/1422 
f 423/495/1423 422/496/1424 427/529/1425 
f 427/529/1426 428/530/1427 423/495/1428 
f 422/496/1429 421/499/1430 429/521/1431 
f 429/521/1432 430/501/1433 422/496/1434 
f 421/499/1435 424/500/1436 431/482/1437 
f 431/482/1438 432/507/1439 421/499/1440 
usemtl datomVS_piston_texture
s 1
f 402/533/1441 401/534/1442 394/531/1443 
f 394/531/1444 393/532/1445 402/533/1446 
f 366/537/1447 365/538/1448 406/535/1449 
f 406/535/1450 405/536/1451 366/537/1452 
f 408/541/1453 407/542/1454 426/539/1455 
f 426/539/1456 425/540/1457 408/541/1458 
f 369/545/1459 368/546/1460 428/543/1461 
f 428/543/1462 427/544/1463 369/545/1464 
f 362/549/1465 361/550/1466 418/547/1467 
f 418/547/1468 417/548/1469 362/549/1470 
f 404/552/1471 403/553/1472 420/511/1473 
f 420/511/1474 419/551/1475 404/552/1476 
f 374/556/1477 373/557/1478 372/554/1479 
f 372/554/1480 371/555/1481 374/556/1482 
f 382/560/1483 381/561/1484 416/558/1485 
f 416/558/1486 415/559/1487 382/560/1488 
f 384/564/1489 383/565/1490 430/562/1491 
f 430/562/1492 429/563/1493 384/564/1494 
f 390/568/1495 389/502/1496 378/566/1497 
f 378/566/1498 377/567/1499 390/568/1500 
f 392/571/1501 391/572/1502 414/569/1503 
f 414/569/1504 413/570/1505 392/571/1506 
f 396/575/1507 395/576/1508 432/573/1509 
f 432/573/1510 431/574/1511 396/575/1512 
# 84 faces

#
# object Datom136B
#

v  -2.1807 -4.3613 2.4452
v  -4.3613 -2.1807 2.4452
v  -4.3613 -2.1807 1.5420
v  -2.1807 -4.3613 1.5420
v  -5.0000 -1.5420 1.5420
v  -5.0000 -1.5420 -1.5420
v  -4.3613 -2.1807 -1.5420
v  -4.3613 -2.1807 -2.4452
v  -2.1807 -4.3613 -2.4452
v  -2.1807 -4.3613 -1.5420
v  -1.5420 -5.0000 -1.5420
v  -1.5420 -5.0000 1.5420
v  1.5420 -5.0000 1.5420
v  1.5420 -5.0000 -1.5420
v  2.1807 -4.3613 -1.5420
v  2.1807 -4.3613 1.5420
v  5.0010 -1.5420 -1.5420
v  5.0010 -1.5420 1.5420
v  4.3613 -2.1807 1.5420
v  4.3613 -2.1807 -1.5420
v  4.3613 -2.1807 2.4452
v  2.1807 -4.3613 2.4452
v  2.1807 -4.3613 -2.4452
v  4.3613 -2.1807 -2.4452
v  4.3613 2.1807 1.5420
v  4.3613 2.1807 -1.5420
v  2.1807 4.3613 -1.5420
v  2.1807 4.3613 1.5420
v  5.0000 1.5420 1.5420
v  5.0000 1.5420 -1.5420
v  2.1807 4.3613 2.4452
v  4.3613 2.1807 2.4452
v  1.5420 5.0010 -1.5420
v  1.5420 5.0010 1.5420
v  4.3613 2.1807 -2.4452
v  2.1807 4.3613 -2.4452
v  -0.0001 2.1807 1.5420
v  -0.0001 2.1807 -1.5420
v  -2.1807 0.0001 -1.5420
v  -2.1807 0.0001 1.5420
v  -0.6388 2.8195 1.5420
v  -0.6388 2.8195 -1.5420
v  -2.8190 0.6384 1.5420
v  -0.6384 2.8190 1.5420
v  -2.8193 0.6386 -1.5420
v  -2.8193 0.6386 1.5420
v  -0.6384 2.8190 -1.5420
v  -2.8190 0.6384 -1.5420
v  2.1779 0.0000 4.6247
v  0.0000 2.1779 4.6247
v  -2.1779 0.0000 4.6247
v  0.0000 -2.1779 4.6247
v  2.8187 0.6387 4.6247
v  0.6387 2.8187 4.6247
v  0.6387 -2.8187 4.6247
v  2.8187 -0.6387 4.6247
v  -2.8187 -0.6387 4.6247
v  -0.6387 -2.8187 4.6247
v  -0.6387 2.8187 4.6247
v  -2.8187 0.6387 4.6247
v  2.1779 0.0000 -4.6247
v  0.0000 -2.1779 -4.6247
v  -2.1779 0.0000 -4.6247
v  0.0000 2.1779 -4.6247
v  -2.8187 0.6387 -4.6247
v  -0.6387 2.8187 -4.6247
v  -0.6387 -2.8187 -4.6247
v  -2.8187 -0.6387 -4.6247
v  2.8187 -0.6387 -4.6247
v  0.6387 -2.8187 -4.6247
v  0.6387 2.8187 -4.6247
v  2.8187 0.6387 -4.6247
# 72 vertices

vn -0.7071 -0.7071 0.0000
vn -0.7071 -0.7071 0.0000
vn -0.7071 -0.7071 0.0000
vn -0.7071 -0.7071 0.0000
vn -0.7071 -0.7071 0.0000
vn -0.7071 -0.7071 0.0000
vn -0.7071 -0.7071 0.0000
vn -0.7071 -0.7071 0.0000
vn -0.7071 -0.7071 0.0000
vn -0.7071 -0.7071 0.0000
vn -0.7071 -0.7071 0.0000
vn -0.7071 -0.7071 0.0000
vn -0.7071 -0.7071 0.0000
vn -0.7071 -0.7071 0.0000
vn -0.7071 -0.7071 0.0000
vn -0.7071 -0.7071 0.0000
vn -0.7071 -0.7071 0.0000
vn -0.7071 -0.7071 0.0000
vn -0.7071 -0.7071 0.0000
vn -0.7071 -0.7071 0.0000
vn -0.7071 -0.7071 0.0000
vn -0.7071 -0.7071 0.0000
vn -0.7071 -0.7071 0.0000
vn -0.7071 -0.7071 0.0000
vn -0.7071 -0.7071 0.0000
vn -0.7071 -0.7071 0.0000
vn -0.7071 -0.7071 0.0000
vn -0.7071 -0.7071 0.0000
vn -0.7071 -0.7071 0.0000
vn -0.7071 -0.7071 0.0000
vn 0.7071 -0.7071 0.0000
vn 0.7071 -0.7071 0.0000
vn 0.7071 -0.7071 0.0000
vn 0.7071 -0.7071 0.0000
vn 0.7071 -0.7071 0.0000
vn 0.7071 -0.7071 0.0000
vn 0.7066 -0.7077 0.0000
vn 0.7066 -0.7077 0.0000
vn 0.7066 -0.7077 0.0000
vn 0.7066 -0.7077 0.0000
vn 0.7066 -0.7077 0.0000
vn 0.7066 -0.7077 0.0000
vn 0.7071 -0.7071 0.0000
vn 0.7071 -0.7071 0.0000
vn 0.7071 -0.7071 0.0000
vn 0.7071 -0.7071 0.0000
vn 0.7071 -0.7071 0.0000
vn 0.7071 -0.7071 0.0000
vn 0.7071 -0.7071 0.0000
vn 0.7071 -0.7071 0.0000
vn 0.7071 -0.7071 0.0000
vn 0.7071 -0.7071 0.0000
vn 0.7071 -0.7071 0.0000
vn 0.7071 -0.7071 0.0000
vn 0.7071 -0.7071 0.0000
vn 0.7071 -0.7071 0.0000
vn 0.7071 -0.7071 0.0000
vn 0.7071 -0.7071 0.0000
vn 0.7071 -0.7071 0.0000
vn 0.7071 -0.7071 0.0000
vn 0.7071 0.7071 0.0000
vn 0.7071 0.7071 0.0000
vn 0.7071 0.7071 0.0000
vn 0.7071 0.7071 0.0000
vn 0.7071 0.7071 0.0000
vn 0.7071 0.7071 0.0000
vn 0.7071 0.7071 0.0000
vn 0.7071 0.7071 0.0000
vn 0.7071 0.7071 0.0000
vn 0.7071 0.7071 0.0000
vn 0.7071 0.7071 0.0000
vn 0.7071 0.7071 0.0000
vn 0.7071 0.7071 0.0000
vn 0.7071 0.7071 0.0000
vn 0.7071 0.7071 0.0000
vn 0.7071 0.7071 0.0000
vn 0.7071 0.7071 0.0000
vn 0.7071 0.7071 0.0000
vn 0.7077 0.7066 0.0000
vn 0.7077 0.7066 0.0000
vn 0.7077 0.7066 0.0000
vn 0.7077 0.7066 0.0000
vn 0.7077 0.7066 0.0000
vn 0.7077 0.7066 0.0000
vn 0.7071 0.7071 0.0000
vn 0.7071 0.7071 0.0000
vn 0.7071 0.7071 0.0000
vn 0.7071 0.7071 0.0000
vn 0.7071 0.7071 0.0000
vn 0.7071 0.7071 0.0000
vn -0.7071 0.7071 0.0000
vn -0.7071 0.7071 0.0000
vn -0.7071 0.7071 0.0000
vn -0.7071 0.7071 0.0000
vn -0.7071 0.7071 0.0000
vn -0.7071 0.7071 0.0000
vn -0.7072 -0.7070 0.0000
vn -0.7072 -0.7070 0.0000
vn -0.7072 -0.7070 0.0000
vn -0.7072 -0.7070 0.0000
vn -0.7072 -0.7070 0.0000
vn -0.7072 -0.7070 0.0000
vn -0.5001 0.5001 -0.7069
vn -0.5001 0.5001 -0.7069
vn -0.5001 0.5001 -0.7069
vn -0.5001 0.5001 -0.7069
vn -0.5001 0.5001 -0.7069
vn -0.5001 0.5001 -0.7069
vn 0.7070 0.7072 0.0000
vn 0.7070 0.7072 0.0000
vn 0.7070 0.7072 0.0000
vn 0.7070 0.7072 0.0000
vn 0.7070 0.7072 0.0000
vn 0.7070 0.7072 0.0000
vn -0.5001 0.5001 0.7069
vn -0.5001 0.5001 0.7069
vn -0.5001 0.5001 0.7069
vn -0.5001 0.5001 0.7069
vn -0.5001 0.5001 0.7069
vn -0.5001 0.5001 0.7069
vn 0.0000 0.0000 1.0000
vn 0.0000 0.0000 1.0000
vn 0.0000 0.0000 1.0000
vn 0.0000 0.0000 1.0000
vn 0.0000 0.0000 1.0000
vn 0.0000 0.0000 1.0000
vn 0.0000 0.0000 1.0000
vn 0.0000 0.0000 1.0000
vn 0.0000 0.0000 1.0000
vn 0.0000 0.0000 1.0000
vn 0.0000 0.0000 1.0000
vn 0.0000 0.0000 1.0000
vn 0.0000 0.0000 1.0000
vn 0.0000 0.0000 1.0000
vn 0.0000 0.0000 1.0000
vn 0.0000 0.0000 1.0000
vn 0.0000 0.0000 1.0000
vn 0.0000 0.0000 1.0000
vn 0.0000 0.0000 1.0000
vn 0.0000 0.0000 1.0000
vn 0.0000 0.0000 1.0000
vn 0.0000 0.0000 1.0000
vn 0.0000 0.0000 1.0000
vn 0.0000 0.0000 1.0000
vn 0.0000 0.0000 1.0000
vn 0.0000 0.0000 1.0000
vn 0.0000 0.0000 1.0000
vn 0.0000 0.0000 1.0000
vn 0.0000 0.0000 1.0000
vn 0.0000 0.0000 1.0000
vn 0.0000 0.0000 -1.0000
vn 0.0000 0.0000 -1.0000
vn 0.0000 0.0000 -1.0000
vn 0.0000 0.0000 -1.0000
vn 0.0000 0.0000 -1.0000
vn 0.0000 0.0000 -1.0000
vn 0.0000 0.0000 -1.0000
vn 0.0000 0.0000 -1.0000
vn 0.0000 0.0000 -1.0000
vn 0.0000 0.0000 -1.0000
vn 0.0000 0.0000 -1.0000
vn 0.0000 0.0000 -1.0000
vn 0.0000 0.0000 -1.0000
vn 0.0000 0.0000 -1.0000
vn 0.0000 0.0000 -1.0000
vn 0.0000 0.0000 -1.0000
vn 0.0000 0.0000 -1.0000
vn 0.0000 0.0000 -1.0000
vn 0.0000 0.0000 -1.0000
vn 0.0000 0.0000 -1.0000
vn 0.0000 0.0000 -1.0000
vn 0.0000 0.0000 -1.0000
vn 0.0000 0.0000 -1.0000
vn 0.0000 0.0000 -1.0000
vn 0.0000 0.0000 -1.0000
vn 0.0000 0.0000 -1.0000
vn 0.0000 0.0000 -1.0000
vn 0.0000 0.0000 -1.0000
vn 0.0000 0.0000 -1.0000
vn 0.0000 0.0000 -1.0000
vn -0.7072 0.7070 0.0000
vn -0.7072 0.7070 0.0000
vn -0.7072 0.7070 0.0000
vn -0.7072 0.7070 0.0000
vn -0.7072 0.7070 0.0000
vn -0.7072 0.7070 0.0000
vn -0.7071 0.7071 0.0000
vn -0.7071 0.7071 0.0000
vn -0.7071 0.7071 0.0000
vn -0.7071 0.7071 0.0000
vn -0.7071 0.7071 0.0000
vn -0.7071 0.7071 0.0000
vn -0.7071 0.7071 0.0000
vn -0.7071 0.7071 0.0000
vn -0.7071 0.7071 0.0000
vn -0.7071 0.7071 0.0000
vn -0.7071 0.7071 0.0000
vn -0.7071 0.7071 0.0000
vn -0.4998 -0.4998 -0.7074
vn -0.4998 -0.4998 -0.7074
vn -0.4998 -0.4998 -0.7074
vn -0.4998 -0.4998 -0.7074
vn -0.4998 -0.4998 -0.7074
vn -0.4998 -0.4998 -0.7074
vn -0.4998 -0.4998 0.7074
vn -0.4998 -0.4998 0.7074
vn -0.4998 -0.4998 0.7074
vn -0.4998 -0.4998 0.7074
vn -0.4998 -0.4998 0.7074
vn -0.4998 -0.4998 0.7074
vn -0.7071 0.7071 -0.0000
vn -0.7071 0.7071 -0.0000
vn -0.7071 0.7071 -0.0000
vn -0.7071 0.7071 -0.0000
vn -0.7071 0.7071 -0.0000
vn -0.7071 0.7071 -0.0000
vn 0.0000 -1.0000 0.0000
vn 0.0000 -1.0000 0.0000
vn 0.0000 -1.0000 0.0000
vn 0.0000 -1.0000 0.0000
vn 0.0000 -1.0000 0.0000
vn 0.0000 -1.0000 0.0000
vn 0.4998 -0.4998 0.7074
vn 0.4998 -0.4998 0.7074
vn 0.4998 -0.4998 0.7074
vn 0.4998 -0.4998 0.7074
vn 0.4998 -0.4998 0.7074
vn 0.4998 -0.4998 0.7074
vn 0.4998 -0.4998 -0.7074
vn 0.4998 -0.4998 -0.7074
vn 0.4998 -0.4998 -0.7074
vn 0.4998 -0.4998 -0.7074
vn 0.4998 -0.4998 -0.7074
vn 0.4998 -0.4998 -0.7074
vn 1.0000 0.0003 0.0000
vn 1.0000 0.0003 0.0000
vn 1.0000 0.0003 0.0000
vn 1.0000 0.0003 0.0000
vn 1.0000 0.0003 0.0000
vn 1.0000 0.0003 0.0000
vn 0.4998 0.4998 0.7074
vn 0.4998 0.4998 0.7074
vn 0.4998 0.4998 0.7074
vn 0.4998 0.4998 0.7074
vn 0.4998 0.4998 0.7074
vn 0.4998 0.4998 0.7074
vn 0.4998 0.4998 -0.7074
vn 0.4998 0.4998 -0.7074
vn 0.4998 0.4998 -0.7074
vn 0.4998 0.4998 -0.7074
vn 0.4998 0.4998 -0.7074
vn 0.4998 0.4998 -0.7074
# 252 vertex normals

vt 0.8124 0.0908 0.0000
vt 0.8441 0.0554 0.0000
vt 0.5459 0.2385 0.0000
vt 0.6964 0.2385 0.0000
vt 0.8982 0.2072 0.0000
vt 0.9485 0.1531 0.0000
vt 0.5459 0.1359 0.0000
vt 0.0000 0.2500 0.0000
vt 0.0000 0.5000 0.0000
vt 0.6964 0.1359 0.0000
vt 1.0000 0.5000 0.0000
vt 0.2495 0.5000 0.0000
vt 0.7500 0.7500 0.0000
vt 1.0000 0.7500 0.0000
vt 0.0400 0.0000 0.0000
vt 0.2500 2.1245 0.0000
vt 0.9075 0.1968 0.0000
vt 0.8758 0.2072 0.0000
vt 0.2098 0.1240 0.0000
vt 0.2098 0.0000 0.0000
vt 0.9075 0.0832 0.0000
vt 0.0000 1.0000 0.0000
vt 0.2500 0.2500 0.0000
vt 0.2500 0.5000 0.0000
vt 0.8441 0.2072 0.0000
vt 0.8348 0.2072 0.0000
vt 0.8348 0.0451 0.0000
vt 0.8441 0.0450 0.0000
vt 0.5000 0.2503 0.0000
vt 0.0000 0.5000 0.0000
vt 1.0000 1.0000 0.0000
vt 0.5489 0.1280 0.0000
vt 0.4463 0.1240 0.0000
vt 0.4463 0.2490 0.0000
vt 0.7071 0.1280 0.0000
vt 0.7500 0.2503 0.0000
vt 0.8851 0.2072 0.0000
vt 0.5000 0.5000 0.0000
vt 0.5000 0.7497 0.0000
vt 0.8758 0.0450 0.0000
vt 0.8665 0.0451 0.0000
vt 0.5000 0.7500 0.0000
vt 0.2495 0.2500 0.0000
vt 0.2500 0.7500 0.0000
vt 0.9075 0.0450 0.0000
vt 0.8851 0.0451 0.0000
vt 0.0000 0.7500 0.0000
vt 0.7489 0.7497 0.0000
vt 1.0000 0.2500 0.0000
vt 0.7500 0.2500 0.0000
vt 0.5000 1.0000 0.0000
vt 0.5000 0.7501 0.0000
vt 0.2487 0.7501 0.0000
vt 0.2487 1.0000 0.0000
vt 0.5000 0.7497 0.0000
vt 0.5000 0.5000 0.0000
vt 0.7497 0.5000 0.0000
vt 0.7497 0.7497 0.0000
vt 0.7534 0.2454 0.0000
vt 1.0000 0.2454 0.0000
vt 1.0000 0.5000 0.0000
vt 0.7534 0.5000 0.0000
vt 0.0000 0.2594 0.0000
vt 0.2524 0.2594 0.0000
vt 0.2524 0.5000 0.0000
vt 0.0000 0.5000 0.0000
vt 0.2499 0.7489 0.0000
vt 0.0000 0.7489 0.0000
vt 0.0000 0.5000 0.0000
vt 0.2499 0.5000 0.0000
vt 0.7468 1.0000 0.0000
vt 0.7468 0.7509 0.0000
vt 1.0000 0.7509 0.0000
vt 0.7501 0.7505 0.0000
vt 0.7501 0.5000 0.0000
vt 0.9975 0.5000 0.0000
vt 0.9975 0.7505 0.0000
vt 0.5000 0.7499 0.0000
vt 0.2521 0.7499 0.0000
vt 0.2520 0.5000 0.0000
vt 0.5000 0.5000 0.0000
vt 0.2505 0.2584 0.0000
vt 0.5000 0.2584 0.0000
vt 0.5000 0.5000 0.0000
vt 0.2503 0.5000 0.0000
vt 0.2499 1.0000 0.0000
vt 0.2499 0.7493 0.0000
vt 0.0000 0.7493 0.0000
vt 0.7504 1.0002 0.0000
vt 0.5000 1.0002 0.0000
vt 0.5000 0.7503 0.0000
vt 0.7505 0.7503 0.0000
vt 0.5000 0.2394 0.0000
vt 0.7504 0.2394 0.0000
vt 0.7505 0.5000 0.0000
vt 0.5000 0.5000 0.0000
# 96 texture coords

o Datom136B
g Datom136B
usemtl datomVS_piston_lighted
s 2
f 435/579/1513 436/580/1514 433/577/1515 
f 433/577/1516 434/578/1517 435/579/1518 
f 439/583/1519 435/579/1520 437/581/1521 
f 437/581/1522 438/582/1523 439/583/1524 
f 442/586/1525 439/583/1526 440/584/1527 
f 440/584/1528 441/585/1529 442/586/1530 
f 436/580/1531 442/586/1532 443/587/1533 
f 443/587/1534 444/588/1535 436/580/1536 
s 4
f 439/583/1537 442/586/1538 436/580/1539 
f 436/580/1540 435/579/1541 439/583/1542 
s 2
f 447/591/1543 448/592/1544 445/589/1545 
f 445/589/1546 446/590/1547 447/591/1548 
f 451/595/1549 452/596/1550 449/593/1551 
f 449/593/1552 450/594/1553 451/595/1554 
f 448/592/1555 451/595/1556 453/597/1557 
f 453/597/1558 454/598/1559 448/592/1560 
f 452/596/1561 447/591/1562 455/599/1563 
f 455/599/1564 456/600/1565 452/596/1566 
s 4
f 452/596/1567 451/595/1568 448/592/1569 
f 448/592/1570 447/591/1571 452/596/1572 
f 459/596/1573 460/595/1574 457/592/1575 
f 457/592/1576 458/591/1577 459/596/1578 
s 2
f 458/591/1579 457/592/1580 461/601/1581 
f 461/601/1582 462/602/1583 458/591/1584 
f 457/592/1585 460/595/1586 463/603/1587 
f 463/603/1588 464/604/1589 457/592/1590 
f 460/595/1591 459/596/1592 465/600/1593 
f 465/600/1594 466/605/1595 460/595/1596 
f 459/596/1597 458/591/1598 467/606/1599 
f 467/606/1600 468/607/1601 459/596/1602 
s 4
f 471/610/1603 472/611/1604 469/608/1605 
f 469/608/1606 470/609/1607 471/610/1608 
s 2
f 470/609/1609 469/608/1610 473/612/1611 
f 473/612/1612 474/605/1613 470/609/1614 
f 469/608/1615 472/611/1616 475/602/1617 
f 475/602/1618 476/613/1619 469/608/1620 
f 472/611/1621 471/610/1622 477/614/1623 
f 477/614/1624 478/615/1625 472/611/1626 
f 471/610/1627 470/609/1628 479/616/1629 
f 479/616/1630 480/617/1631 471/610/1632 
s 4
f 483/619/1633 484/620/1634 481/618/1635 
f 481/618/1636 482/584/1637 483/619/1638 
s 2
f 482/584/1639 481/618/1640 485/621/1641 
f 485/621/1642 486/622/1643 482/584/1644 
f 481/618/1645 484/620/1646 487/613/1647 
f 487/613/1648 488/594/1649 481/618/1650 
f 484/620/1651 483/619/1652 489/623/1653 
f 489/623/1654 490/620/1655 484/620/1656 
f 483/619/1657 482/584/1658 491/615/1659 
f 491/615/1660 492/624/1661 483/619/1662 
s 4
f 495/591/1663 496/596/1664 493/595/1665 
f 493/595/1666 494/592/1667 495/591/1668 
s 2
f 496/596/1669 495/591/1670 497/593/1671 
f 497/593/1672 498/581/1673 496/596/1674 
f 495/591/1675 494/592/1676 499/625/1677 
f 499/625/1678 500/626/1679 495/591/1680 
f 494/592/1681 493/595/1682 501/617/1683 
f 501/617/1684 502/597/1685 494/592/1686 
f 493/595/1687 496/596/1688 503/578/1689 
f 503/578/1690 504/603/1691 493/595/1692 
usemtl datomVS_piston_texture
s 1
f 474/629/1693 473/630/1694 466/627/1695 
f 466/627/1696 465/628/1697 474/629/1698 
f 438/633/1699 437/634/1700 478/631/1701 
f 478/631/1702 477/632/1703 438/633/1704 
f 480/637/1705 479/638/1706 498/635/1707 
f 498/635/1708 497/636/1709 480/637/1710 
f 441/641/1711 440/642/1712 500/639/1713 
f 500/639/1714 499/640/1715 441/641/1716 
f 434/645/1717 433/646/1718 490/643/1719 
f 490/643/1720 489/644/1721 434/645/1722 
f 476/648/1723 475/649/1724 492/607/1725 
f 492/607/1726 491/647/1727 476/648/1728 
f 446/652/1729 445/653/1730 444/650/1731 
f 444/650/1732 443/651/1733 446/652/1734 
f 454/656/1735 453/657/1736 488/654/1737 
f 488/654/1738 487/655/1739 454/656/1740 
f 456/660/1741 455/661/1742 502/658/1743 
f 502/658/1744 501/659/1745 456/660/1746 
f 462/664/1747 461/598/1748 450/662/1749 
f 450/662/1750 449/663/1751 462/664/1752 
f 464/667/1753 463/668/1754 486/665/1755 
f 486/665/1756 485/666/1757 464/667/1758 
f 468/671/1759 467/672/1760 504/669/1761 
f 504/669/1762 503/670/1763 468/671/1764 
# 84 faces

