# 3ds Max Wavefront OBJ Exporter v0.99 - (c)2007 guruware
# File Created: 23.06.2023 00:04:29

mtllib thinker.mtl

#
# object Lowest_poly_thinker
#

v  45.9403 18.4458 64.8646
v  46.2709 14.4153 72.9449
v  50.4987 7.6730 63.5875
v  43.1942 20.1548 54.6389
v  50.4247 14.8382 54.3020
v  48.5636 21.7186 53.4548
v  31.4534 21.0320 15.7794
v  39.9770 20.3541 6.6327
v  36.0387 23.7570 15.0299
v  51.5455 13.4933 61.8038
v  52.3076 22.7372 35.0866
v  9.4210 7.6498 8.5780
v  9.2670 15.1015 21.1054
v  5.9294 26.3584 14.2913
v  27.1706 4.9597 56.4322
v  16.6276 11.9647 48.8141
v  21.8835 4.2541 32.1553
v  40.5672 23.5917 58.3679
v  40.0836 30.1800 64.3946
v  41.3049 22.6670 66.7368
v  54.9640 22.0913 65.8556
v  50.3425 17.8803 61.9579
v  56.0319 22.9037 58.9775
v  33.8377 26.7826 16.0418
v  27.3499 24.5108 15.3429
v  36.2856 24.2108 31.3018
v  34.5458 31.4739 70.9527
v  56.4569 21.9429 39.3816
v  55.4010 25.9194 35.3248
v  55.2459 27.2375 43.8778
v  36.2579 32.5352 59.8581
v  45.1007 29.6477 50.8454
v  36.2366 27.0419 5.6421
v  40.7093 24.4161 3.1261
v  23.9017 0.8042 3.1261
v  11.5187 2.9516 11.7405
v  25.9956 37.4539 4.4659
v  17.9213 33.0226 13.4530
v  24.4827 31.0720 12.3026
v  31.9072 4.4527 9.4477
v  27.7050 2.3593 15.1793
v  19.7021 30.5163 22.5469
v  34.3173 12.6466 14.6265
v  37.9282 12.5948 31.9055
v  37.4408 21.1184 30.3509
v  10.6135 10.8455 32.8528
v  9.7172 25.3848 30.6285
v  43.6331 3.2350 27.5161
v  49.7777 7.3694 22.7853
v  58.6849 3.5487 36.0732
v  44.4849 6.7744 31.7184
v  43.6590 10.8418 29.6335
v  39.1988 29.1510 30.5884
v  52.7725 29.1605 39.7080
v  18.3538 22.8747 45.4686
v  27.3187 27.9633 40.4765
v  19.7988 24.1010 31.6729
v  51.9630 24.0219 45.1831
v  41.9462 26.9260 45.0733
v  44.3081 21.6800 43.4684
v  46.0510 25.9718 48.6747
v  15.4815 15.2092 33.1508
v  21.4403 24.1760 61.9985
v  26.0015 12.0635 66.3452
v  41.1296 33.2929 46.1695
v  31.3696 7.4048 48.1532
v  41.3997 4.3255 63.5259
v  41.9656 13.2392 53.9967
v  36.1352 24.0192 55.5268
v  30.3160 28.7734 64.4345
v  38.1262 8.9706 71.5944
v  52.6447 26.7576 60.2323
v  48.1356 23.3597 64.2752
v  59.1028 17.5805 73.4403
v  50.0510 26.2880 72.1112
v  57.4874 25.3604 72.6509
v  52.8220 24.3839 79.7447
v  22.7740 31.0244 29.8089
v  34.2529 20.8830 75.0142
v  34.0279 2.5977 3.1261
v  29.3640 19.3031 44.3696
v  32.8428 1.6885 41.6377
v  34.3106 12.2923 40.7248
v  34.9068 5.4422 30.7884
v  31.5742 9.4511 11.1668
v  42.8120 10.3705 3.1261
v  41.9078 20.9162 74.2243
v  45.8298 5.0940 43.7843
v  46.8755 10.3239 32.8911
v  29.2256 37.1649 3.1261
v  54.7649 18.5566 80.0402
v  51.1071 23.2002 59.6155
v  58.1682 10.0377 37.0093
v  38.9830 8.1504 13.9920
v  41.2830 15.8905 6.8841
v  42.3195 11.7889 18.4575
v  6.1127 19.3020 3.1261
v  5.6264 24.0000 9.8155
v  6.3469 36.7451 3.1261
v  18.6290 39.2212 3.1261
v  10.6816 6.6010 26.5358
v  18.8510 10.9715 33.5956
v  34.6956 15.8475 37.5773
v  51.5069 19.1233 46.5200
v  9.9671 5.4846 3.1261
v  5.5627 19.3300 0.0392
v  9.5603 4.9992 0.0392
v  29.5344 37.8567 0.0392
v  41.4448 24.6341 0.0392
v  18.5440 39.9893 0.0392
v  5.8056 37.4212 0.0392
v  28.2993 25.4744 9.6251
v  16.7934 0.6729 3.1261
v  1.5373 27.2509 3.1261
v  57.1108 21.8028 37.5835
v  55.4137 20.6745 40.2509
v  45.7885 10.1539 31.7326
v  0.8173 27.5743 0.0392
v  24.0126 0.1449 0.0392
v  34.5151 2.0050 0.0392
v  43.6257 10.0667 0.0392
v  16.6402 0.0086 0.0392
# 122 vertices

vn 0.4611 0.6666 -0.5856
vn 0.2066 -0.6936 0.6902
vn 0.7687 -0.6328 0.0929
vn -0.0802 0.9594 -0.2705
vn 0.9304 -0.2948 -0.2178
vn -0.1958 -0.1570 0.9680
vn 0.9246 -0.3585 0.1289
vn 0.7956 0.2692 0.5427
vn 0.9841 -0.1552 -0.0861
vn 0.9284 0.2571 0.2681
vn 0.2962 -0.8763 -0.3799
vn -0.8905 -0.4530 0.0435
vn -0.9722 -0.2290 0.0482
vn -0.9010 0.3288 0.2829
vn -0.3250 -0.9188 0.2241
vn -0.9295 -0.3098 0.2003
vn -0.3189 -0.9345 0.1583
vn 0.9644 0.2270 -0.1358
vn 0.7773 0.5600 0.2866
vn 0.6733 0.7378 -0.0488
vn 0.8734 0.3444 -0.3443
vn -0.0751 -0.6959 -0.7142
vn 0.9727 -0.1853 -0.1399
vn 0.0673 0.9962 -0.0562
vn 0.4164 0.9052 0.0854
vn -0.2769 0.9597 0.0485
vn -0.0403 0.8043 0.5928
vn 0.9260 -0.1045 0.3629
vn 0.7851 0.3217 -0.5293
vn 0.8069 0.3368 0.4852
vn -0.1358 0.9907 -0.0021
vn 0.8065 0.2556 0.5331
vn 0.6058 0.6184 0.5006
vn 0.8173 0.4241 0.3900
vn 0.0651 -0.9760 0.2080
vn -0.6057 -0.7928 -0.0685
vn 0.2561 0.8257 0.5026
vn -0.0646 0.8979 0.4355
vn 0.5820 0.6684 0.4632
vn 0.6115 -0.6377 0.4684
vn 0.3667 -0.9276 0.0713
vn -0.2389 0.9643 0.1140
vn 0.8243 0.0296 0.5654
vn 0.8943 0.3544 -0.2730
vn 0.6670 -0.7312 -0.1428
vn -0.6515 -0.2546 0.7146
vn -0.6094 0.4627 0.6439
vn -0.4518 -0.8824 0.1310
vn 0.6923 -0.2046 -0.6919
vn 0.8001 -0.5899 0.1085
vn -0.6779 -0.6884 -0.2581
vn -0.5700 0.6868 0.4511
vn -0.3957 0.8757 0.2769
vn 0.3640 0.9225 -0.1287
vn -0.7274 0.6718 0.1395
vn -0.1563 0.9462 0.2835
vn -0.6747 0.6548 0.3406
vn 0.8679 -0.4208 0.2640
vn -0.8713 0.0843 0.4834
vn -0.1392 -0.9814 0.1320
vn -0.5157 0.1662 0.8405
vn -0.7114 0.1527 0.6860
vn -0.8129 0.4459 0.3748
vn -0.6618 -0.4260 0.6169
vn -0.3462 0.8268 -0.4434
vn 0.9285 -0.3701 -0.0303
vn 0.2033 -0.9779 0.0483
vn 0.2735 -0.5024 -0.8203
vn -0.1002 0.3163 -0.9433
vn -0.4627 0.8709 -0.1654
vn -0.0908 -0.6406 0.7625
vn 0.0345 0.9818 0.1870
vn -0.7049 0.6563 -0.2689
vn 0.8761 -0.4772 0.0694
vn -0.1658 0.9849 -0.0488
vn 0.7086 0.7054 -0.0182
vn 0.0797 0.5594 0.8251
vn 0.0892 0.8538 0.5129
vn -0.3001 0.0333 0.9533
vn 0.4192 -0.8549 0.3056
vn 0.6940 0.5815 0.4245
vn 0.1770 -0.9446 0.2763
vn 0.6699 0.4243 0.6093
vn 0.4173 -0.8260 -0.3788
vn 0.6362 -0.6745 0.3746
vn 0.8857 -0.3493 0.3058
vn -0.0938 0.3288 0.9397
vn 0.2046 -0.2068 0.9567
vn -0.0573 0.9959 -0.0698
vn 0.4572 0.7479 0.4813
vn 0.3414 -0.3639 0.8666
vn -0.8956 -0.2970 -0.3313
vn 0.7685 0.5787 0.2729
vn 0.1553 -0.9742 -0.1641
vn 0.8891 0.2224 0.4000
vn 0.5045 0.8180 -0.2764
vn -0.9254 -0.3479 0.1505
vn -0.9663 -0.1376 0.2176
vn -0.5422 0.7310 0.4144
vn -0.0320 0.7930 0.6084
vn -0.7258 -0.6580 0.2008
vn -0.6931 -0.4694 0.5470
vn 0.8857 -0.2381 0.3987
vn 0.6074 -0.6057 -0.5140
vn -0.7862 -0.5900 0.1837
vn -0.6742 -0.2877 -0.6802
vn -0.6699 -0.4831 -0.5637
vn 0.4079 0.7286 -0.5502
vn 0.7545 0.3502 -0.5551
vn -0.0055 0.8199 -0.5724
vn -0.5198 0.6808 -0.5162
vn 0.4468 0.6471 0.6177
vn -0.2124 -0.8552 0.4728
vn -0.9288 -0.0065 0.3704
vn 0.8770 -0.3958 -0.2725
vn 0.2219 -0.9104 0.3493
vn -0.7124 0.0944 0.6954
vn -0.8501 0.0025 -0.5266
vn 0.0772 -0.7889 -0.6097
vn 0.3672 -0.7428 -0.5598
vn 0.8086 -0.2947 -0.5092
vn -0.2407 -0.7925 -0.5603
# 122 vertex normals

vt 0.4612 0.8103 0.7742
vt 0.3603 0.9113 0.7798
vt 0.1917 0.7943 0.8524
vt 0.7271 0.5039 0.6825
vt 0.8511 0.3709 0.6783
vt 0.8192 0.5430 0.6677
vt 0.5256 0.1968 0.5258
vt 0.6719 0.0824 0.5089
vt 0.6043 0.1874 0.5940
vt 0.1297 0.7720 0.3373
vt 0.1489 0.6783 0.3709
vt 0.2729 0.6825 0.5039
vt 0.8834 0.4381 0.5685
vt 0.8089 0.1067 0.1476
vt 0.6225 0.2633 0.1450
vt 0.3409 0.1781 0.0877
vt 0.4521 0.7049 0.1238
vt 0.2713 0.6097 0.2990
vt 0.3614 0.4014 0.1062
vt 0.5899 0.7291 0.6820
vt 0.7546 0.8044 0.6737
vt 0.5667 0.8337 0.6946
vt 0.9290 0.8227 0.5523
vt 0.8497 0.7740 0.4470
vt 0.9473 0.7367 0.5727
vt 0.4335 0.2000 0.6697
vt 0.5448 0.1913 0.6129
vt 0.3915 0.3908 0.6053
vt 0.7870 0.8864 0.5787
vt 0.5486 0.4918 0.9546
vt 0.6481 0.4411 0.9365
vt 0.6811 0.5480 0.9338
vt 0.3919 0.7477 0.8136
vt 0.3263 0.8044 0.7546
vt 0.2402 0.6351 0.7413
vt 0.3923 0.0700 0.6762
vt 0.3281 0.0824 0.5089
vt 0.3156 0.0386 0.6105
vt 0.5089 0.0824 0.6719
vt 0.6762 0.0700 0.6077
vt 0.5940 0.1874 0.6043
vt 0.1476 0.1067 0.1911
vt 0.3961 0.0386 0.0199
vt 0.1836 0.1463 0.0736
vt 0.5680 0.0553 0.9366
vt 0.7065 0.1677 0.8257
vt 0.5940 0.1533 0.7770
vt 0.5334 0.1176 0.1112
vt 0.4613 0.1892 0.0588
vt 0.6697 0.2000 0.5665
vt 0.6760 0.2813 0.7631
vt 0.9264 0.1463 0.1836
vt 0.3161 0.1823 0.5748
vt 0.5258 0.1968 0.5256
vt 0.3148 0.3983 0.6367
vt 0.5280 0.3789 0.6283
vt 0.7289 0.4102 0.1681
vt 0.3653 0.3824 0.1527
vt 0.7346 0.3435 0.0807
vt 0.8400 0.2843 0.1841
vt 0.9928 0.4504 0.0885
vt 0.8308 0.3960 0.7492
vt 0.7290 0.3699 0.7350
vt 0.9193 0.3435 0.7346
vt 0.3415 0.3819 0.7289
vt 0.1086 0.4959 0.7291
vt 0.6991 0.5679 0.5719
vt 0.5453 0.5055 0.6992
vt 0.6743 0.3954 0.6026
vt 0.6006 0.5643 0.8775
vt 0.7056 0.5629 0.6733
vt 0.7462 0.5429 0.5420
vt 0.7761 0.6079 0.6494
vt 0.4281 0.5679 0.3009
vt 0.6198 0.4139 0.2516
vt 0.3955 0.7745 0.3538
vt 0.4580 0.5429 0.7462
vt 0.4961 0.6825 0.7271
vt 0.3506 0.6079 0.7761
vt 0.4321 0.8288 0.3015
vt 0.3084 0.5766 0.8325
vt 0.5242 0.6014 0.1850
vt 0.6963 0.7936 0.1080
vt 0.8524 0.7943 0.1917
vt 0.7060 0.6745 0.3309
vt 0.8511 0.6783 0.3709
vt 0.3994 0.6936 0.6059
vt 0.2805 0.8049 0.5061
vt 0.1675 0.5766 0.6916
vt 0.6401 0.8944 0.2242
vt 0.1108 0.7524 0.6690
vt 0.1882 0.8029 0.5841
vt 0.0710 0.8227 0.5523
vt 0.5523 0.8227 0.9290
vt 0.4395 0.9175 1.0000
vt 0.4470 0.7740 0.8497
vt 0.1553 0.9009 0.6573
vt 0.6341 0.9076 0.9723
vt 0.6097 0.9963 0.8922
vt 0.8473 0.3824 0.6347
vt 0.6233 0.3721 0.7758
vt 0.6401 0.2242 0.8944
vt 0.5737 0.5221 0.9372
vt 0.4321 0.3015 0.8288
vt 0.5698 0.0386 0.0648
vt 0.5102 0.5541 0.4826
vt 0.4939 0.8049 0.7195
vt 0.3941 0.6936 0.6006
vt 0.1850 0.6014 0.5242
vt 0.0420 0.5200 0.5495
vt 0.3072 0.5086 0.5746
vt 0.1359 0.3844 0.5849
vt 0.2362 0.1391 0.5277
vt 0.1112 0.1176 0.5334
vt 0.2592 0.0386 0.7205
vt 0.7050 0.5229 0.9273
vt 0.7798 0.3603 0.9113
vt 0.3941 0.6006 0.6936
vt 0.2729 0.5039 0.6825
vt 0.2940 0.3309 0.6745
vt 0.5495 0.0420 0.5200
vt 0.7723 0.1272 0.5468
vt 0.5746 0.3072 0.5086
vt 0.3633 0.3148 0.3983
vt 0.2098 0.2580 0.4106
vt 0.4151 0.1359 0.3844
vt 0.7205 0.0386 0.2592
vt 0.2950 0.9273 0.5229
vt 0.3054 0.8337 0.5667
vt 0.5126 0.0386 0.9294
vt 0.9256 1.0000 0.4639
vt 0.7798 0.9113 0.3603
vt 1.0000 0.9175 0.4395
vt 0.0662 0.5480 0.6811
vt 0.4159 0.8029 0.8118
vt 0.4199 0.7447 0.8628
vt 0.5530 0.7740 0.8497
vt 0.4254 0.5086 0.3072
vt 0.2277 0.5468 0.1272
vt 0.0160 0.4621 0.2508
vt 0.1503 0.4470 0.7740
vt 0.1372 0.5801 0.7447
vt 0.0527 0.5727 0.7367
vt 0.2036 0.1744 0.6548
vt 0.3972 0.0856 0.6943
vt 0.2946 0.2302 0.7120
vt 0.1841 0.2843 0.8400
vt 0.6283 0.3789 0.5280
vt 0.0885 0.4504 0.9928
vt 0.2508 0.4621 0.9840
vt 0.2098 0.4106 0.2580
vt 0.4213 0.8864 0.7870
vt 0.5174 0.0386 0.0909
vt 0.3999 0.1222 0.0825
vt 0.0811 0.0386 0.0949
vt 0.0949 0.9189 0.0386
vt 0.4320 0.9366 0.0553
vt 0.3056 0.9808 0.0386
vt 0.8351 0.3312 0.1692
vt 0.1692 0.3312 0.1649
vt 0.1681 0.4102 0.2711
vt 0.7010 0.6097 0.2713
vt 0.7258 0.4195 0.3094
vt 0.8938 0.4014 0.3614
vt 0.5748 0.1823 0.3161
vt 0.6548 0.1744 0.2036
vt 0.9365 0.4411 0.6481
vt 0.5812 0.4692 0.3962
vt 0.3633 0.3983 0.3148
vt 0.2944 0.5629 0.6733
vt 0.1225 0.6006 0.5643
vt 0.1303 0.4781 0.5810
vt 0.2538 0.5420 0.5429
vt 0.1225 0.5643 0.6006
vt 0.2239 0.6079 0.6494
vt 0.4570 0.6677 0.8192
vt 0.3310 0.7524 0.8892
vt 0.3962 0.4692 0.5812
vt 0.7413 0.6351 0.7598
vt 0.7598 0.7413 0.6351
vt 0.7761 0.6494 0.6079
vt 0.9338 0.6811 0.5480
vt 0.7598 0.6351 0.7413
vt 0.6820 0.7291 0.5899
vt 0.6059 0.6936 0.6006
vt 0.2258 0.4612 0.8103
vt 0.1882 0.5841 0.8029
vt 0.8630 0.0386 0.1570
vt 0.5167 0.0000 0.0814
vt 0.8752 0.0000 0.1500
vt 0.5073 0.0000 0.9467
vt 0.6159 0.0000 0.6970
vt 0.6105 0.0386 0.6844
vt 0.9051 0.0386 0.9189
vt 0.6959 0.0000 1.0000
vt 0.9144 0.0000 0.9358
vt 0.8775 0.6006 0.5643
vt 0.3180 0.7291 0.5899
vt 0.2508 0.1692 0.3960
vt 0.2258 0.8103 0.4612
vt 0.6129 0.1913 0.4552
vt 0.6370 0.1198 0.4715
vt 0.7770 0.1533 0.4060
vt 0.7056 0.6733 0.5629
vt 0.4898 0.4826 0.5541
vt 0.7462 0.5420 0.5429
vt 0.2741 0.0386 0.0166
vt 0.3186 0.0386 0.0124
vt 0.5277 0.1391 0.2362
vt 0.6077 0.6762 0.0700
vt 0.4060 0.7770 0.1533
vt 0.4715 0.6370 0.1198
vt 0.9123 0.1781 0.6591
vt 0.2650 0.3699 0.2710
vt 0.2880 0.2302 0.2946
vt 0.4252 0.1823 0.3161
vt 0.2711 0.3819 0.6585
vt 0.3303 0.2000 0.5665
vt 0.3947 0.3908 0.6085
vt 0.6839 0.1823 0.5748
vt 0.7492 0.3960 0.1692
vt 0.5451 0.4693 0.9658
vt 0.5495 0.5200 0.0420
vt 0.0635 0.4411 0.6481
vt 0.4898 0.5541 0.4826
vt 0.2944 0.6733 0.5629
vt 0.3084 0.8325 0.5766
vt 0.1086 0.7291 0.4959
vt 0.1238 0.7049 0.4521
vt 0.4758 0.1850 0.6014
vt 0.5102 0.4826 0.5541
vt 0.8697 0.5810 0.4781
vt 0.3309 0.6745 0.7060
vt 0.4826 0.5541 0.4898
vt 0.6006 0.6936 0.6059
vt 0.3267 0.5629 0.7056
vt 0.6691 0.6745 0.7060
vt 0.0527 0.7367 0.5727
vt 0.6985 0.8288 0.4321
vt 0.0277 0.9076 0.6341
vt 0.1078 0.9963 0.6097
vt 0.4639 1.0000 0.9256
vt 0.1681 0.2711 0.4102
vt 0.3767 0.7758 0.3721
vt 0.1527 0.6347 0.3824
vt 0.2516 0.3802 0.4139
vt 0.3974 0.3954 0.3257
vt 0.2242 0.3721 0.3767
vt 0.6462 0.7745 0.6045
vt 0.4779 0.9372 0.5737
vt 0.2130 0.8864 0.5787
vt 0.0588 0.1892 0.4613
vt 0.7758 0.3721 0.3767
vt 0.5849 0.3844 0.1359
vt 0.4547 0.6992 0.5055
vt 0.5787 0.7870 0.8864
vt 0.7723 0.5468 0.1272
vt 0.7050 0.9273 0.5229
vt 0.1808 0.6677 0.5430
vt 0.9256 0.4639 1.0000
vt 0.8922 0.6097 0.9963
vt 0.8775 0.5643 0.6006
vt 0.8628 0.7447 0.5801
vt 0.8192 0.6677 0.5430
vt 0.9840 0.2508 0.4621
vt 0.9928 0.0885 0.4504
vt 0.9658 0.4693 0.5451
vt 0.9367 0.5026 0.5169
vt 0.5169 0.5026 0.9367
vt 0.0635 0.6481 0.4411
vt 0.0342 0.5451 0.4693
vt 0.1166 0.5685 0.4381
vt 0.1600 0.2843 0.1841
vt 0.7420 0.4106 0.7902
vt 0.7462 0.3962 0.7716
vt 0.1570 0.0386 0.1370
vt 0.5285 0.1198 0.6370
vt 0.3057 0.0856 0.3972
vt 0.3614 0.1062 0.4014
vt 0.3094 0.2742 0.4195
vt 0.3094 0.4195 0.2742
vt 0.2516 0.4139 0.3802
vt 0.3957 0.1874 0.5940
vt 0.5727 0.7367 0.9473
vt 0.4781 0.5810 0.8697
vt 0.3709 0.6783 0.8511
vt 0.3373 0.7720 0.8703
vt 0.5388 0.8103 0.7742
vt 0.3427 0.9009 0.8447
vt 0.3257 0.6026 0.3954
vt 0.6085 0.6053 0.3908
vt 0.8703 0.3373 0.7720
vt 0.7742 0.4612 0.8103
vt 0.8524 0.1917 0.7943
vt 0.5430 0.6677 0.8192
vt 0.7742 0.8103 0.4612
vt 0.6944 0.0386 0.9808
vt 0.3105 0.0000 0.0000
vt 0.3980 0.0000 0.0034
vt 0.5782 0.0000 0.0499
vt 0.7345 0.0000 0.2516
vt 0.6959 1.0000 0.0000
vt 0.6020 0.0034 0.0000
vt 0.7285 0.0000 0.0000
vt 0.9144 0.9358 0.0000
vt 0.9186 0.4833 0.0000
vt 1.0000 0.6895 0.0000
vt 0.8500 0.1248 0.0000
vt 0.5073 0.9467 0.0000
vt 0.4218 0.0499 0.0000
vt 0.3030 0.6159 0.0000
vt 0.2655 0.2516 0.0000
vt 0.1500 0.0000 0.1248
vt 0.2715 0.0000 0.0000
vt 0.3030 0.0000 0.6159
vt 0.2516 0.0000 0.7345
vt 0.0642 0.0000 0.0856
# 317 texture coords

o Lowest_poly_thinker
g Lowest_poly_thinker
usemtl Material__2
f 1/1/1 2/2/2 3/3/3 
f 4/4/4 5/5/5 6/6/6 
f 7/7/7 8/8/8 9/9/9 
f 10/10/10 5/11/5 4/12/4 
f 7/7/7 9/9/9 11/13/11 
f 12/14/12 13/15/13 14/16/14 
f 15/17/15 16/18/16 17/19/17 
f 18/20/18 19/21/19 20/22/20 
f 21/23/21 22/24/22 23/25/23 
f 24/26/24 25/27/25 26/28/26 
f 27/29/27 20/22/20 19/21/19 
f 28/30/28 29/31/29 30/32/30 
f 31/33/31 19/34/19 32/35/32 
f 33/36/33 8/37/8 34/38/34 
f 8/39/8 33/40/33 9/41/9 
f 12/42/12 35/43/35 36/44/36 
f 37/45/37 38/46/38 39/47/39 
f 40/48/40 41/49/41 35/43/35 
f 24/50/24 9/41/9 33/40/33 
f 36/44/36 35/43/35 41/49/41 
f 42/51/42 39/47/39 38/46/38 
f 13/15/13 12/14/12 36/52/36 
f 43/53/43 7/54/7 44/55/44 
f 44/55/44 7/54/7 45/56/45 
f 46/57/46 14/16/14 13/15/13 
f 47/58/47 14/16/14 46/57/46 
f 48/59/48 49/60/49 50/61/50 
f 51/62/51 52/63/52 48/64/48 
f 53/65/53 26/28/26 54/66/54 
f 55/67/55 56/68/56 57/69/57 
f 30/32/30 58/70/58 28/30/28 
f 59/71/59 60/72/60 61/73/61 
f 55/74/55 62/75/62 63/76/63 
f 60/77/60 4/78/4 61/79/61 
f 15/17/15 64/80/64 16/18/16 
f 32/35/32 65/81/65 31/33/31 
f 66/82/66 67/83/67 15/17/15 
f 3/84/3 68/85/68 5/86/5 
f 69/87/69 70/88/70 65/89/65 
f 71/90/71 15/17/15 67/83/67 
f 72/91/72 73/92/73 21/93/21 
f 21/94/21 74/95/74 22/96/22 
f 73/92/73 75/97/75 21/93/21 
f 21/94/21 76/98/76 74/95/74 
f 77/99/77 74/95/74 76/98/76 
f 47/100/47 78/101/78 42/51/42 
f 71/102/71 79/103/79 64/104/64 
f 80/105/80 40/48/40 35/43/35 
f 81/106/81 56/68/56 55/67/55 
f 70/107/70 69/108/69 55/67/55 
f 66/109/66 82/110/82 83/111/83 
f 43/53/43 84/112/84 85/113/85 
f 85/113/85 40/114/40 86/115/86 
f 37/45/37 39/47/39 33/36/33 
f 26/28/26 25/27/25 78/101/78 
f 71/102/71 87/116/87 79/103/79 
f 2/117/2 87/116/87 71/102/71 
f 69/118/69 4/119/4 68/120/68 
f 82/121/82 88/122/88 83/123/83 
f 44/124/44 89/125/89 84/126/84 
f 80/105/80 86/127/86 40/48/40 
f 68/85/68 3/84/3 67/83/67 
f 87/128/87 75/97/75 20/129/20 
f 90/130/90 33/36/33 34/38/34 
f 91/131/91 2/132/2 74/133/74 
f 65/81/65 32/35/32 30/134/30 
f 73/135/73 92/136/92 22/137/22 
f 22/24/22 74/133/74 2/132/2 
f 83/138/83 88/139/88 93/140/93 
f 22/141/22 92/142/92 23/143/23 
f 94/144/94 86/115/86 95/145/95 
f 96/146/96 49/147/49 94/144/94 
f 45/148/45 7/7/7 11/13/11 
f 50/149/50 49/147/49 93/150/93 
f 93/140/93 89/151/89 83/138/83 
f 31/33/31 27/152/27 19/34/19 
f 97/153/97 12/14/12 98/154/98 
f 99/155/99 98/154/98 14/16/14 
f 12/14/12 14/16/14 98/154/98 
f 99/156/99 37/157/37 100/158/100 
f 36/52/36 101/159/101 13/15/13 
f 41/49/41 101/160/101 36/44/36 
f 25/27/25 24/26/24 33/36/33 
f 17/19/17 46/161/46 101/160/101 
f 16/162/16 102/163/102 17/164/17 
f 48/59/48 43/165/43 94/166/94 
f 9/9/9 29/167/29 11/13/11 
f 45/148/45 60/72/60 103/168/103 
f 83/138/83 89/151/89 44/169/44 
f 60/72/60 45/148/45 11/13/11 
f 54/66/54 56/68/56 59/170/59 
f 58/171/58 104/172/104 60/173/60 
f 72/91/72 58/174/58 61/175/61 
f 61/79/61 6/176/6 92/136/92 
f 72/177/72 92/136/92 73/135/73 
f 103/178/103 83/111/83 44/55/44 
f 43/53/43 95/145/95 8/39/8 
f 7/54/7 43/53/43 8/39/8 
f 19/21/19 18/20/18 32/179/32 
f 32/180/32 61/181/61 30/182/30 
f 32/183/32 18/184/18 59/71/59 
f 59/71/59 18/184/18 69/185/69 
f 22/141/22 1/186/1 73/187/73 
f 105/188/105 106/189/106 107/190/107 
f 34/38/34 108/191/108 90/130/90 
f 86/115/86 109/192/109 34/193/34 
f 99/194/99 110/195/110 111/196/111 
f 61/181/61 58/197/58 30/182/30 
f 4/12/4 18/198/18 10/10/10 
f 51/199/51 84/126/84 89/125/89 
f 18/198/18 20/129/20 1/200/1 
f 25/201/25 112/202/112 39/203/39 
f 95/145/95 86/115/86 34/193/34 
f 65/81/65 30/134/30 54/66/54 
f 59/204/59 81/205/81 60/206/60 
f 35/43/35 12/42/12 113/207/113 
f 98/154/98 99/155/99 114/208/114 
f 85/209/85 86/127/86 94/166/94 
f 33/210/33 39/211/39 112/212/112 
f 94/166/94 43/165/43 85/209/85 
f 14/213/14 42/51/42 38/46/38 
f 47/100/47 42/51/42 14/213/14 
f 52/214/52 96/215/96 43/216/43 
f 53/217/53 24/218/24 26/219/26 
f 44/55/44 84/112/84 43/53/43 
f 52/63/52 43/220/43 48/64/48 
f 46/57/46 13/15/13 101/159/101 
f 48/59/48 50/61/50 51/221/51 
f 53/65/53 54/66/54 24/26/24 
f 29/31/29 28/30/28 115/222/115 
f 26/28/26 57/69/57 56/68/56 
f 17/19/17 82/223/82 15/17/15 
f 54/66/54 26/28/26 56/68/56 
f 29/224/29 54/66/54 30/134/30 
f 81/225/81 103/168/103 60/72/60 
f 59/226/59 65/227/65 54/228/54 
f 66/109/66 15/229/15 82/110/82 
f 68/120/68 66/230/66 81/231/81 
f 104/232/104 68/85/68 60/72/60 
f 68/233/68 81/234/81 69/235/69 
f 59/236/59 69/87/69 65/89/65 
f 4/78/4 60/77/60 68/237/68 
f 104/232/104 5/86/5 68/85/68 
f 63/76/63 62/75/62 16/162/16 
f 72/91/72 21/93/21 23/238/23 
f 16/162/16 64/239/64 63/76/63 
f 71/90/71 64/80/64 15/17/15 
f 67/83/67 3/84/3 71/90/71 
f 75/97/75 1/200/1 20/129/20 
f 21/93/21 75/97/75 76/240/76 
f 77/241/77 75/97/75 87/128/87 
f 74/95/74 77/99/77 91/242/91 
f 46/243/46 78/244/78 47/245/47 
f 62/246/62 78/244/78 46/243/46 
f 57/247/57 78/248/78 62/75/62 
f 70/107/70 55/67/55 63/249/63 
f 79/250/79 63/76/63 64/239/64 
f 27/251/27 63/76/63 79/250/79 
f 42/51/42 78/101/78 39/47/39 
f 55/67/55 69/108/69 81/106/81 
f 40/114/40 85/113/85 41/252/41 
f 39/203/39 78/253/78 25/201/25 
f 63/249/63 27/152/27 70/107/70 
f 41/49/41 85/209/85 84/254/84 
f 82/223/82 17/19/17 84/254/84 
f 27/152/27 31/33/31 70/107/70 
f 103/178/103 81/234/81 83/111/83 
f 59/204/59 56/255/56 81/205/81 
f 79/103/79 87/116/87 27/256/27 
f 27/152/27 87/128/87 20/129/20 
f 67/83/67 66/82/66 68/85/68 
f 37/45/37 33/36/33 90/130/90 
f 71/90/71 3/84/3 2/132/2 
f 84/254/84 51/221/51 82/223/82 
f 82/223/82 51/221/51 50/61/50 
f 82/223/82 50/61/50 88/257/88 
f 91/131/91 87/258/87 2/132/2 
f 61/175/61 4/12/4 6/259/6 
f 87/116/87 91/260/91 77/261/77 
f 58/262/58 60/72/60 11/13/11 
f 92/263/92 6/264/6 23/25/23 
f 75/97/75 77/241/77 76/240/76 
f 93/265/93 88/122/88 50/266/50 
f 6/264/6 104/232/104 23/25/23 
f 115/267/115 116/268/116 11/13/11 
f 116/269/116 28/30/28 58/70/58 
f 28/30/28 116/269/116 115/222/115 
f 29/270/29 115/271/115 11/272/11 
f 95/145/95 96/146/96 94/144/94 
f 49/60/49 48/59/48 94/166/94 
f 96/215/96 93/140/93 49/273/49 
f 96/215/96 89/151/89 93/140/93 
f 52/214/52 89/151/89 96/215/96 
f 89/274/89 52/63/52 117/275/117 
f 83/111/83 81/234/81 66/109/66 
f 114/208/114 97/153/97 98/154/98 
f 97/153/97 105/188/105 12/14/12 
f 113/207/113 12/42/12 105/276/105 
f 14/213/14 38/46/38 99/194/99 
f 99/194/99 38/46/38 37/45/37 
f 112/277/112 25/27/25 33/36/33 
f 17/19/17 101/160/101 41/49/41 
f 84/254/84 17/19/17 41/49/41 
f 96/215/96 95/278/95 43/216/43 
f 17/279/17 102/280/102 46/243/46 
f 46/243/46 102/280/102 62/246/62 
f 62/75/62 55/74/55 57/247/57 
f 102/281/102 16/18/16 62/282/62 
f 24/26/24 29/224/29 9/283/9 
f 29/224/29 24/26/24 54/66/54 
f 31/33/31 65/81/65 70/107/70 
f 72/91/72 23/238/23 58/174/58 
f 58/70/58 23/284/23 104/285/104 
f 3/3/3 5/286/5 10/287/10 
f 72/177/72 61/79/61 92/136/92 
f 18/198/18 1/200/1 10/10/10 
f 73/135/73 1/288/1 75/289/75 
f 58/262/58 11/13/11 116/268/116 
f 117/275/117 51/62/51 89/274/89 
f 117/275/117 52/63/52 51/62/51 
f 57/290/57 26/291/26 78/244/78 
f 10/292/10 1/293/1 3/294/3 
f 103/178/103 44/55/44 45/56/45 
f 5/286/5 104/285/104 6/295/6 
f 32/183/32 59/71/59 61/73/61 
f 69/108/69 18/198/18 4/12/4 
f 22/24/22 2/132/2 1/296/1 
f 90/130/90 100/297/100 37/45/37 
f 114/208/114 106/189/106 97/153/97 
f 99/155/99 118/298/118 114/208/114 
f 113/207/113 119/299/119 35/43/35 
f 86/127/86 120/300/120 121/301/121 
f 100/297/100 108/191/108 110/195/110 
f 95/145/95 34/193/34 8/39/8 
f 110/302/110 119/303/119 122/304/122 
f 111/305/111 106/306/106 118/307/118 
f 107/308/107 106/306/106 111/305/111 
f 122/304/122 107/308/107 110/302/110 
f 110/302/110 108/309/108 120/310/120 
f 109/311/109 121/312/121 120/310/120 
f 109/311/109 120/310/120 108/309/108 
f 110/302/110 107/308/107 111/305/111 
f 120/310/120 119/303/119 110/302/110 
f 113/207/113 107/313/107 122/314/122 
f 80/105/80 119/299/119 120/300/120 
f 105/188/105 97/153/97 106/189/106 
f 34/38/34 109/315/109 108/191/108 
f 86/115/86 121/316/121 109/192/109 
f 99/194/99 100/297/100 110/195/110 
f 114/208/114 118/298/118 106/189/106 
f 99/155/99 111/317/111 118/298/118 
f 113/207/113 122/314/122 119/299/119 
f 86/127/86 80/105/80 120/300/120 
f 100/297/100 90/130/90 108/191/108 
f 113/207/113 105/276/105 107/313/107 
f 80/105/80 35/43/35 119/299/119 
# 0 polygons - 256 triangles

