# 3ds Max Wavefront OBJ Exporter v0.97b - (c)2007 guruware
# File Created: 24.06.2019 08:31:16

mtllib nodes2D_picking.mtl

#
# object nodes2D_picking
#

v  -0.0000 0.0000 0.0000
v  -4.7835 0.0000 0.9515
v  -0.0000 4.7835 0.9515
v  -8.8388 0.0000 3.6612
v  -5.1031 5.1031 2.2938
v  -0.0000 8.8388 3.6612
v  -11.5485 0.0000 7.7165
v  -9.4908 5.3351 6.3589
v  -5.3351 9.4908 6.3589
v  -0.0000 11.5485 7.7165
v  -12.5000 0.0000 12.5000
v  -11.5485 4.7835 12.5000
v  -8.8388 8.8388 12.5000
v  -4.7835 11.5485 12.5000
v  0.0000 12.5000 12.5000
v  4.7835 0.0000 0.9515
v  5.1031 5.1031 2.2938
v  8.8388 0.0000 3.6612
v  5.3351 9.4908 6.3589
v  9.4908 5.3351 6.3589
v  11.5485 0.0000 7.7165
v  4.7835 11.5485 12.5000
v  8.8388 8.8388 12.5000
v  11.5485 4.7835 12.5000
v  12.5000 0.0000 12.5000
v  -0.0000 -4.7835 0.9515
v  5.1031 -5.1031 2.2938
v  -0.0000 -8.8388 3.6612
v  9.4908 -5.3351 6.3589
v  5.3351 -9.4908 6.3589
v  -0.0000 -11.5485 7.7165
v  11.5485 -4.7835 12.5000
v  8.8388 -8.8388 12.5000
v  4.7835 -11.5485 12.5000
v  0.0000 -12.5000 12.5000
v  -5.1031 -5.1031 2.2938
v  -5.3351 -9.4908 6.3589
v  -9.4908 -5.3351 6.3589
v  -4.7835 -11.5485 12.5000
v  -8.8388 -8.8388 12.5000
v  -11.5485 -4.7835 12.5000
v  0.0000 0.0000 12.5000
v  -0.0000 12.5000 12.5000
v  -1.7321 9.0000 12.5000
v  -1.7321 9.0000 15.0000
v  -0.0000 12.5000 15.0000
v  1.7321 9.0000 12.5000
v  1.7321 9.0000 15.0000
# 48 vertices

vn -0.0000 0.0000 -1.0000
vn -0.3774 -0.0000 -0.9261
vn -0.0000 0.3774 -0.9261
vn -0.3774 -0.0000 -0.9261
vn -0.7046 -0.0000 -0.7096
vn -0.4143 0.4143 -0.8104
vn -0.3774 -0.0000 -0.9261
vn -0.4143 0.4143 -0.8104
vn -0.0000 0.3774 -0.9261
vn -0.0000 0.3774 -0.9261
vn -0.4143 0.4143 -0.8104
vn -0.0000 0.7046 -0.7096
vn -0.7046 -0.0000 -0.7096
vn -0.9272 -0.0000 -0.3746
vn -0.7616 0.4373 -0.4784
vn -0.7046 -0.0000 -0.7096
vn -0.7616 0.4373 -0.4784
vn -0.4143 0.4143 -0.8104
vn -0.4143 0.4143 -0.8104
vn -0.7616 0.4373 -0.4784
vn -0.4373 0.7616 -0.4784
vn -0.4143 0.4143 -0.8104
vn -0.4373 0.7616 -0.4784
vn -0.0000 0.7046 -0.7096
vn -0.0000 0.7046 -0.7096
vn -0.4373 0.7616 -0.4784
vn -0.0000 0.9272 -0.3746
vn -0.9272 -0.0000 -0.3746
vn -0.9808 -0.0000 -0.1951
vn -0.8960 0.3763 -0.2359
vn -0.9272 -0.0000 -0.3746
vn -0.8960 0.3763 -0.2359
vn -0.7616 0.4373 -0.4784
vn -0.7616 0.4373 -0.4784
vn -0.8960 0.3763 -0.2359
vn -0.6844 0.6844 -0.2515
vn -0.7616 0.4373 -0.4784
vn -0.6844 0.6844 -0.2515
vn -0.4373 0.7616 -0.4784
vn -0.4373 0.7616 -0.4784
vn -0.6844 0.6844 -0.2515
vn -0.3763 0.8960 -0.2359
vn -0.4373 0.7616 -0.4784
vn -0.3763 0.8960 -0.2359
vn -0.0000 0.9272 -0.3746
vn -0.0000 0.9272 -0.3746
vn -0.3763 0.8960 -0.2359
vn -0.0000 0.9808 -0.1951
vn -0.0000 0.0000 -1.0000
vn -0.0000 0.3774 -0.9261
vn 0.3774 0.0000 -0.9261
vn -0.0000 0.3774 -0.9261
vn -0.0000 0.7046 -0.7096
vn 0.4143 0.4143 -0.8104
vn -0.0000 0.3774 -0.9261
vn 0.4143 0.4143 -0.8104
vn 0.3774 0.0000 -0.9261
vn 0.3774 0.0000 -0.9261
vn 0.4143 0.4143 -0.8104
vn 0.7046 0.0000 -0.7096
vn -0.0000 0.7046 -0.7096
vn -0.0000 0.9272 -0.3746
vn 0.4373 0.7616 -0.4784
vn -0.0000 0.7046 -0.7096
vn 0.4373 0.7616 -0.4784
vn 0.4143 0.4143 -0.8104
vn 0.4143 0.4143 -0.8104
vn 0.4373 0.7616 -0.4784
vn 0.7616 0.4373 -0.4784
vn 0.4143 0.4143 -0.8104
vn 0.7616 0.4373 -0.4784
vn 0.7046 0.0000 -0.7096
vn 0.7046 0.0000 -0.7096
vn 0.7616 0.4373 -0.4784
vn 0.9272 0.0000 -0.3746
vn -0.0000 0.9272 -0.3746
vn -0.0000 0.9808 -0.1951
vn 0.3763 0.8960 -0.2359
vn -0.0000 0.9272 -0.3746
vn 0.3763 0.8960 -0.2359
vn 0.4373 0.7616 -0.4784
vn 0.4373 0.7616 -0.4784
vn 0.3763 0.8960 -0.2359
vn 0.6844 0.6844 -0.2515
vn 0.4373 0.7616 -0.4784
vn 0.6844 0.6844 -0.2515
vn 0.7616 0.4373 -0.4784
vn 0.7616 0.4373 -0.4784
vn 0.6844 0.6844 -0.2515
vn 0.8960 0.3763 -0.2359
vn 0.7616 0.4373 -0.4784
vn 0.8960 0.3763 -0.2359
vn 0.9272 0.0000 -0.3746
vn 0.9272 0.0000 -0.3746
vn 0.8960 0.3763 -0.2359
vn 0.9808 0.0000 -0.1951
vn -0.0000 0.0000 -1.0000
vn 0.3774 0.0000 -0.9261
vn -0.0000 -0.3774 -0.9261
vn 0.3774 0.0000 -0.9261
vn 0.7046 0.0000 -0.7096
vn 0.4143 -0.4143 -0.8104
vn 0.3774 0.0000 -0.9261
vn 0.4143 -0.4143 -0.8104
vn -0.0000 -0.3774 -0.9261
vn -0.0000 -0.3774 -0.9261
vn 0.4143 -0.4143 -0.8104
vn -0.0000 -0.7046 -0.7096
vn 0.7046 0.0000 -0.7096
vn 0.9272 0.0000 -0.3746
vn 0.7616 -0.4373 -0.4784
vn 0.7046 0.0000 -0.7096
vn 0.7616 -0.4373 -0.4784
vn 0.4143 -0.4143 -0.8104
vn 0.4143 -0.4143 -0.8104
vn 0.7616 -0.4373 -0.4784
vn 0.4373 -0.7616 -0.4784
vn 0.4143 -0.4143 -0.8104
vn 0.4373 -0.7616 -0.4784
vn -0.0000 -0.7046 -0.7096
vn -0.0000 -0.7046 -0.7096
vn 0.4373 -0.7616 -0.4784
vn -0.0000 -0.9272 -0.3746
vn 0.9272 0.0000 -0.3746
vn 0.9808 0.0000 -0.1951
vn 0.8960 -0.3763 -0.2359
vn 0.9272 0.0000 -0.3746
vn 0.8960 -0.3763 -0.2359
vn 0.7616 -0.4373 -0.4784
vn 0.7616 -0.4373 -0.4784
vn 0.8960 -0.3763 -0.2359
vn 0.6844 -0.6844 -0.2515
vn 0.7616 -0.4373 -0.4784
vn 0.6844 -0.6844 -0.2515
vn 0.4373 -0.7616 -0.4784
vn 0.4373 -0.7616 -0.4784
vn 0.6844 -0.6844 -0.2515
vn 0.3763 -0.8960 -0.2359
vn 0.4373 -0.7616 -0.4784
vn 0.3763 -0.8960 -0.2359
vn -0.0000 -0.9272 -0.3746
vn -0.0000 -0.9272 -0.3746
vn 0.3763 -0.8960 -0.2359
vn 0.0000 -0.9808 -0.1951
vn -0.0000 0.0000 -1.0000
vn -0.0000 -0.3774 -0.9261
vn -0.3774 -0.0000 -0.9261
vn -0.0000 -0.3774 -0.9261
vn -0.0000 -0.7046 -0.7096
vn -0.4143 -0.4143 -0.8104
vn -0.0000 -0.3774 -0.9261
vn -0.4143 -0.4143 -0.8104
vn -0.3774 -0.0000 -0.9261
vn -0.3774 -0.0000 -0.9261
vn -0.4143 -0.4143 -0.8104
vn -0.7046 -0.0000 -0.7096
vn -0.0000 -0.7046 -0.7096
vn -0.0000 -0.9272 -0.3746
vn -0.4373 -0.7616 -0.4784
vn -0.0000 -0.7046 -0.7096
vn -0.4373 -0.7616 -0.4784
vn -0.4143 -0.4143 -0.8104
vn -0.4143 -0.4143 -0.8104
vn -0.4373 -0.7616 -0.4784
vn -0.7616 -0.4373 -0.4784
vn -0.4143 -0.4143 -0.8104
vn -0.7616 -0.4373 -0.4784
vn -0.7046 -0.0000 -0.7096
vn -0.7046 -0.0000 -0.7096
vn -0.7616 -0.4373 -0.4784
vn -0.9272 -0.0000 -0.3746
vn -0.0000 -0.9272 -0.3746
vn 0.0000 -0.9808 -0.1951
vn -0.3763 -0.8960 -0.2359
vn -0.0000 -0.9272 -0.3746
vn -0.3763 -0.8960 -0.2359
vn -0.4373 -0.7616 -0.4784
vn -0.4373 -0.7616 -0.4784
vn -0.3763 -0.8960 -0.2359
vn -0.6844 -0.6844 -0.2515
vn -0.4373 -0.7616 -0.4784
vn -0.6844 -0.6844 -0.2515
vn -0.7616 -0.4373 -0.4784
vn -0.7616 -0.4373 -0.4784
vn -0.6844 -0.6844 -0.2515
vn -0.8960 -0.3763 -0.2359
vn -0.7616 -0.4373 -0.4784
vn -0.8960 -0.3763 -0.2359
vn -0.9272 -0.0000 -0.3746
vn -0.9272 -0.0000 -0.3746
vn -0.8960 -0.3763 -0.2359
vn -0.9808 -0.0000 -0.1951
vn 0.0000 0.0000 1.0000
vn 0.0000 0.0000 1.0000
vn 0.0000 0.0000 1.0000
vn 0.0000 0.0000 1.0000
vn 0.0000 0.0000 1.0000
vn 0.0000 0.0000 1.0000
vn 0.0000 0.0000 1.0000
vn 0.0000 0.0000 1.0000
vn 0.0000 0.0000 1.0000
vn 0.0000 0.0000 1.0000
vn 0.0000 0.0000 1.0000
vn 0.0000 0.0000 1.0000
vn 0.0000 0.0000 1.0000
vn 0.0000 0.0000 1.0000
vn 0.0000 0.0000 1.0000
vn 0.0000 0.0000 1.0000
vn 0.0000 0.0000 1.0000
vn 0.0000 0.0000 1.0000
vn 0.0000 0.0000 1.0000
vn 0.0000 0.0000 1.0000
vn 0.0000 0.0000 1.0000
vn 0.0000 0.0000 1.0000
vn 0.0000 0.0000 1.0000
vn 0.0000 0.0000 1.0000
vn 0.0000 0.0000 1.0000
vn 0.0000 0.0000 1.0000
vn 0.0000 0.0000 1.0000
vn 0.0000 0.0000 1.0000
vn 0.0000 0.0000 1.0000
vn 0.0000 0.0000 1.0000
vn 0.0000 0.0000 1.0000
vn 0.0000 0.0000 1.0000
vn 0.0000 0.0000 1.0000
vn 0.0000 0.0000 1.0000
vn 0.0000 0.0000 1.0000
vn 0.0000 0.0000 1.0000
vn 0.0000 0.0000 1.0000
vn 0.0000 0.0000 1.0000
vn 0.0000 0.0000 1.0000
vn 0.0000 0.0000 1.0000
vn 0.0000 0.0000 1.0000
vn 0.0000 0.0000 1.0000
vn 0.0000 0.0000 1.0000
vn 0.0000 0.0000 1.0000
vn 0.0000 0.0000 1.0000
vn 0.0000 0.0000 1.0000
vn 0.0000 0.0000 1.0000
vn 0.0000 0.0000 1.0000
vn -0.0000 1.0000 0.0000
vn -0.8496 -0.5275 0.0000
vn -0.8496 -0.5275 0.0000
vn -0.8496 -0.5275 0.0000
vn -0.0000 1.0000 -0.0000
vn -0.0000 1.0000 0.0000
vn -0.8496 -0.5275 0.0000
vn 0.8496 -0.5275 -0.0000
vn 0.8496 -0.5275 -0.0000
vn 0.8496 -0.5275 -0.0000
vn -0.8496 -0.5275 0.0000
vn -0.8496 -0.5275 0.0000
vn 0.8496 -0.5275 -0.0000
vn -0.0000 1.0000 0.0000
vn -0.0000 1.0000 -0.0000
vn -0.0000 1.0000 -0.0000
vn 0.8496 -0.5275 -0.0000
vn 0.8496 -0.5275 -0.0000
vn 0.0000 -0.0000 1.0000
vn 0.0000 -0.0000 1.0000
vn 0.0000 -0.0000 1.0000
# 261 vertex normals

vt 0.3750 1.0000 12.5000
vt 0.5000 0.5000 12.5000
vt 0.7500 0.5000 12.5000
vt 1.0000 0.5000 12.5000
vt 0.2500 0.5000 12.5000
vt 0.5000 0.8750 12.5000
vt 0.5000 0.7500 12.5000
vt 0.5000 0.6250 12.5000
vt 0.7500 0.8750 12.5000
vt 0.7500 0.7500 12.5000
vt 0.7500 0.6250 12.5000
vt 1.0000 0.8750 12.5000
vt 1.0000 0.7500 12.5000
vt 1.0000 0.6250 12.5000
vt 0.2500 0.8750 12.5000
vt 0.2500 0.7500 12.5000
vt 0.2500 0.6250 12.5000
vt 0.5625 0.5000 12.5000
vt 0.6250 0.5000 12.5000
vt 0.6875 0.5000 12.5000
vt 0.8125 0.5000 12.5000
vt 0.8750 0.5000 12.5000
vt 0.9375 0.5000 12.5000
vt 0.0625 0.5000 12.5000
vt 0.1250 0.5000 12.5000
vt 0.1875 0.5000 12.5000
vt 0.3125 0.5000 12.5000
vt 0.3750 0.5000 12.5000
vt 0.4375 0.5000 12.5000
vt 0.6250 0.8041 12.5000
vt 0.5815 0.6635 12.5000
vt 0.6685 0.6635 12.5000
vt 0.8750 0.8041 12.5000
vt 0.8315 0.6635 12.5000
vt 0.9185 0.6635 12.5000
vt 0.1250 0.8041 12.5000
vt 0.0815 0.6635 12.5000
vt 0.1685 0.6635 12.5000
vt 0.3750 0.8041 12.5000
vt 0.3315 0.6635 12.5000
vt 0.4185 0.6635 12.5000
vt 0.4688 0.5000 0.0000
vt 0.6250 1.0000 12.5000
vt 0.8750 1.0000 12.5000
vt 0.1250 1.0000 12.5000
vt 0.0000 0.8750 12.5000
vt 0.0000 0.8750 12.5000
vt 0.0000 0.7500 12.5000
vt 0.0000 0.8750 12.5000
vt 0.0000 0.7500 12.5000
vt 0.0000 0.6250 12.5000
vt 0.0000 0.7500 12.5000
vt 0.0000 0.6250 12.5000
vt 0.0000 0.5000 12.5000
vt 0.0000 0.6250 12.5000
vt 0.5313 0.5000 0.0000
vt 0.5938 0.5000 0.0000
vt 0.6563 0.5000 0.0000
vt 0.7188 0.5000 0.0000
vt 0.7813 0.5000 0.0000
vt 0.8438 0.5000 0.0000
vt 0.9063 0.5000 0.0000
vt 0.9688 0.5000 0.0000
vt 0.0000 0.5000 12.5000
vt 0.0313 0.5000 0.0000
vt 0.0938 0.5000 0.0000
vt 0.1563 0.5000 0.0000
vt 0.2188 0.5000 0.0000
vt 0.2813 0.5000 0.0000
vt 0.3438 0.5000 0.0000
vt 0.4063 0.5000 0.0000
vt 0.7500 0.0000 1.0000
vt 0.0833 0.0000 1.0000
vt 0.4167 0.0000 1.0000
vt 0.7500 1.0000 1.0000
vt 0.0833 1.0000 1.0000
vt 0.4167 1.0000 1.0000
vt -0.2500 0.0000 1.0000
vt -0.2500 1.0000 1.0000
vt 0.3333 1.0000 -2.0000
# 80 texture coords

o nodes2D_picking
g nodes2D_picking
usemtl OTHER
f 1/43/1 2/6/2 3/9/3
f 2/6/4 4/7/5 5/30/6
f 2/6/7 5/30/8 3/9/9
f 3/9/10 5/30/11 6/10/12
usemtl WEST
f 4/7/13 7/8/14 8/31/15
usemtl OTHER
f 4/7/16 8/31/17 5/30/18
f 5/30/19 8/31/20 9/32/21
f 5/30/22 9/32/23 6/10/24
usemtl NORTH
f 6/10/25 9/32/26 10/11/27
usemtl WEST
f 7/8/28 11/2/29 12/18/30
f 7/8/31 12/18/32 8/31/33
f 8/31/34 12/18/35 13/19/36
usemtl OTHER
f 8/31/37 13/19/38 9/32/39
usemtl NORTH
f 9/32/40 13/19/41 14/20/42
f 9/32/43 14/20/44 10/11/45
f 10/11/46 14/20/47 15/3/48
usemtl OTHER
f 1/44/49 3/9/50 16/12/51
f 3/9/52 6/10/53 17/33/54
f 3/9/55 17/33/56 16/12/57
f 16/12/58 17/33/59 18/13/60
usemtl NORTH
f 6/10/61 10/11/62 19/34/63
usemtl OTHER
f 6/10/64 19/34/65 17/33/66
f 17/33/67 19/34/68 20/35/69
f 17/33/70 20/35/71 18/13/72
usemtl EAST
f 18/13/73 20/35/74 21/14/75
usemtl NORTH
f 10/11/76 15/3/77 22/21/78
f 10/11/79 22/21/80 19/34/81
f 19/34/82 22/21/83 23/22/84
usemtl OTHER
f 19/34/85 23/22/86 20/35/87
usemtl EAST
f 20/35/88 23/22/89 24/23/90
f 20/35/91 24/23/92 21/14/93
f 21/14/94 24/23/95 25/4/96
usemtl OTHER
f 1/45/97 16/46/98 26/15/99
f 16/47/100 18/48/101 27/36/102
f 16/49/103 27/36/104 26/15/105
f 26/15/106 27/36/107 28/16/108
usemtl EAST
f 18/50/109 21/51/110 29/37/111
usemtl OTHER
f 18/52/112 29/37/113 27/36/114
f 27/36/115 29/37/116 30/38/117
f 27/36/118 30/38/119 28/16/120
usemtl SOUTH
f 28/16/121 30/38/122 31/17/123
usemtl EAST
f 21/53/124 25/54/125 32/24/126
f 21/55/127 32/24/128 29/37/129
f 29/37/130 32/24/131 33/25/132
usemtl OTHER
f 29/37/133 33/25/134 30/38/135
usemtl SOUTH
f 30/38/136 33/25/137 34/26/138
f 30/38/139 34/26/140 31/17/141
f 31/17/142 34/26/143 35/5/144
usemtl OTHER
f 1/1/145 26/15/146 2/6/147
f 26/15/148 28/16/149 36/39/150
f 26/15/151 36/39/152 2/6/153
f 2/6/154 36/39/155 4/7/156
usemtl SOUTH
f 28/16/157 31/17/158 37/40/159
usemtl OTHER
f 28/16/160 37/40/161 36/39/162
f 36/39/163 37/40/164 38/41/165
f 36/39/166 38/41/167 4/7/168
usemtl WEST
f 4/7/169 38/41/170 7/8/171
usemtl SOUTH
f 31/17/172 35/5/173 39/27/174
f 31/17/175 39/27/176 37/40/177
f 37/40/178 39/27/179 40/28/180
usemtl OTHER
f 37/40/181 40/28/182 38/41/183
usemtl WEST
f 38/41/184 40/28/185 41/29/186
f 38/41/187 41/29/188 7/8/189
f 7/8/190 41/29/191 11/2/192
f 12/18/193 11/2/194 42/56/195
f 13/19/196 12/18/197 42/57/198
usemtl NORTH
f 14/20/199 13/19/200 42/58/201
f 15/3/202 14/20/203 42/59/204
f 22/21/205 15/3/206 42/60/207
f 23/22/208 22/21/209 42/61/210
usemtl EAST
f 24/23/211 23/22/212 42/62/213
f 25/4/214 24/23/215 42/63/216
f 32/24/217 25/64/218 42/65/219
f 33/25/220 32/24/221 42/66/222
usemtl SOUTH
f 34/26/223 33/25/224 42/67/225
f 35/5/226 34/26/227 42/68/228
f 39/27/229 35/5/230 42/69/231
f 40/28/232 39/27/233 42/70/234
usemtl WEST
f 41/29/235 40/28/236 42/71/237
f 11/2/238 41/29/239 42/42/240
usemtl OTHER
f 43/78/241 44/73/242 45/76/243
f 45/76/244 46/79/245 43/78/246
f 44/73/247 47/74/248 48/77/249
f 48/77/250 45/76/251 44/73/252
f 47/74/253 43/72/254 46/75/255
f 46/75/256 48/77/257 47/74/258
f 48/77/259 46/75/260 45/80/261
# 87 faces
