# 3ds Max Wavefront OBJ Exporter v0.97b - (c)2007 guruware
# File Created: 30.05.2016 08:44:00

mtllib catom2Dpicking.mtl

#
# object modelLP
#

v  0.0000 2.5000 -0.5750
v  0.4980 2.5000 -0.2875
v  0.4980 -2.5000 -0.2875
v  -0.0000 -2.5000 -0.5750
v  0.4980 2.5000 0.2875
v  0.4980 -2.5000 0.2875
v  0.0000 2.5000 0.5750
v  -0.0000 -2.5000 0.5750
v  -0.4980 2.5000 0.2875
v  -0.4980 -2.5000 0.2875
v  -0.4980 2.5000 -0.2875
v  -0.4980 -2.5000 -0.2875
# 12 vertices

vn -0.0000 0.0000 -1.0000
vn 0.8660 -0.0000 -0.5000
vn -0.0000 -0.0000 -1.0000
vn 0.8660 -0.0000 0.5000
vn -0.0000 -0.0000 1.0000
vn -0.0000 0.0000 1.0000
vn -0.8660 0.0000 0.5000
vn -0.8660 0.0000 -0.5000
vn -0.0000 -1.0000 0.0000
vn 0.0000 1.0000 -0.0000
# 10 vertex normals

vt 0.7500 0.0000 1.0000
vt 0.9167 0.0000 1.0000
vt 0.9167 1.0000 1.0000
vt 0.7500 1.0000 1.0000
vt 1.0833 0.0000 1.0000
vt 1.0833 1.0000 1.0000
vt 0.0833 0.0000 1.0000
vt 0.2500 0.0000 1.0000
vt 0.2500 1.0000 1.0000
vt 0.0833 1.0000 1.0000
vt 0.4167 0.0000 1.0000
vt 0.4167 1.0000 1.0000
vt 0.5833 0.0000 1.0000
vt 0.5833 1.0000 1.0000
# 14 texture coords

g modelLP
usemtl face_5
s 8
f 1/1/1 2/2/2 3/3/2 4/4/3 
usemtl face_0
f 2/2/2 5/5/4 6/6/4 3/3/2 
usemtl face_1
f 5/7/4 7/8/5 8/9/6 6/10/4 
usemtl face_2
f 7/8/5 9/11/7 10/12/7 8/9/6 
usemtl face_3
f 9/11/7 11/13/8 12/14/8 10/12/7 
usemtl face_4
f 11/13/8 1/1/1 4/4/3 12/14/8 
usemtl face_FB
s 1
f 10/12/9 12/14/9 4/4/9 8/9/9 
s 2
f 8/9/9 4/4/9 3/3/9 6/10/9 
s 1
f 5/7/10 2/2/10 1/1/10 7/8/10 
f 7/8/10 1/1/10 11/13/10 9/11/10 
# 10 polygons

