# 3ds Max Wavefront OBJ Exporter v0.99 - (c)2007 guruware
# File Created: 20.05.2022 08:57:42

mtllib slidingCubePicking.mtl

#
# object SC_picking
#

v  5.0000 5.0000 5.0000
v  5.0000 5.0000 -5.0000
v  -5.0000 5.0000 -5.0000
v  -5.0000 5.0000 5.0000
v  5.0000 -5.0000 5.0000
v  -5.0000 -5.0000 5.0000
v  -5.0000 -5.0000 -5.0000
v  5.0000 -5.0000 -5.0000
# 8 vertices

vn 0.5774 0.5774 0.5774
vn 0.5774 0.5774 -0.5774
vn -0.5774 0.5774 -0.5774
vn -0.5774 0.5774 0.5774
vn 0.5774 -0.5774 0.5774
vn -0.5774 -0.5774 0.5774
vn -0.5774 -0.5774 -0.5774
vn 0.5774 -0.5774 -0.5774
# 8 vertex normals

vt 0.0000 1.0000 0.0000
vt 0.0000 0.0000 0.0000
vt 1.0000 0.0000 0.0000
vt 1.0000 1.0000 0.0000
# 4 texture coords

o SC_picking
g SC_picking
usemtl faceY
s 1
f 1/1/1 2/2/2 3/3/3 
f 3/3/3 4/4/4 1/1/1 
usemtl face_Y
f 5/4/5 6/1/6 7/2/7 
f 7/2/7 8/3/8 5/4/5 
usemtl face_Z
f 8/4/8 7/1/7 3/2/3 
f 3/2/3 2/3/2 8/4/8 
usemtl faceX
f 5/4/5 8/1/8 2/2/2 
f 2/2/2 1/3/1 5/4/5 
usemtl faceZ
f 6/4/6 5/1/5 1/2/1 
f 1/2/1 4/3/4 6/4/6 
usemtl face_X
f 7/4/7 6/1/6 4/2/4 
f 4/2/4 3/3/3 7/4/7 
# 12 faces

